<?xml version="1.0" encoding="UTF-8" standalone="no"?>
<!-- Created with Inkscape (http://www.inkscape.org/) -->

<svg
   xmlns:dc="http://purl.org/dc/elements/1.1/"
   xmlns:cc="http://creativecommons.org/ns#"
   xmlns:rdf="http://www.w3.org/1999/02/22-rdf-syntax-ns#"
   xmlns:svg="http://www.w3.org/2000/svg"
   xmlns="http://www.w3.org/2000/svg"
   xmlns:sodipodi="http://sodipodi.sourceforge.net/DTD/sodipodi-0.dtd"
   xmlns:inkscape="http://www.inkscape.org/namespaces/inkscape"
   width="990"
   height="720"
   sodipodi:docname="New document 166"
   id="svg126782"
   version="1.1"
   inkscape:version="0.48.1 r9760">
  <sodipodi:namedview
     id="base"
     pagecolor="#ffffff"
     bordercolor="#666666"
     borderopacity="1.0"
     inkscape:pageopacity="0.0"
     inkscape:pageshadow="2"
     inkscape:zoom="1.1458333"
     inkscape:cx="530.34545"
     inkscape:cy="360"
     inkscape:document-units="in"
     inkscape:current-layer="layer6"
     inkscape:window-width="1676"
     inkscape:window-height="1006"
     showgrid="false"
     units="in"
     inkscape:window-x="0"
     inkscape:window-y="0"
     inkscape:window-maximized="1" />
  <defs
     id="defs6412">
    <inkscape:path-effect
       effect="rough_hatches"
       id="path-effect126972"
       is_visible="true"
       direction="487.41814,628.21177 , -60.436382,-235.54806"
       dist_rdm="75;1"
       growth="0"
       do_bend="true"
       bender="487.41814,630.17506 , 5,0"
       bottom_edge_variation="35.083637;1"
       top_edge_variation="35.083637;1"
       bottom_tgt_variation="0;1"
       top_tgt_variation="0;1"
       scale_bf="1"
       scale_bb="1"
       scale_tf="1"
       scale_tb="1"
       top_smth_variation="0;1"
       bottom_smth_variation="0;1"
       fat_output="true"
       stroke_width_top="1"
       stroke_width_bottom="1"
       front_thickness="1"
       back_thickness="0.25" />
    <inkscape:path-effect
       back_thickness="0.25"
       front_thickness="1"
       stroke_width_bottom="1"
       stroke_width_top="1"
       fat_output="false"
       bottom_smth_variation="0;1"
       top_smth_variation="0;1"
       scale_tb="1"
       scale_tf="1"
       scale_bb="1"
       scale_bf="1"
       top_tgt_variation="0;-547591043"
       bottom_tgt_variation="0.9;654207591"
       top_edge_variation="0;1"
       bottom_edge_variation="0;1"
       bender="487.41814,442.40588 , 5,0"
       do_bend="true"
       growth="0"
       dist_rdm="75;1"
       direction="487.41814,439.85764 , 1.5272545,-66.717302"
       is_visible="true"
       id="path-effect126968"
       effect="rough_hatches" />
    <inkscape:path-effect
       back_thickness="0.25"
       front_thickness="1"
       stroke_width_bottom="1"
       stroke_width_top="1"
       fat_output="true"
       bottom_smth_variation="0;1"
       top_smth_variation="0;1"
       scale_tb="1"
       scale_tf="1"
       scale_bb="1"
       scale_bf="1"
       top_tgt_variation="0;1"
       bottom_tgt_variation="0;1"
       top_edge_variation="45.992728;1"
       bottom_edge_variation="45.992728;1"
       bender="486.54544,245.67273 , 5,0"
       do_bend="true"
       growth="0"
       dist_rdm="75;1"
       direction="486.54544,240.67273 , 59.563631,148.36364"
       is_visible="true"
       id="path-effect126942"
       effect="rough_hatches" />
    <inkscape:path-effect
       back_thickness="0.25"
       front_thickness="1"
       stroke_width_bottom="1"
       stroke_width_top="1"
       fat_output="true"
       bottom_smth_variation="0;1"
       top_smth_variation="0;1"
       scale_tb="1"
       scale_tf="1"
       scale_bb="1"
       scale_bf="1"
       top_tgt_variation="0;1"
       bottom_tgt_variation="0;1"
       top_edge_variation="45.992728;1"
       bottom_edge_variation="45.992728;1"
       bender="502.54544,147.84447 , 5,0"
       do_bend="true"
       growth="0"
       dist_rdm="75;1"
       direction="502.54544,144.90155 , 118.90909,101.88387"
       is_visible="true"
       id="path-effect126942-5"
       effect="rough_hatches" />
    <inkscape:path-effect
       effect="rough_hatches"
       id="path-effect126972-0"
       is_visible="true"
       direction="488.64592,628.21177 , -60.436382,-235.54806"
       dist_rdm="75;1"
       growth="0"
       do_bend="true"
       bender="488.64592,630.17506 , 5,0"
       bottom_edge_variation="35.083637;1"
       top_edge_variation="35.083637;1"
       bottom_tgt_variation="0;1"
       top_tgt_variation="0;1"
       scale_bf="1"
       scale_bb="1"
       scale_tf="1"
       scale_tb="1"
       top_smth_variation="0;1"
       bottom_smth_variation="0;1"
       fat_output="true"
       stroke_width_top="1"
       stroke_width_bottom="1"
       front_thickness="1"
       back_thickness="0.25" />
    <inkscape:path-effect
       back_thickness="0.25"
       front_thickness="1"
       stroke_width_bottom="1"
       stroke_width_top="1"
       fat_output="false"
       bottom_smth_variation="0;1"
       top_smth_variation="0;1"
       scale_tb="1"
       scale_tf="1"
       scale_bb="1"
       scale_bf="1"
       top_tgt_variation="0;547591044"
       bottom_tgt_variation="0.9;654207591"
       top_edge_variation="0;1"
       bottom_edge_variation="0;1"
       bender="494.62453,431.93315 , 5,0"
       do_bend="true"
       growth="0"
       dist_rdm="75;1"
       direction="494.62453,429.68342 , 1.5272545,-58.901834"
       is_visible="true"
       id="path-effect126968-2"
       effect="rough_hatches" />
    <inkscape:path-effect
       back_thickness="0.25"
       front_thickness="1"
       stroke_width_bottom="1"
       stroke_width_top="1"
       fat_output="false"
       bottom_smth_variation="0;1"
       top_smth_variation="0;1"
       scale_tb="1"
       scale_tf="1"
       scale_bb="1"
       scale_bf="1"
       top_tgt_variation="0;547591044"
       bottom_tgt_variation="0.9;654207591"
       top_edge_variation="0;1"
       bottom_edge_variation="0;1"
       bender="494.59621,463.49212 , 5,0"
       do_bend="true"
       growth="0"
       dist_rdm="75;1"
       direction="494.59621,460.34285 , 0.65452723,-179.52459"
       is_visible="true"
       id="path-effect126968-2-3"
       effect="rough_hatches" />
    <inkscape:path-effect
       back_thickness="0.25"
       front_thickness="1"
       stroke_width_bottom="1"
       stroke_width_top="1"
       fat_output="false"
       bottom_smth_variation="0;1"
       top_smth_variation="0;1"
       scale_tb="1"
       scale_tf="1"
       scale_bb="1"
       scale_bf="1"
       top_tgt_variation="0;547591044"
       bottom_tgt_variation="0;654207591"
       top_edge_variation="0;1"
       bottom_edge_variation="0;1"
       bender="494.63362,360.6805 , 5.0591445,0"
       do_bend="true"
       growth="0"
       dist_rdm="0;1"
       direction="494.63362,350.70804 , 3.3114215,-101.54201"
       is_visible="true"
       id="path-effect126968-2-2"
       effect="rough_hatches" />
  </defs>
  <metadata
     id="metadata6415">
    <rdf:RDF>
      <cc:Work
         rdf:about="">
        <dc:format>image/svg+xml</dc:format>
        <dc:type
           rdf:resource="http://purl.org/dc/dcmitype/StillImage" />
        <dc:title></dc:title>
      </cc:Work>
    </rdf:RDF>
  </metadata>
  <g
     inkscape:groupmode="layer"
     id="layer8"
     inkscape:label="8-Brown" />
  <g
     inkscape:groupmode="layer"
     id="layer7"
     inkscape:label="7-Violet" />
  <g
     style="display:inline"
     inkscape:groupmode="layer"
     id="layer6"
     inkscape:label="6-Blue">
    <path
       inkscape:connector-curvature="0"
       inkscape:original-d="m 30.836364,12.491516 943.418156,0 0,270.705904 -943.418156,0 z"
       inkscape:path-effect="#path-effect126942-5"
       id="rect126939"
       d="m 961.42564,283.19742 c 0,0 2.04837,-2.29085 4.1099,-8.24799 2.06153,-5.95714 4.13896,-15.58058 4.14961,-30.24576 0.005,-7.47461 -3.96201,-8.52097 -10.43262,-5.88604 -6.4706,2.63492 -15.4499,8.95114 -25.49375,16.20168 -20.0877,14.50108 -44.4584,32.73946 -61.26598,32.73946 -8.52724,0 -7.16187,-8.85138 -0.35643,-22.7086 6.80543,-13.85722 19.04041,-32.72028 32.27003,-52.74364 13.22961,-20.02336 27.45142,-41.20701 38.34522,-59.70541 10.89379,-18.49841 18.4652,-34.31157 18.48473,-43.59393 0.0198,-9.427709 -12.00579,-2.3386 -30.25993,13.59814 -18.25414,15.93674 -42.77385,40.72112 -67.76643,66.68396 -24.99258,25.96285 -50.46297,53.10415 -70.32794,73.75475 -19.86497,20.6506 -34.09735,34.81048 -36.49017,34.81048 -2.51628,0 9.50464,-15.82854 28.59787,-39.72794 19.09323,-23.89939 45.2246,-55.86964 71.03996,-88.15306 25.81537,-32.28341 51.31342,-64.87999 69.51702,-90.032052 18.20361,-25.152058 29.1443,-42.859594 25.99549,-45.36492 -3.22275,-2.564164 -19.82309,12.403983 -43.51967,36.298547 -23.69657,23.894564 -54.53133,56.715545 -86.12234,89.857045 -31.59101,33.1415 -63.93979,66.60352 -90.23804,91.78017 -26.29826,25.17664 -46.50708,42.06791 -53.67243,42.06791 -7.28881,0 3.3756,-18.36385 22.76556,-45.90962 19.38995,-27.54578 47.45944,-64.27348 75.14184,-101.00118 27.68241,-36.7277 54.97774,-73.455398 73.32559,-101.001173 18.34785,-27.545776 27.79424,-45.90962596 19.93984,-45.90962596 -7.97786,0 -28.05434,16.87165796 -54.41338,42.17914496 -26.35903,25.307487 -59.03946,59.050804 -92.08927,92.794114 -33.04981,33.74332 -66.46899,67.48664 -93.87825,92.79412 -27.40926,25.30749 -48.76975,42.17915 -57.56621,42.17915 -8.91992,0 -1.50434,-16.1213 14.26064,-40.30325 15.76498,-24.18195 39.84388,-56.42454 64.37474,-88.66714 24.53086,-32.2426 49.51366,-64.485193 67.47656,-88.66714 17.9629,-24.181948 28.94135,-40.303246 25.58762,-40.303246 -3.47719,0 -20.20581,16.871658 -43.74052,42.179145 -23.53471,25.307487 -53.91437,59.050801 -84.55768,92.794121 -30.64331,33.74331 -61.55028,67.48663 -85.71233,92.79412 -24.16206,25.30748 -41.54036,42.17914 -44.99039,42.17914 -3.57348,0 8.0131,-16.27478 26.86355,-40.68695 18.85045,-24.41217 44.92863,-56.96174 70.46485,-89.5113 25.53623,-32.54956 50.53049,-65.099121 67.6107,-89.511293 17.0802,-24.412171 26.28249,-40.686952 20.36127,-40.686952 -6.04469,0 -24.72092,16.871658 -49.74793,42.179145 -25.02702,25.307487 -56.44367,59.0508 -87.83324,92.79412 -31.38957,33.74331 -62.75206,67.48663 -87.2435,92.79412 -24.49143,25.30748 -42.07295,42.17914 -45.76462,42.17914 -3.81513,0 8.01631,-16.73523 27.38292,-41.83807 19.36661,-25.10284 46.23016,-58.5733 72.61302,-92.04376 26.38285,-33.47046 52.285,-66.940915 70.1492,-92.043759 17.8642,-25.102843 27.72866,-41.838072 22.16991,-41.838072 -5.68222,0 -24.09162,16.871658 -49.18847,42.179145 -25.09686,25.307487 -56.92001,59.050806 -89.29377,92.794116 -32.37376,33.74332 -65.29813,67.48663 -92.17015,92.79412 -26.87202,25.30749 -47.65284,42.17915 -55.60354,42.17915 -8.07416,0 0.40299,-16.54764 17.06421,-41.3691 16.66123,-24.82146 41.46917,-57.91674 66.1874,-91.01202 24.71822,-33.09527 49.34672,-66.190552 66.0601,-91.012011 16.71337,-24.821459 25.54898,-41.369098 18.81219,-41.369098 -6.86024,0 -26.1651,16.871658 -51.64988,42.179145 -25.48478,25.307487 -57.18832,59.050804 -88.70999,92.794114 -31.52166,33.74332 -62.86144,67.48664 -87.19142,92.79412 -24.32997,25.30749 -41.61129,42.17915 -44.88009,42.17915 -3.39224,0 10.29734,-18.46617 32.3952,-46.16543 22.09786,-27.69926 52.55746,-64.6316 82.86809,-101.56395 30.31063,-36.93234 60.4723,-73.864686 82.48615,-101.563944 22.01386,-27.699258 35.92644,-46.1654297 33.90177,-46.1654297 -2.14812,0 -17.86016,16.8716577 -40.50432,42.1791447 -22.64417,25.307487 -52.25931,59.050799 -82.07769,92.794119 -29.81838,33.74332 -59.84001,67.48663 -82.86986,92.79412 -23.02986,25.30749 -39.02911,42.17914 -40.66679,42.17914 -1.76113,0 11.61424,-16.78639 32.11761,-41.96597 20.50337,-25.17959 48.09629,-58.75237 74.90484,-92.32515 26.80855,-33.57277 52.83274,-67.145554 70.6216,-92.325139 17.78886,-25.179585 27.38087,-41.9659746 21.45964,-41.9659746 -6.04469,0 -24.68228,16.8716576 -49.64946,42.1791446 -24.96717,25.307487 -56.30278,59.050799 -87.60753,92.794119 -31.30475,33.74332 -62.57865,67.48663 -86.99514,92.79412 -24.41649,25.30749 -41.93672,42.17914 -45.59819,42.17914 -3.78492,0 7.58963,-16.23214 26.44008,-40.58036 18.85046,-24.34822 45.14086,-56.81252 71.31349,-89.27681 26.17264,-32.4643 52.22749,-64.92859 71.00235,-89.27681 18.77486,-24.348221 30.30567,-40.580368 27.55606,-40.580368 -2.87307,0 -19.15551,16.871658 -42.2475,42.179145 -23.09199,25.307487 -53.03238,59.050803 -83.08539,92.794123 -30.05302,33.74331 -60.21866,67.48663 -83.33387,92.79411 -23.115217,25.30749 -39.141164,42.17915 -40.778839,42.17915 -1.761131,0 12.21763,-17.44296 33.813714,-43.60739 21.596085,-26.16443 50.767975,-61.05034 79.538415,-95.93625 28.77043,-34.88591 57.13942,-69.771814 77.58641,-95.936245 20.44699,-26.164432 33.0135,-43.6073865 30.3243,-43.6073865 -2.81265,0 -19.0067,16.8450395 -41.93294,42.0610465 -22.92623,25.216008 -52.62338,58.802985 -82.30365,92.286855 -29.68027,33.48387 -59.343184,66.86464 -81.775538,91.66823 -22.432355,24.80358 -37.594476,41.03 -38.148874,40.20516 -0.608071,-0.90469 12.888473,-17.52689 33.05664,-41.9513 20.168167,-24.42441 46.974252,-56.65104 73.118102,-88.76458 26.14386,-32.11354 51.62597,-64.113995 69.52822,-88.086063 17.90225,-23.972069 28.25932,-39.915753 24.27126,-39.915753 -4.1115,0 -18.99943,14.094726 -39.15392,34.620049 -20.1545,20.525323 -45.60247,47.481243 -70.71011,73.203627 -25.10764,25.72239 -49.869802,50.21125 -68.365652,65.80245 -18.495849,15.59119 -30.688169,22.28473 -30.686987,12.41648 0.0012,-10.01117 7.228931,-25.91111 17.709762,-44.12974 C 58.379105,137.82291 72.108517,117.28559 85.199424,97.999665 111.38124,59.42782 134.9962,25.861559 125.87227,25.861559 c -4.68542,0 -13.59238,6.422104 -24.34481,15.495716 C 90.775033,50.430887 78.171677,62.156006 66.124456,72.762036 54.077235,83.368066 42.588452,92.855007 34.11982,97.452261 25.651188,102.04952 20.21277,101.75708 20.228176,92.80437 20.25949,74.60763 29.475793,54.529416 38.653753,39.000388 47.831714,23.471359 56.9873,12.491516 56.9873,12.491516 c 0,0 -9.315478,11.072584 -18.654055,26.742905 -9.338577,15.67032 -18.716501,35.938378 -18.750055,54.329326 -0.01704,9.341133 5.502491,9.827773 14.074706,5.303343 C 42.23011,94.342663 53.844493,84.80717 65.97588,74.104037 78.107267,63.400903 90.753209,51.530128 101.44449,42.335136 c 10.69129,-9.194992 19.43353,-15.7142 23.78973,-15.7142 8.95932,0 -14.66118,33.470985 -40.80574,71.995191 -13.07228,19.262103 -26.772481,39.787513 -37.228976,58.024003 -10.456496,18.2365 -17.664847,34.18407 -17.667105,44.29052 -0.0023,10.24936 12.272563,3.74637 30.874376,-11.77337 18.601813,-15.51974 43.492515,-40.05623 68.686145,-65.8739 25.19363,-25.817662 50.68479,-52.916498 70.77785,-73.560917 20.09306,-20.644419 34.81529,-34.834422 38.59758,-34.834422 3.90575,0 -6.50356,15.930375 -24.43531,39.885807 C 196.1013,78.729281 170.6125,110.70977 144.47706,142.81 c -26.13544,32.10023 -52.918029,64.3202 -73.055942,88.7546 -20.137913,24.4344 -33.597557,41.08321 -32.953803,42.04114 0.697418,1.03778 16.015607,-15.08216 38.581678,-39.84582 22.566071,-24.76366 52.339857,-58.17105 82.070627,-91.70816 29.73077,-33.5371 59.41792,-67.203932 82.2387,-92.486485 22.82078,-25.282553 38.81415,-42.1808293 41.29759,-42.1808293 2.60689,0 -10.02315,17.4429543 -30.51401,43.6073863 -20.49085,26.164431 -48.88403,61.050338 -77.65808,95.936248 -28.77406,34.88591 -57.92898,69.77182 -79.486627,95.93625 -21.557643,26.16443 -35.476484,43.60739 -33.633049,43.60739 1.966892,0 18.2415,-16.87166 41.523946,-42.17915 23.28245,-25.30749 53.53389,-59.0508 83.5904,-92.79412 30.05651,-33.74331 59.91809,-67.486629 82.8481,-92.794116 22.93,-25.307487 38.96728,-42.179145 41.51113,-42.179145 2.6673,0 -8.92692,16.232147 -27.74545,40.580368 -18.81854,24.34822 -44.89733,56.812513 -71.07333,89.276803 -26.17599,32.4643 -52.44919,64.92859 -71.26101,89.27681 -18.81183,24.34822 -30.12633,40.58037 -26.2591,40.58037 3.99068,0 21.75958,-16.87166 46.3433,-42.17914 24.58372,-25.30749 55.94342,-59.05081 87.25166,-92.79412 31.30825,-33.74332 62.56505,-67.486635 87.37024,-92.794122 24.80519,-25.307486 43.19762,-42.1791444 48.91308,-42.1791444 5.83893,0 -3.81654,16.7863894 -21.64917,41.9659744 -17.83262,25.179585 -43.88086,58.752362 -70.69289,92.325142 -26.81203,33.57278 -54.38785,67.14556 -74.85268,92.32515 -20.46482,25.17958 -33.78021,41.96597 -31.93677,41.96597 1.96689,0 18.2148,-16.87166 41.41189,-42.17914 23.19709,-25.30749 53.30452,-59.05081 83.12639,-92.79412 29.82188,-33.74332 59.35821,-67.486635 81.84039,-92.794122 22.48218,-25.307487 37.94905,-42.1791445 39.76796,-42.1791445 1.94237,0 -12.03386,18.4661715 -34.09174,46.1654295 -22.05788,27.699258 -52.24395,64.631607 -82.5584,101.563947 -30.31446,36.93234 -60.75731,73.86469 -82.81689,101.56395 -22.05957,27.69925 -35.68935,46.16543 -32.21479,46.16543 3.598,0 21.12799,-16.87166 45.62519,-42.17915 24.49721,-25.30749 55.92279,-59.0508 87.44795,-92.79412 31.52516,-33.74331 63.1499,-67.48663 88.47269,-92.794117 25.3228,-25.307487 44.38249,-42.179144 50.91351,-42.179144 6.65449,0 -2.24456,16.547639 -19.00166,41.369097 -16.7571,24.821459 -41.40961,57.916734 -66.13126,91.012014 -24.72165,33.09528 -49.51245,66.19056 -66.1351,91.01202 -16.62264,24.82145 -25.03977,41.36909 -16.88331,41.36909 8.27992,0 29.3094,-16.87165 56.34865,-42.17914 27.03925,-25.30749 60.04942,-59.0508 92.42668,-92.79412 32.37726,-33.74332 64.1216,-67.486632 89.05647,-92.794119 24.93487,-25.307487 43.0991,-42.179145 48.4521,-42.179145 5.47645,0 -4.45148,16.735229 -22.35943,41.838072 -17.90795,25.102844 -43.83415,58.573302 -70.22047,92.043762 -26.38632,33.47046 -53.23277,66.94091 -72.56082,92.04376 -19.32806,25.10284 -31.09951,41.83807 -27.20208,41.83807 4.02089,0 21.85108,-16.87166 46.50974,-42.17915 24.65866,-25.30748 56.10696,-59.0508 87.50003,-92.79411 31.39306,-33.74332 62.7309,-67.486636 87.59593,-92.794123 24.86503,-25.307487 43.2961,-42.179145 49.01156,-42.179145 5.83893,0 -3.42678,16.274781 -20.55066,40.686952 -17.12389,24.412172 -42.14211,56.961736 -67.6817,89.511296 -25.5396,32.54956 -51.60057,65.09912 -70.4124,89.5113 -18.81183,24.41217 -30.33837,40.68695 -26.68258,40.68695 3.77924,0 21.4062,-16.87166 45.73549,-42.17915 24.32929,-25.30748 55.32205,-59.0508 85.96886,-92.79412 30.64681,-33.74331 60.94766,-67.486627 84.32039,-92.794114 23.37272,-25.307487 39.85618,-42.179145 43.00414,-42.179145 3.27143,0 -7.77042,16.121299 -25.77697,40.303246 -18.00656,24.181948 -43.01328,56.424543 -67.54748,88.667143 -24.5342,32.24259 -48.59587,64.48519 -64.3222,88.66714 -15.72633,24.18195 -23.08186,40.30325 -14.07963,40.30325 9.12568,0 30.73483,-16.87166 58.31132,-42.17915 27.57649,-25.30749 61.08147,-59.0508 94.13478,-92.79412 33.0533,-33.74331 65.65492,-67.48663 91.85197,-92.794117 26.19705,-25.307487 46.02837,-42.1791448 53.67701,-42.1791448 7.7721,0 -1.73792,18.3638498 -20.12978,45.9096258 -18.39186,27.545775 -45.71157,64.273476 -73.39778,101.001176 -27.68621,36.7277 -55.73893,73.4554 -75.09058,101.00118 -19.35166,27.54577 -29.95625,45.90962 -22.58514,45.90962 7.49457,0 27.91758,-16.85204 54.34064,-41.97966 26.42306,-25.12761 58.80743,-58.53079 90.36926,-91.63307 31.56182,-33.10227 62.30251,-65.903639 85.86272,-89.827622 23.56021,-23.923984 39.98151,-38.970583 43.00681,-36.563323 3.09925,2.4661 -7.88836,20.154023 -26.12927,45.298727 -18.2409,25.144708 -43.7667,57.746188 -69.59358,90.039408 -25.82689,32.29322 -51.95356,64.27818 -71.01873,88.18984 -19.06518,23.91165 -31.03463,39.75 -28.43605,39.75 2.72204,0 17.11764,-14.06299 37.04427,-34.59247 19.92664,-20.52948 45.3575,-47.52544 70.27125,-73.39139 24.91374,-25.86595 49.31504,-50.60188 67.46968,-66.61129 18.15464,-16.00942 30.0988,-23.29231 30.07885,-14.25218 -0.0203,9.18547 -7.61335,24.95018 -18.53422,43.43041 -10.92087,18.48024 -25.17527,39.676 -38.42753,59.72358 -13.25226,20.04758 -25.49997,38.94698 -32.29202,52.83448 -6.79204,13.8875 -8.11786,22.76311 0.49169,22.76311 17.46602,0 41.83663,-17.85967 61.76191,-32.1714 9.96264,-7.15586 18.8198,-13.42474 25.18804,-16.13067 6.36823,-2.70594 10.25275,-1.84894 10.24686,5.24696 -0.012,14.47583 -1.92411,23.90942 -3.82011,29.72406 -1.89599,5.81464 -3.77867,8.01032 -3.77867,8.01032 z"
       style="color:#000000;fill:none;stroke:#0000ff;stroke-width:5;stroke-linecap:round;stroke-linejoin:round;stroke-miterlimit:4;stroke-opacity:1;stroke-dasharray:none;stroke-dashoffset:0;marker:none;visibility:visible;display:inline;overflow:visible;enable-background:accumulate" />
    <path
       inkscape:connector-curvature="0"
       inkscape:original-d="m 15.032615,353.00468 959.127195,0 0,220.97486 -959.127195,0 z"
       inkscape:path-effect="#path-effect126968-2-3"
       id="rect126965-4"
       d="m 598.27888,353.00468 c 0,0 93.9699,0.27314 187.95003,3.30301 93.98014,3.02986 187.97613,8.81643 187.97675,19.8433 6.3e-4,11.02687 -239.8056,15.73556 -479.57768,21.41735 -239.77208,5.68178 -479.504198,12.33666 -479.504198,27.25591 0,14.91924 239.738688,23.26889 479.517118,31.30314 239.77842,8.03424 479.59497,15.75308 479.59479,29.41068 -1.7e-4,13.65759 -239.82446,19.59632 -479.62061,23.23398 -239.79614,3.63765 -479.574342,4.97422 -479.574342,9.42752 0,4.45329 239.779722,7.55419 479.567342,11.81231 239.78762,4.25811 479.58551,9.67343 479.58551,18.75555 0,9.08212 -239.80118,12.7489 -479.58996,14.14514 -239.78878,1.39625 -479.571015,0.52196 -479.571015,0.52196"
       style="color:#000000;fill:none;stroke:#0090ff;stroke-width:4.99999952;stroke-linecap:round;stroke-linejoin:round;stroke-miterlimit:4;stroke-opacity:1;stroke-dasharray:none;stroke-dashoffset:0;marker:none;visibility:visible;display:inline;overflow:visible;enable-background:accumulate" />
  </g>
  <g
     inkscape:groupmode="layer"
     id="layer5"
     inkscape:label="5-Green">
    <path
       inkscape:connector-curvature="0"
       inkscape:original-d="m 15.060935,353.00469 959.127195,0 0,157.85691 -959.127195,0 z"
       inkscape:path-effect="#path-effect126968-2"
       id="rect126965"
       d="m 719.82875,353.00469 c 0,0 254.36901,6.31241 254.36982,13.54855 8e-4,7.23615 -812.89024,-13.54855 -886.007687,-5.65352 -36.55872,3.94751 184.978757,12.15106 415.621807,20.48837 230.64305,8.33731 470.39078,16.80838 470.39067,21.29094 -1.1e-4,4.48255 -239.76848,0.49288 -479.55129,-4.25209 -239.78281,-4.74496 -479.589421,-10.24523 -479.589421,-8.78384 0,1.46138 239.816681,8.40758 479.600611,15.73378 239.78394,7.32619 479.532,15.03238 479.532,18.01372 0,2.98134 -239.76234,-1.74427 -479.54337,-6.16784 -239.78103,-4.42356 -479.576867,-8.54508 -479.576867,-4.35554 0,4.18953 239.816137,12.51836 479.597967,20.91674 239.78184,8.39838 479.52893,16.86631 479.52881,21.33404 -2.4e-4,8.93546 -959.119794,-16.00541 -959.119794,-5.75788 0,5.12377 239.815364,13.82116 479.595224,21.71132 239.77986,7.89016 479.52988,14.97308 479.53014,16.86791 2.5e-4,1.89484 -239.76161,-3.29374 -479.54755,-8.43922 -239.78594,-5.14547 -479.595455,-10.24784 -479.595455,-8.18059 0,2.06725 239.818475,9.28046 472.540635,16.63461 232.72216,7.35415 458.34687,14.84924 430.09625,17.48025 -28.25062,2.63101 -253.89385,-1.50082 -472.49001,-5.73891 C 226.61508,495.4574 15.064841,491.11304 15.064841,493.319 c 0,4.41192 506.035599,17.40554 262.731909,17.40554 -243.303689,0 -262.735815,-0.367 -262.735815,-0.367"
       style="color:#000000;fill:none;stroke:#009000;stroke-width:5;stroke-linecap:round;stroke-linejoin:round;stroke-miterlimit:4;stroke-opacity:1;stroke-dasharray:none;stroke-dashoffset:0;marker:none;visibility:visible;display:inline;overflow:visible;enable-background:accumulate" />
  </g>
  <g
     inkscape:groupmode="layer"
     id="layer4"
     inkscape:label="4-Yellow" />
  <g
     inkscape:groupmode="layer"
     id="layer3"
     inkscape:label="3-Orange" />
  <g
     inkscape:groupmode="layer"
     id="layer2"
     inkscape:label="2-Red" />
  <g
     inkscape:groupmode="layer"
     id="layer1"
     inkscape:label="1-Black">
    <path
       style="color:#000000;fill:none;stroke:#000000;stroke-width:5;stroke-linecap:round;stroke-linejoin:round;stroke-miterlimit:4;stroke-opacity:1;stroke-dasharray:none;stroke-dashoffset:0;marker:none;visibility:visible;display:inline;overflow:visible;enable-background:accumulate"
       d="m 9.0823244,600.88702 c 0,0 39.9746286,-10.16781 94.6147056,-20.33562 54.64008,-10.16781 123.94561,-20.33563 183.04323,-20.33563 29.92604,0 28.02516,6.30991 9.68094,16.06077 -18.34421,9.75087 -53.15257,22.94269 -88.99425,36.70651 -35.84168,13.76382 -72.72015,28.09966 -94.97534,40.13854 -22.255186,12.03889 -29.873212,21.78083 -7.04301,26.35687 23.04137,4.61838 74.7192,-0.67759 141.01562,-11.10456 66.29642,-10.42696 147.15969,-25.98493 228.58936,-41.89056 81.42968,-15.90563 163.42226,-32.15892 232.40901,-43.97653 68.98675,-11.81761 125.01239,-19.19955 154.63079,-17.36247 29.92271,1.85595 22.76403,10.91276 -4.20927,23.45402 -26.97331,12.54125 -73.78854,28.56694 -123.0285,44.36064 -49.23996,15.79369 -100.90283,31.3554 -137.22987,42.96868 -36.32705,11.61327 -57.28734,19.27813 -45.02623,19.27813 12.63834,0 45.77378,-6.01431 88.27203,-14.64678 42.49826,-8.63247 94.3406,-19.8831 144.48879,-30.35575 50.14819,-10.47266 98.60781,-20.16733 134.53548,-25.68789 35.92766,-5.52055 59.35326,-6.86698 59.36238,-0.64315 0.009,6.32066 -12.1322,14.17989 -30.39419,22.41335 -18.26199,8.23347 -42.64541,16.84117 -67.06362,24.6588 -48.83641,15.63524 -97.80726,28.11015 -97.80726,28.11015 0,0 49.21306,-12.47249 98.29198,-28.13759 24.53947,-7.83254 49.04415,-16.46325 67.39683,-24.73211 18.35268,-8.26887 30.55424,-16.17591 30.54405,-22.56113 -0.0104,-6.48205 -23.68864,-5.26473 -59.92874,0.20741 -36.2401,5.47214 -85.07291,15.19909 -135.46985,25.7363 -50.39695,10.53721 -102.36391,21.88467 -144.67404,30.59784 -42.31013,8.71316 -74.9443,14.79202 -86.57671,14.79202 -12.00963,0 9.12589,-7.66171 45.56178,-19.27105 36.43588,-11.60935 88.14123,-27.16633 137.36702,-42.95688 49.22578,-15.79056 95.97016,-31.81467 122.82537,-44.35829 26.85521,-12.54361 33.84849,-21.60672 3.72267,-23.47525 -30.43013,-1.88741 -87.00301,5.44114 -156.31714,17.21405 -69.31412,11.77291 -151.41419,27.99016 -232.77884,43.88016 -81.36464,15.88999 -161.99057,31.45272 -227.92597,41.91658 -65.93541,10.46386 -117.12901,15.82884 -139.60786,11.32334 -22.690028,-4.54783 -14.939732,-14.27567 7.41924,-26.30926 22.35897,-12.0336 59.31265,-26.37295 95.18027,-40.14383 35.86761,-13.77088 70.6526,-26.97328 88.904,-36.73296 18.25139,-9.75968 19.99004,-16.07664 -10.18747,-16.07664 -61.10947,0 -130.65353,10.22994 -185.03051,20.45988 -54.376975,10.22995 -93.5868756,20.45989 -93.5868756,20.45989 z"
       id="path126970"
       inkscape:path-effect="#path-effect126972-0"
       inkscape:original-d="m 9.0823244,561.29557 959.1271956,0 0,137.75897 -959.1271956,0 z"
       inkscape:connector-curvature="0" />
  </g>
  <g
     style="display:inline"
     inkscape:groupmode="layer"
     id="layer0"
     inkscape:label="0-Water Wash">
    <path
       inkscape:connector-curvature="0"
       inkscape:original-d="m 9.3973101,10.811343 970.4726199,0 0,699.738247 -970.4726199,0 z"
       inkscape:path-effect="#path-effect126968-2-2"
       id="rect126965-41"
       d="m 669.82734,10.811343 c 0,0 310.04366,10.108557 310.04366,20.2713 0,10.162742 -933.445407,-20.2713 -951.959076,-10.712248 C 9.3982542,29.929447 979.871,61.571131 979.871,71.73417 979.871,81.897208 9.3983773,50.255056 9.3983773,60.417991 c 0,10.162934 970.4726227,41.805519 970.4726227,51.968819 0,10.1633 -970.4726226,-21.479684 -970.4726226,-11.31647 0,10.16321 970.4726226,41.80663 970.4726226,51.97022 0,10.1636 -970.4726226,-21.48029 -970.4726226,-11.31679 0,10.16349 970.4726226,41.80781 970.4726226,51.97166 0,10.16386 -970.4726225,-21.48086 -970.4726225,-11.31709 0,10.16377 970.4726225,41.80892 970.4726225,51.97307 0,10.16416 -970.4726225,-21.48146 -970.4726225,-11.31741 0,10.16404 970.4726225,41.8101 970.4726225,51.97451 0,10.16441 -970.4726224,-21.48204 -970.4726224,-11.31771 0,10.16433 970.4726224,41.81121 970.4726224,51.97592 0,10.16471 -970.4726224,-21.48265 -970.4726224,-11.31804 0,10.16461 970.4726224,41.81239 970.4726224,51.97736 0,10.16497 -970.4726223,-21.48321 -970.4726223,-11.31833 0,10.16489 970.4726223,41.81354 970.4726223,51.97878 0,10.16524 -970.4726222,-21.48383 -970.4726222,-11.31865 0,10.16518 970.4726222,41.81468 970.4726222,51.9802 0,10.16552 -970.4726222,-21.48442 -970.4726222,-11.31896 0,10.16546 970.4726222,41.81581 970.4726222,51.98161 0,10.1658 -970.4726221,-21.48499 -970.4726221,-11.31926 0,10.16573 970.4726221,41.81698 970.4726221,51.98306 0,10.16607 -970.4726221,-21.48562 -970.4726221,-11.31959 0,10.16602 970.4726221,41.81811 970.4726221,51.98447 0,10.16635 -970.472622,-21.48617 -970.472622,-11.31989 0,10.16629 970.472622,41.81928 970.472622,51.98591 0,10.16664 -970.4726219,-21.48679 -970.4726219,-11.32021 0,10.16658 970.4726219,41.82041 970.4726219,51.98732 0,10.16691 -970.4726219,-21.48735 -970.4726219,-11.3205 0,10.16684 970.4726219,41.82155 970.4726219,51.98875 0,10.1672 -970.4726218,-21.48796 -970.4726218,-11.32083 0,10.16713 921.6340018,40.22967 609.9326518,40.22967 -311.70134,0 -609.9337199,-9.72802 -609.9337199,-9.72802"
       style="color:#000000;fill:none;stroke:#bababa;stroke-width:5;stroke-linecap:round;stroke-linejoin:round;stroke-miterlimit:4;stroke-opacity:1;stroke-dasharray:none;stroke-dashoffset:0;marker:none;visibility:visible;display:inline;overflow:visible;enable-background:accumulate" />
  </g>
  <WCB
     serialport="/dev/cu.usbmodemfa141"
     layer="0"
     node="0"
     lastpath="0"
     lastpathnc="0"
     totaldeltax="0"
     totaldeltay="0"
     id="WCB126812" />
</svg>
