<?xml version="1.0" encoding="UTF-8" standalone="no"?>
<!-- Created with Inkscape (http://www.inkscape.org/) -->

<svg
   xmlns:dc="http://purl.org/dc/elements/1.1/"
   xmlns:cc="http://creativecommons.org/ns#"
   xmlns:rdf="http://www.w3.org/1999/02/22-rdf-syntax-ns#"
   xmlns:svg="http://www.w3.org/2000/svg"
   xmlns="http://www.w3.org/2000/svg"
   xmlns:sodipodi="http://sodipodi.sourceforge.net/DTD/sodipodi-0.dtd"
   xmlns:inkscape="http://www.inkscape.org/namespaces/inkscape"
   width="990px"
   height="720px"
   id="svg3648"
   version="1.1"
   inkscape:version="0.48.1 r9760"
   sodipodi:docname="Rainbow.svg">
  <sodipodi:namedview
     inkscape:document-units="in"
     pagecolor="#ffffff"
     bordercolor="#666666"
     borderopacity="1.0"
     inkscape:pageopacity="0.0"
     inkscape:pageshadow="2"
     inkscape:zoom="1.1458333"
     inkscape:cx="541.25455"
     inkscape:cy="343.78201"
     inkscape:current-layer="layer0"
     id="namedview3652"
     showgrid="false"
     inkscape:window-width="1676"
     inkscape:window-height="1006"
     inkscape:window-x="0"
     inkscape:window-y="0"
     inkscape:window-maximized="1" />
  <defs
     id="defs3650" />
  <metadata
     id="metadata3654">
    <rdf:RDF>
      <cc:Work
         rdf:about="">
        <dc:format>image/svg+xml</dc:format>
        <dc:type
           rdf:resource="http://purl.org/dc/dcmitype/StillImage" />
        <dc:title></dc:title>
      </cc:Work>
    </rdf:RDF>
  </metadata>
  <g
     inkscape:label="4-Yellow"
     id="layer4"
     inkscape:groupmode="layer">
    <path
       transform="matrix(-1.0200392,0,0,-1.0200392,1399.4061,1371.9435)"
       sodipodi:open="true"
       sodipodi:end="3.1415927"
       sodipodi:start="0"
       d="m 1240.9091,829.09088 a 368.18182,368.18182 0 1 1 -736.36363,-2e-5"
       sodipodi:ry="368.18182"
       sodipodi:rx="368.18182"
       sodipodi:cy="829.09088"
       sodipodi:cx="872.72729"
       id="path4437"
       style="color:#000000;fill:none;stroke:#f1ff01;stroke-width:7.93303871;stroke-linecap:round;stroke-linejoin:bevel;stroke-miterlimit:4;stroke-opacity:1;stroke-dasharray:none;stroke-dashoffset:0;marker:none;visibility:visible;display:inline;overflow:visible;enable-background:accumulate"
       sodipodi:type="arc" />
  </g>
  <g
     inkscape:label="3-Orange"
     id="layer3"
     inkscape:groupmode="layer">
    <path
       sodipodi:type="arc"
       style="color:#000000;fill:none;stroke:#f99600;stroke-width:7.93303871;stroke-linecap:round;stroke-linejoin:bevel;stroke-miterlimit:4;stroke-opacity:1;stroke-dasharray:none;stroke-dashoffset:0;marker:none;visibility:visible;display:inline;overflow:visible;enable-background:accumulate"
       id="path4435"
       sodipodi:cx="872.72729"
       sodipodi:cy="829.09088"
       sodipodi:rx="368.18182"
       sodipodi:ry="368.18182"
       d="m 1240.9091,829.09088 a 368.18182,368.18182 0 1 1 -736.36363,-2e-5"
       sodipodi:start="0"
       sodipodi:end="3.1415927"
       sodipodi:open="true"
       transform="matrix(-1.0654199,0,0,-1.0654199,1439.0112,1409.3882)" />
  </g>
  <g
     inkscape:label="2-Red"
     id="layer2"
     inkscape:groupmode="layer">
    <path
       transform="matrix(-1.1147072,0,0,-1.1147072,1482.0256,1450.0564)"
       sodipodi:open="true"
       sodipodi:end="3.1415927"
       sodipodi:start="0"
       d="m 1240.9091,829.09088 a 368.18182,368.18182 0 1 1 -736.36363,-2e-5"
       sodipodi:ry="368.18182"
       sodipodi:rx="368.18182"
       sodipodi:cy="829.09088"
       sodipodi:cx="872.72729"
       id="path3665"
       style="color:#000000;fill:none;stroke:#f90000;stroke-width:7.93303871;stroke-linecap:round;stroke-linejoin:bevel;stroke-miterlimit:4;stroke-opacity:1;stroke-dasharray:none;stroke-dashoffset:0;marker:none;visibility:visible;display:inline;overflow:visible;enable-background:accumulate"
       sodipodi:type="arc" />
  </g>
  <g
     inkscape:label="5-Green"
     id="layer5"
     inkscape:groupmode="layer">
    <path
       sodipodi:type="arc"
       style="color:#000000;fill:none;stroke:#3c9a3c;stroke-width:7.93303871;stroke-linecap:round;stroke-linejoin:bevel;stroke-miterlimit:4;stroke-opacity:1;stroke-dasharray:none;stroke-dashoffset:0;marker:none;visibility:visible;display:inline;overflow:visible;enable-background:accumulate"
       id="path4439"
       sodipodi:cx="872.72729"
       sodipodi:cy="829.09088"
       sodipodi:rx="368.18182"
       sodipodi:ry="368.18182"
       d="m 1240.9091,829.09088 a 368.18182,368.18182 0 1 1 -736.36363,-2e-5"
       sodipodi:start="0"
       sodipodi:end="3.1415927"
       sodipodi:open="true"
       transform="matrix(-0.98121982,0,0,-0.98121982,1365.5275,1339.9127)" />
    <path
       id="path4558-1"
       style="fill:none;stroke:#218100;stroke-width:6.23157405999999980;stroke-linecap:butt;stroke-linejoin:miter;stroke-miterlimit:4;stroke-opacity:1;stroke-dasharray:none"
       d="M 959.58221,599.60151 C 839.89644,706.12028 580.53817,516.56466 454.78958,486.65103 c -86.52666,-20.58332 -174.58526,98.00562 -260.73015,129.4798 -29.63958,10.82921 -62.78317,3.11093 -92.18467,16.3366 -20.560433,9.24867 -57.465874,38.59321 -77.82446,63.66453 20.358586,2.69627 57.264027,-26.64827 77.82446,-35.89694 29.4015,-13.22567 62.54509,-5.50736 92.18467,-16.3366 86.14489,-31.47417 174.20349,-150.06313 260.73015,-129.4798 125.74859,29.91364 385.10686,219.46924 504.79263,112.95048"
       inkscape:connector-curvature="0"
       sodipodi:nodetypes="cssscsssc" />
    <path
       sodipodi:nodetypes="cssscsssc"
       inkscape:connector-curvature="0"
       d="m 959.58221,567.46645 c -119.68577,76.21357 -379.04404,-59.41239 -504.79263,-80.81542 -86.52666,-14.72725 -174.58526,70.12246 -260.73015,92.64206 -29.63958,7.74823 -62.78317,2.22585 -92.18467,11.68874 -20.560433,6.61737 -57.465874,27.61322 -77.82446,45.55161 20.358586,1.92916 57.264027,-19.06669 77.82446,-25.68406 29.4015,-9.46289 62.54509,-3.94048 92.18467,-11.68874 86.14489,-22.51959 174.20349,-107.36931 260.73015,-92.64206 125.74859,21.40304 385.10686,157.02899 504.79263,80.81542"
       style="fill:none;stroke:#218100;stroke-width:5.2710948;stroke-linecap:butt;stroke-linejoin:miter;stroke-miterlimit:4;stroke-opacity:1;stroke-dasharray:none"
       id="path4596" />
  </g>
  <g
     inkscape:label="6-Blue"
     id="layer6"
     inkscape:groupmode="layer">
    <path
       transform="matrix(-0.95196716,0,0,-0.95196716,1339.9979,1315.7756)"
       sodipodi:open="true"
       sodipodi:end="3.1415927"
       sodipodi:start="0"
       d="m 1240.9091,829.09088 a 368.18182,368.18182 0 1 1 -736.36363,-2e-5"
       sodipodi:ry="368.18182"
       sodipodi:rx="368.18182"
       sodipodi:cy="829.09088"
       sodipodi:cx="872.72729"
       id="path4441"
       style="color:#000000;fill:none;stroke:#0200d6;stroke-width:7.93303871;stroke-linecap:round;stroke-linejoin:bevel;stroke-miterlimit:4;stroke-opacity:1;stroke-dasharray:none;stroke-dashoffset:0;marker:none;visibility:visible;display:inline;overflow:visible;enable-background:accumulate"
       sodipodi:type="arc" />
  </g>
  <g
     inkscape:label="7-Violet"
     id="layer7"
     inkscape:groupmode="layer">
    <path
       sodipodi:type="arc"
       style="color:#000000;fill:none;stroke:#9d00d6;stroke-width:7.93303871;stroke-linecap:round;stroke-linejoin:bevel;stroke-miterlimit:4;stroke-opacity:1;stroke-dasharray:none;stroke-dashoffset:0;marker:none;visibility:visible;display:inline;overflow:visible;enable-background:accumulate"
       id="path4443"
       sodipodi:cx="872.72729"
       sodipodi:cy="829.09088"
       sodipodi:rx="368.18182"
       sodipodi:ry="368.18182"
       d="m 1240.9091,829.09088 a 368.18182,368.18182 0 1 1 -736.36363,-2e-5"
       sodipodi:start="0"
       sodipodi:end="3.1415927"
       sodipodi:open="true"
       transform="matrix(-0.91397067,0,0,-0.91397067,1306.8373,1284.4238)" />
  </g>
  <g
     inkscape:label="8-Brown"
     id="layer8"
     inkscape:groupmode="layer">
    <path
       sodipodi:nodetypes="cssscsssc"
       inkscape:connector-curvature="0"
       d="m 959.58221,522.36892 c -119.68577,46.03299 -379.04404,-35.88507 -504.79263,-48.8125 -86.52666,-8.89526 -174.58526,42.35396 -260.73015,55.95579 -29.63958,4.67994 -62.78317,1.34442 -92.18467,7.06 -20.560433,3.99689 -57.465874,16.67838 -77.82446,27.51317 20.358586,1.16521 57.264027,-11.51628 77.82446,-15.51317 29.4015,-5.71558 62.54509,-2.38006 92.18467,-7.06 86.14489,-13.60183 174.20349,-64.85105 260.73015,-55.95579 125.74859,12.92743 385.10686,94.84549 504.79263,48.8125"
       style="fill:none;stroke:#814400;stroke-width:9;stroke-linecap:butt;stroke-linejoin:miter;stroke-miterlimit:4;stroke-opacity:1;stroke-dasharray:none"
       id="path4555" />
  </g>
  <g
     inkscape:label="1-Black"
     id="layer1"
     inkscape:groupmode="layer">
    <path
       sodipodi:nodetypes="cssscsssc"
       inkscape:connector-curvature="0"
       d="M 916.91753,628.45782 C 810.25676,719.23599 563.46457,556.48709 451.40079,530.99388 374.2905,513.45223 311.47403,615.72144 234.70398,642.54458 c -26.41401,9.22894 -55.95069,2.65122 -82.15252,13.92248 -18.32292,7.88196 -51.21208,32.89016 -69.355104,54.25662 18.143024,2.29783 51.032184,-22.71037 69.355104,-30.59234 26.20183,-11.27126 55.73851,-4.69352 82.15252,-13.92248 C 311.47403,639.38573 406.813,531.09382 483.92329,548.63549 595.98707,574.1287 810.25676,742.90027 916.91753,652.12212"
       style="fill:none;stroke:#000000;stroke-width:5.43070793;stroke-linecap:butt;stroke-linejoin:miter;stroke-miterlimit:4;stroke-opacity:1;stroke-dasharray:none"
       id="path4598" />
  </g>
  <g
     inkscape:label="0-Water Wash"
     id="layer0"
     inkscape:groupmode="layer"
     style="display:inline">
    <path
       id="path4558"
       style="fill:none;stroke:#73f2ff;stroke-width:2.25;stroke-linecap:butt;stroke-linejoin:miter;stroke-miterlimit:4;stroke-opacity:1;stroke-dasharray:none"
       d="m 959.58221,548.45673 c -119.68577,55.54638 -379.04404,-43.30124 -504.79263,-58.90031 -86.52666,-10.73359 -174.58526,51.10702 -260.73015,67.51987 -29.63958,5.64711 -62.78317,1.62226 -92.18467,8.51905 -20.560433,4.8229 -57.465874,20.12521 -77.82446,33.19916 20.358586,1.40602 57.264027,-13.89628 77.82446,-18.71919 29.4015,-6.89679 62.54509,-2.87193 92.18467,-8.51905 86.14489,-16.41284 174.20349,-78.25346 260.73015,-67.51987 125.74859,15.59908 385.10686,114.44669 504.79263,58.90032"
       inkscape:connector-curvature="0"
       sodipodi:nodetypes="cssscsssc" />
    <path
       sodipodi:type="arc"
       style="color:#000000;fill:none;stroke:#73f2ff;stroke-width:2.11184335;stroke-linecap:round;stroke-linejoin:bevel;stroke-miterlimit:4;stroke-opacity:1;stroke-dasharray:none;stroke-dashoffset:0;marker:none;visibility:visible;display:inline;overflow:visible;enable-background:accumulate"
       id="path4435-0"
       sodipodi:cx="872.72729"
       sodipodi:cy="829.09088"
       sodipodi:rx="368.18182"
       sodipodi:ry="368.18182"
       d="m 1240.9091,829.09088 a 368.18182,368.18182 0 1 1 -736.36363,-2e-5"
       sodipodi:start="0"
       sodipodi:end="3.1415927"
       sodipodi:open="true"
       transform="matrix(-1.08194,0,0,-1.08194,1453.4287,1425.5584)" />
    <path
       sodipodi:type="arc"
       style="color:#000000;fill:none;stroke:#73f2ff;stroke-width:2.29306412;stroke-linecap:round;stroke-linejoin:bevel;stroke-miterlimit:4;stroke-opacity:1;stroke-dasharray:none;stroke-dashoffset:0;marker:none;visibility:visible;display:inline;overflow:visible;enable-background:accumulate"
       id="path4439-2"
       sodipodi:cx="872.72729"
       sodipodi:cy="829.09088"
       sodipodi:rx="368.18182"
       sodipodi:ry="368.18182"
       d="m 1240.9091,829.09088 a 368.18182,368.18182 0 1 1 -736.36363,-2e-5"
       sodipodi:start="0"
       sodipodi:end="3.1415927"
       sodipodi:open="true"
       transform="matrix(-0.99643432,0,0,-0.99643432,1378.8056,1355.0056)" />
    <path
       sodipodi:type="arc"
       style="color:#000000;fill:none;stroke:#73f2ff;stroke-width:2.46178579;stroke-linecap:round;stroke-linejoin:bevel;stroke-miterlimit:4;stroke-opacity:1;stroke-dasharray:none;stroke-dashoffset:0;marker:none;visibility:visible;display:inline;overflow:visible;enable-background:accumulate"
       id="path4443-7"
       sodipodi:cx="872.72729"
       sodipodi:cy="829.09088"
       sodipodi:rx="368.18182"
       sodipodi:ry="368.18182"
       d="m 1240.9091,829.09088 a 368.18182,368.18182 0 1 1 -736.36363,-2e-5"
       sodipodi:start="0"
       sodipodi:end="3.1415927"
       sodipodi:open="true"
       transform="matrix(-0.92814243,0,0,-0.92814243,1319.2054,1298.6563)" />
  </g>
</svg>
