<?xml version="1.0" encoding="UTF-8" standalone="no"?>
<!-- Created with Inkscape (http://www.inkscape.org/) -->

<svg
   xmlns:dc="http://purl.org/dc/elements/1.1/"
   xmlns:cc="http://creativecommons.org/ns#"
   xmlns:rdf="http://www.w3.org/1999/02/22-rdf-syntax-ns#"
   xmlns:svg="http://www.w3.org/2000/svg"
   xmlns="http://www.w3.org/2000/svg"
   xmlns:sodipodi="http://sodipodi.sourceforge.net/DTD/sodipodi-0.dtd"
   xmlns:inkscape="http://www.inkscape.org/namespaces/inkscape"
   width="990"
   height="720"
   id="svg2"
   version="1.1"
   inkscape:version="0.48.1 r9760"
   sodipodi:docname="ThankYou_2.svg">
  <sodipodi:namedview
     id="base"
     pagecolor="#ffffff"
     bordercolor="#666666"
     borderopacity="1.0"
     inkscape:pageopacity="0.0"
     inkscape:pageshadow="2"
     inkscape:zoom="0.81022652"
     inkscape:cx="665.79899"
     inkscape:cy="309.72735"
     inkscape:document-units="px"
     inkscape:current-layer="layer1"
     showgrid="false"
     units="in"
     inkscape:window-width="1676"
     inkscape:window-height="1006"
     inkscape:window-x="0"
     inkscape:window-y="0"
     inkscape:window-maximized="1" />
  <defs
     id="defs4" />
  <metadata
     id="metadata7">
    <rdf:RDF>
      <cc:Work
         rdf:about="">
        <dc:format>image/svg+xml</dc:format>
        <dc:type
           rdf:resource="http://purl.org/dc/dcmitype/StillImage" />
        <dc:title />
      </cc:Work>
    </rdf:RDF>
  </metadata>
  <g
     transform="translate(0,-332.35975)"
     id="layer1"
     inkscape:groupmode="layer"
     inkscape:label="1-black">
    <path
       id="path6846"
       d="M 196.67162,361.78708 C 176.08013,428.97019 162.05678,500.13359 124.94813,560.46224 106.24297,584.84712 71.095597,605.19872 42.441611,584.70251 25.68621,575.72242 18.675729,548.92666 26.08994,532.39444 39.148465,513.59891 65.692647,525.6693 81.28821,534.88826"
       style="fill:none;stroke:#000000;stroke-width:10;stroke-miterlimit:4;stroke-dasharray:none" />
    <path
       id="path6844"
       d="m 127.44158,419.48746 c -24.63524,3.8919 -51.082266,-7.96473 -57.192312,-33.62128 2.525942,-23.65513 24.147814,-30.23607 44.491982,-35.23179 40.77981,-7.25594 79.36352,19.3719 119.6994,9.57545 6.64089,-3.32095 13.28179,-6.64189 19.92268,-9.96284"
       style="fill:none;stroke:#000000;stroke-width:10;stroke-miterlimit:4;stroke-dasharray:none" />
    <path
       id="path6842"
       d="m 231.28665,534.88826 c 30.51044,-48.86346 68.27957,-96.36522 80.76841,-153.54783 6.9698,-25.4306 -16.43869,-38.29998 -34.61504,-19.55335 -27.51381,54.45717 -29.91271,117.54755 -39.42619,176.97607 -2.24239,17.94182 -4.48477,35.88366 -6.72718,53.82551 10.44297,-34.59606 25.35796,-71.64083 52.46134,-95.47511 16.03434,-13.2965 54.38813,-14.24492 51.38374,13.73483 2.93793,26.44363 -27.96893,59.05716 -1.56456,80.17546 27.97559,6.22178 50.71532,-22.59265 63.36607,-44.99108 2.47618,-3.71484 4.95235,-7.42967 7.42854,-11.1445"
       style="fill:none;stroke:#000000;stroke-width:10;stroke-miterlimit:4;stroke-dasharray:none" />
    <path
       id="path6840"
       d="m 508.20688,523.34818 c -6.06939,-25.02059 -31.07657,-38.63582 -55.77259,-34.62023 -37.49341,7.68525 -63.65748,55.36646 -38.61055,88.16721 19.61423,24.63052 69.33894,21.02554 79.19141,-11.61888 11.005,-24.64819 17.49818,-51.16555 26.73007,-76.54833 -4.91703,30.98497 -17.68506,64.61116 -9.04492,94.81444 15.85242,21.66441 45.15607,-1.52866 57.1543,-16.96836 7.04022,-10.56192 14.08043,-21.12385 21.12066,-31.68577 12.35512,-18.81889 22.58463,-40.04594 46.15337,-46.16031 24.7182,16.43909 1.79371,46.57547 0,69.24046 -3.84612,11.54009 -7.69223,23.08015 -11.53835,34.62025"
       style="fill:none;stroke:#000000;stroke-width:10;stroke-miterlimit:4;stroke-dasharray:none" />
    <path
       id="path6838"
       d="m 635.12863,557.96841 c 15.24147,-27.3531 28.85334,-66.87499 64.74423,-69.24046 25.27839,-6.90028 33.78051,22.41423 25.33231,41.31186 -7.12809,19.25377 -20.81949,54.02841 5.75645,62.54885 33.08203,-1.02291 49.67012,-33.41528 65.7038,-57.7004"
       style="fill:none;stroke:#000000;stroke-width:10;stroke-miterlimit:4;stroke-dasharray:none" />
    <path
       id="path6836"
       d="m 842.81879,534.88826 c 23.97884,4.59556 29.05062,25.5916 34.61503,46.1603 15.51516,25.15544 46.98592,2.38684 59.64772,-14.47453 7.04023,-10.56192 14.08044,-21.12385 21.12067,-31.68577"
       style="fill:none;stroke:#000000;stroke-width:10;stroke-miterlimit:4;stroke-dasharray:none" />
    <path
       id="path3046"
       d="m 796.66542,534.88826 c 30.51044,-48.86346 68.27957,-96.36522 80.7684,-153.54783 6.96981,-25.4306 -16.43869,-38.29998 -34.61503,-19.55335 -27.51382,54.45717 -29.91273,117.54755 -39.4262,176.97607 -2.24241,17.94182 -4.48478,35.88366 -6.72717,53.82551 10.44294,-34.59606 25.35794,-71.64083 52.46132,-95.47511 16.03435,-13.2965 54.38814,-14.24492 51.38376,13.73483 3.44146,23.33355 -30.47791,25.53705 -47.76052,24.03988 -3.31039,0 -6.62081,0 -9.93119,0"
       style="fill:none;stroke:#000000;stroke-width:10;stroke-miterlimit:4;stroke-dasharray:none" />
    <path
       id="path6832"
       d="m 580.6389,662.0348 c -37.80779,124.42315 -66.35816,253.30603 -126.92175,369.2825 -19.22659,20.0016 -41.79824,4.3375 -34.61504,-21.1607 13.99002,-67.97905 73.24355,-113.51476 131.05872,-145.19098 10.1594,-6.09652 71.24619,-50.39443 81.40559,-56.49097"
       style="fill:none;stroke:#000000;stroke-width:10;stroke-miterlimit:4;stroke-dasharray:none" />
    <path
       id="path6830"
       d="m 396.02542,742.81535 c -21.07408,-5.49477 -39.69223,-27.2432 -33.03808,-49.31476 6.00491,-25.21041 38.85007,-41.59582 60.34634,-23.57965 27.26857,16.67859 19.5411,54.58832 11.14788,80.60766 -8.65122,40.40577 -32.08825,80.55512 -25.34085,122.38206 6.6912,20.04546 21.44181,38.1063 44.57644,31.46581 44.69802,-18.67646 70.55983,-65.44738 86.34396,-109.04969 5.83364,-17.50379 11.66743,-35.00762 17.5011,-52.51143"
       style="fill:none;stroke:#000000;stroke-width:10;stroke-miterlimit:4;stroke-dasharray:none" />
    <path
       id="path6828"
       d="m 672.94564,800.51575 c -42.93303,-8.90208 -86.98571,42.58827 -62.92204,81.85831 11.46044,25.41905 49.22512,28.59077 70.30762,12.53902 28.90285,-16.45093 37.89907,-61.51456 12.53711,-84.43449 -20.04233,-20.60654 -38.10056,2.36248 -31.46103,24.6574 6.06941,25.02057 31.07655,38.63582 55.77254,34.62023 18.40399,1.86438 36.19231,-9.77056 48.07252,-23.08015 5.77334,-9.88249 29.44818,-62.98916 18.61632,-32.77709 -6.14336,26.5124 -25.9195,54.73015 -16.12287,81.43121 18.55078,21.59528 52.53581,3.2524 67.66544,-14.96291 14.47441,-12.41363 22.60697,-30.02726 33.68619,-45.23129"
       style="fill:none;stroke:#000000;stroke-width:10;stroke-miterlimit:4;stroke-dasharray:none" />
    <path
       id="path6735"
       d="m 880.63578,800.51575 c -7.89475,30.74067 -26.15775,59.79855 -23.07666,92.32062 15.51513,25.15544 46.98586,2.38683 59.64767,-14.47454 7.04024,-10.56191 14.08047,-21.12385 21.12072,-31.68576"
       style="fill:none;stroke:#000000;stroke-width:10;stroke-miterlimit:4;stroke-dasharray:none" />
  </g>
</svg>
