<?xml version="1.0" encoding="UTF-8" standalone="no"?>
<!-- Created with Inkscape (http://www.inkscape.org/) -->

<svg
   xmlns:dc="http://purl.org/dc/elements/1.1/"
   xmlns:cc="http://creativecommons.org/ns#"
   xmlns:rdf="http://www.w3.org/1999/02/22-rdf-syntax-ns#"
   xmlns:svg="http://www.w3.org/2000/svg"
   xmlns="http://www.w3.org/2000/svg"
   xmlns:sodipodi="http://sodipodi.sourceforge.net/DTD/sodipodi-0.dtd"
   xmlns:inkscape="http://www.inkscape.org/namespaces/inkscape"
   width="990"
   height="720"
   sodipodi:docname="Tree_2.svg"
   id="svg17408"
   version="1.1"
   inkscape:version="0.48.1 r9760"
   style="display:inline">
  <sodipodi:namedview
     id="base"
     pagecolor="#ffffff"
     bordercolor="#666666"
     borderopacity="1.0"
     inkscape:pageopacity="0.0"
     inkscape:pageshadow="2"
     inkscape:zoom="1.1458333"
     inkscape:cx="505.47274"
     inkscape:cy="361.71483"
     inkscape:document-units="in"
     inkscape:current-layer="layer0"
     inkscape:window-width="1676"
     inkscape:window-height="1006"
     showgrid="false"
     units="in"
     inkscape:window-x="0"
     inkscape:window-y="0"
     inkscape:window-maximized="1" />
  <defs
     id="defs6412">
    <inkscape:path-effect
       effect="rough_hatches"
       id="path-effect3379"
       is_visible="true"
       direction="494.20278,594.03089 , 45.286954,14.784243"
       dist_rdm="0;1"
       growth="0"
       do_bend="true"
       bender="494.20278,598.73653 , 4.9092315,0"
       bottom_edge_variation="0;1"
       top_edge_variation="0;1"
       bottom_tgt_variation="0;1"
       top_tgt_variation="0;1"
       scale_bf="2"
       scale_bb="2"
       scale_tf="2"
       scale_tb="2"
       top_smth_variation="0;1"
       bottom_smth_variation="0;1"
       fat_output="false"
       stroke_width_top="1"
       stroke_width_bottom="1"
       front_thickness="1"
       back_thickness="0.25" />
    <inkscape:path-effect
       back_thickness="0.25"
       front_thickness="1"
       stroke_width_bottom="1"
       stroke_width_top="1"
       fat_output="false"
       bottom_smth_variation="0;1"
       top_smth_variation="0;1"
       scale_tb="2"
       scale_tf="2"
       scale_bb="2"
       scale_bf="2"
       top_tgt_variation="0;1"
       bottom_tgt_variation="0;1"
       top_edge_variation="0;1"
       bottom_edge_variation="0;1"
       bender="102.89248,103.21823 , 5,0"
       do_bend="true"
       growth="0"
       dist_rdm="0;1"
       direction="102.89248,98.218235 , 20.081465,18.327273"
       is_visible="true"
       id="path-effect18880"
       effect="rough_hatches" />
    <inkscape:path-effect
       effect="rough_hatches"
       id="path-effect18774"
       is_visible="true"
       direction="98.90625,98.25 , 22.583807,6.109091"
       dist_rdm="0;1"
       growth="0"
       do_bend="true"
       bender="98.90625,103.25 , 5,0"
       bottom_edge_variation="0;1"
       top_edge_variation="0;1"
       bottom_tgt_variation="0;1"
       top_tgt_variation="0;1"
       scale_bf="2"
       scale_bb="2"
       scale_tf="2"
       scale_tb="2"
       top_smth_variation="0;1"
       bottom_smth_variation="0;1"
       fat_output="false"
       stroke_width_top="1"
       stroke_width_bottom="1"
       front_thickness="1"
       back_thickness="0.25" />
    <inkscape:path-effect
       back_thickness="0.25"
       front_thickness="1"
       stroke_width_bottom="1"
       stroke_width_top="1"
       fat_output="false"
       bottom_smth_variation="0;1"
       top_smth_variation="0;1"
       scale_tb="2"
       scale_tf="2"
       scale_bb="2"
       scale_bf="2"
       top_tgt_variation="0;1"
       bottom_tgt_variation="0;1"
       top_edge_variation="0;1"
       bottom_edge_variation="0;1"
       bender="671.42188,92.53125 , 5,0"
       do_bend="true"
       growth="0"
       dist_rdm="0;1"
       direction="671.42188,87.53125 , 24.811508,6.1090909"
       is_visible="true"
       id="path-effect18708"
       effect="rough_hatches" />
    <inkscape:path-effect
       effect="rough_hatches"
       id="path-effect18646"
       is_visible="true"
       direction="811.76562,331.01562 , 29.793324,1.7454545"
       dist_rdm="0;1"
       growth="0"
       do_bend="true"
       bender="811.76562,336.01562 , 5,0"
       bottom_edge_variation="0;1"
       top_edge_variation="0;1"
       bottom_tgt_variation="0;1"
       top_tgt_variation="0;1"
       scale_bf="2"
       scale_bb="2"
       scale_tf="2"
       scale_tb="2"
       top_smth_variation="0;1"
       bottom_smth_variation="0;1"
       fat_output="false"
       stroke_width_top="1"
       stroke_width_bottom="1"
       front_thickness="1"
       back_thickness="0.25" />
    <inkscape:path-effect
       effect="rough_hatches"
       id="path-effect3379-8"
       is_visible="true"
       direction="494.20278,594.03089 , 45.286954,14.784243"
       dist_rdm="0;1"
       growth="0"
       do_bend="true"
       bender="494.20278,598.73653 , 4.9092315,0"
       bottom_edge_variation="0;1"
       top_edge_variation="0;1"
       bottom_tgt_variation="0;1"
       top_tgt_variation="0;1"
       scale_bf="2"
       scale_bb="2"
       scale_tf="2"
       scale_tb="2"
       top_smth_variation="0;1"
       bottom_smth_variation="0;1"
       fat_output="false"
       stroke_width_top="1"
       stroke_width_bottom="1"
       front_thickness="1"
       back_thickness="0.25" />
  </defs>
  <metadata
     id="metadata6415">
    <rdf:RDF>
      <cc:Work
         rdf:about="">
        <dc:format>image/svg+xml</dc:format>
        <dc:type
           rdf:resource="http://purl.org/dc/dcmitype/StillImage" />
        <dc:title></dc:title>
      </cc:Work>
    </rdf:RDF>
  </metadata>
  <g
     inkscape:label="4-Yellow"
     id="layer4"
     inkscape:groupmode="layer"
     style="display:inline">
    <path
       inkscape:connector-curvature="0"
       style="fill:none;stroke:#ffff00;stroke-width:4.5;stroke-miterlimit:4;stroke-opacity:1;stroke-dasharray:none"
       d="m 5.375,3.875 0,182.53125 c 18.803171,10.34489 40.41888,16.21875 63.40625,16.21875 72.73946,0 131.65625,-58.91679 131.65625,-131.65625 0,-24.506133 -6.69329,-47.449515 -18.34375,-67.09375 L 5.375,3.875 z"
       id="path18842" />
    <path
       inkscape:original-d="m 180.84375,5.375 c -57.98958,0 -115.979167,0 -173.96875,0 0,60.010417 0,120.02083 0,180.03125 7.860061,4.15162 16.077379,7.66841 24.603524,10.20306 8.968179,2.64966 18.207594,4.42435 27.538286,5.10262 8.121614,0.59779 16.301495,0.50082 24.388794,-0.49115 5.585474,-0.60509 11.119413,-1.65163 16.577204,-2.97577 5.470542,-1.38748 10.880492,-3.02974 16.140562,-5.08314 4.09278,-1.59299 8.09913,-3.43746 11.95872,-5.51005 4.29068,-2.31296 8.48729,-4.83465 12.53863,-7.55819 5.12937,-3.36675 9.93408,-7.18985 14.78553,-10.93738 0.95582,-0.71854 1.92757,-1.75707 2.8675,-2.6238 3.59144,-3.42483 7.01597,-7.02505 10.2575,-10.78245 0.19927,-0.5733 0.71482,-1.03459 0.96908,-1.54654 1.01397,-1.15967 1.76542,-2.34254 2.64436,-3.61837 5.42778,-7.19084 10.10819,-14.93767 14.20139,-22.95048 3.16869,-6.57306 5.58716,-13.48449 7.62809,-20.48193 1.63152,-5.88778 2.89858,-11.881836 3.78958,-17.925141 0.49361,-3.98025 0.85574,-7.974802 1.01953,-11.982865 0.35817,-7.864417 -0.0481,-15.763162 -1.15675,-23.556294 -0.67737,-4.738932 -1.63551,-9.43821 -2.86575,-14.065595 -1.91809,-7.699273 -4.65876,-15.181851 -7.96785,-22.388322 -1.6454,-3.610458 -3.79994,-6.9662756 -5.51958,-10.5367316 C 181.2536,5.4867318 180.9915,5.2861317 180.84375,5.375 z"
       inkscape:path-effect="#path-effect18880"
       inkscape:connector-curvature="0"
       id="path18846"
       d="m 183.2861,132.37036 c 0,0 -9.05048,10.83826 -20.11699,22.78651 -11.06651,11.94825 -24.16033,25.00648 -31.98752,29.44642 -7.82719,4.43993 6.71057,-11.09795 23.55334,-29.28185 8.42138,-9.09194 17.41801,-18.84539 24.53969,-27.09386 7.12169,-8.24847 12.37184,-14.99196 13.3407,-18.064 0.96887,-3.07204 -3.23599,0.52718 -10.27145,7.70185 -7.03545,7.17466 -16.91306,17.92475 -27.2902,29.15445 -10.37714,11.22971 -21.25536,22.93902 -30.19422,32.0321 -8.93887,9.09309 -15.92992,15.56996 -18.48672,16.33477 -2.55679,0.76482 1.86627,-4.93128 9.91916,-14.05525 8.05289,-9.12396 19.72475,-21.67579 31.68743,-34.62243 11.96267,-12.94664 24.21491,-26.28809 33.54122,-36.9913 9.3263,-10.703212 15.73503,-18.768181 16.07006,-21.161858 0.33503,-2.393677 -5.72141,3.270318 -15.17818,13.132418 -9.45676,9.8621 -22.33077,23.9223 -35.61,38.32104 -13.27923,14.39873 -26.96505,29.13601 -37.88747,40.35225 -10.922413,11.21624 -19.06723,18.91145 -21.20266,19.22606 -2.135431,0.31461 3.869709,-7.059 14.01298,-18.42391 10.14328,-11.36491 24.40928,-26.72112 38.83806,-42.37171 14.42878,-15.6506 29.01921,-31.59557 39.97789,-44.138016 10.95868,-12.542443 18.29874,-21.682352 18.30337,-23.72281 0.005,-2.040458 -7.31945,5.058173 -18.49967,16.856439 -11.18022,11.798267 -26.23836,28.296167 -41.66215,45.054257 -15.42378,16.75808 -31.21442,33.77634 -43.647473,46.61534 -12.433058,12.83899 -21.489169,21.49871 -23.368019,21.53971 -1.878849,0.041 5.296738,-8.57485 17.015031,-21.63448 11.718291,-13.05963 27.959741,-30.56304 44.273651,-48.29718 16.3139,-17.73415 32.69925,-35.69902 44.92058,-49.68157 12.22133,-13.98255 20.29617,-23.982776 20.08053,-25.787625 -0.21563,-1.804849 -8.49376,6.388386 -20.99129,19.684217 -12.49752,13.295831 -29.24053,31.694258 -46.32941,50.299798 -17.08887,18.60553 -34.524671,37.41818 -48.147701,51.54245 -13.623029,14.12427 -23.409326,23.56016 -25.110908,23.41218 -1.701582,-0.14797 6.381839,-9.73057 19.331667,-24.12273 12.949828,-14.39216 30.742842,-33.5939 48.537912,-52.98015 17.79507,-19.38624 35.59132,-38.957007 48.80599,-54.087233 13.21466,-15.130225 21.86919,-25.819912 21.48503,-27.444008 -0.38416,-1.624096 -9.41152,7.440126 -22.94787,21.931212 -13.53635,14.491087 -31.61151,34.409039 -50.0197,54.492399 -18.4082,20.08337 -37.150351,40.33215 -51.718744,55.48489 -14.568394,15.15273 -24.935034,25.20943 -26.493407,24.90864 -1.558373,-0.3008 7.250536,-10.66022 21.183021,-26.12355 13.932484,-15.46334 32.962139,-36.03059 51.93722,-56.74704 18.97508,-20.716444 37.89481,-41.582088 51.90322,-57.642214 14.00842,-16.060126 23.13037,-27.314734 22.62502,-28.809108 -0.50535,-1.494373 -10.12226,8.265195 -24.48402,23.718908 -14.36176,15.453713 -33.50142,36.601572 -52.96777,57.883784 -19.46635,21.2822 -39.26016,42.69876 -54.591938,58.68987 -15.331779,15.99111 -26.170029,26.55677 -27.617348,26.13719 -1.447319,-0.41958 7.940689,-11.40396 22.657547,-27.73063 14.716859,-16.32666 34.733437,-37.99561 54.647769,-59.7843 19.91433,-21.788698 39.72577,-43.697143 54.36023,-60.50281 14.63446,-16.805668 24.11977,-28.508557 23.50595,-29.886139 -0.61381,-1.377583 -10.70284,8.946941 -25.71906,25.175349 -15.01622,16.228408 -34.99535,38.3607 -55.29351,60.59866 -20.29816,22.23795 -40.915976,44.58157 -56.840816,61.23263 -15.92484,16.65106 -27.122241,27.60956 -28.464511,27.07728 -1.342271,-0.53228 8.516473,-12.03021 23.854636,-29.04981 C 60.392442,145.93626 81.178639,123.395 101.8073,100.77607 122.43597,78.157136 142.90666,55.46053 157.96855,38.130242 173.03043,20.799954 182.71402,8.835984 181.89775,7.6823226 181.08147,6.5286613 170.59022,17.338324 155.07847,34.162937 139.56673,50.98755 118.99713,73.827113 98.130699,96.733252 77.264273,119.63939 56.100609,142.6121 39.790563,159.70302 23.480516,176.79393 12.060619,188.00305 10.80068,187.38199 9.5407408,186.76093 19.56118,175.07497 35.025175,157.89537 50.48917,140.71576 71.364763,118.04252 91.940725,95.44691 112.51669,72.8513 132.79347,50.333323 147.42172,33.464248 162.04997,16.595173 171.06256,5.375 169.22217,5.375 c -1.84039,0 -12.62851,11.145963 -27.93073,27.741436 C 125.98922,49.71191 106.14048,71.756895 86.301564,93.554938 66.462645,115.35298 46.635011,136.90409 31.729772,152.5118 16.824532,168.11951 6.8770374,177.78382 6.8770374,175.8083 c 0,-1.97553 9.9341056,-13.61537 24.5763386,-29.96391 C 46.095609,129.49586 65.421606,108.43864 84.329345,87.628359 103.23708,66.818078 121.72784,46.254739 134.9967,30.893969 148.26556,15.533199 156.33944,5.375 154.49906,5.375 c -1.84039,0 -11.75565,10.158203 -25.72254,25.271487 C 114.80964,45.759771 96.764211,65.828136 78.766168,85.648459 60.768125,105.46878 42.818816,125.04106 29.338645,139.16218 15.858474,153.2833 6.8770556,161.95325 6.8770556,159.96892 c 0,-1.98434 8.9692194,-12.63862 22.1893144,-27.50386 C 42.286464,117.59981 59.737829,98.523616 76.805668,79.695459 93.873507,60.867303 110.55897,42.287188 122.4892,28.414112 134.41943,14.541037 141.61633,5.375 139.77594,5.375 c -1.84039,0 -10.87857,9.16604 -23.50609,22.790522 -12.62751,13.624482 -28.866266,31.707405 -45.023426,49.541171 -16.15716,17.833766 -32.2315,35.418377 -44.290638,48.046227 -12.059138,12.62785 -20.0787118,20.29895 -20.0787118,18.30569 0,-1.99326 8.0085808,-11.65761 19.8106118,-25.03294 C 38.489717,105.65035 54.069854,88.564054 69.2978,71.726917 84.525746,54.889781 99.402531,38.301801 109.99005,25.923106 120.57757,13.544411 126.89322,5.375 125.05283,5.375 c -1.84039,0 -9.99723,8.169415 -21.28129,20.298393 C 92.487484,37.802371 78.058812,53.890912 63.742541,69.729166 49.426271,85.567419 35.223502,101.15538 24.581306,112.28321 13.939111,123.41103 6.877093,130.07872 6.877093,128.07641 c 0,-2.0023 7.052248,-10.67229 17.440346,-22.55098 C 34.705537,93.646737 48.417896,78.559349 61.805956,63.722248 75.194016,48.885148 88.258679,34.298336 97.499353,23.420799 106.74003,12.543262 112.17011,5.375 110.32972,5.375 c -1.84039,0 -9.11157,7.168266 -19.048023,17.794947 C 81.345241,33.796629 68.730112,47.881726 56.254737,61.715388 43.779363,75.549051 31.444719,89.131279 22.21532,98.752222 12.985921,108.37316 6.8771123,114.03282 6.8771123,112.02135 c 0,-2.01148 6.1002787,-9.68262 15.0786307,-20.057864 C 30.934095,81.58824 42.782176,68.508881 54.330356,55.680957 65.878536,42.853033 77.127592,30.276544 85.017232,20.907036 92.906873,11.537527 97.446995,5.375 95.606605,5.375 93.766216,5.375 87.385094,11.537531 78.80044,20.65503 70.215786,29.772528 59.417704,41.844994 48.783233,53.664863 38.148763,65.484732 27.678749,77.052003 19.857944,85.159114 12.037139,93.266225 6.8771318,97.913174 6.8771318,95.892399 c 0,-2.020776 5.1527332,-8.688501 12.7255852,-17.553403 7.572851,-8.864901 17.5602,-19.926979 27.268508,-30.73646 C 66.287841,25.983574 84.564271,5.375 80.883493,5.375 c -1.840389,0 -7.32701,5.152148 -14.555604,12.753481 C 59.099295,25.729815 50.121816,35.780335 41.328255,45.577079 23.741135,65.170567 6.8771518,83.748953 6.8771518,79.688544 6.8771518,75.628135 23.691908,57.049749 39.428794,39.486465 55.16568,21.923182 69.841159,5.375 66.16038,5.375 62.479602,5.375 47.79532,21.923198 33.890035,37.451514 19.984751,52.979829 6.8771721,67.488261 6.8771721,63.408728 6.8771721,59.329195 19.946127,44.820763 32.003297,31.332214 44.060468,17.843666 55.118046,5.375 51.437268,5.375 47.75649,5.375 36.692243,17.843683 26.468809,29.287633 16.245376,40.731584 6.8771928,51.150802 6.8771928,47.051873 c 0,-4.09893 9.3403132,-14.518148 17.7177842,-23.912634 C 32.972447,13.744753 40.394933,5.375 36.714155,5.375 33.033377,5.375 25.606388,13.744771 19.064821,21.084891 12.523254,28.425011 6.8772139,34.735479 6.8772139,30.616874 6.8772139,26.498268 12.506294,20.1878 17.20408,14.906983 21.901866,9.6261657 25.671821,5.375 21.991043,5.375 c -7.361557,0 -15.1138076,17.004735 -15.1138076,8.7276 0,-8.2771354 4.0714726,-8.7276 4.0714726,-8.7276"
       style="fill:none;stroke:#ffff00;stroke-width:4.5;stroke-miterlimit:4;stroke-opacity:1;stroke-dasharray:none" />
    <path
       sodipodi:nodetypes="cc"
       style="fill:none;stroke:#f3ff0a;stroke-width:5;stroke-opacity:1;stroke-dasharray:none;display:inline"
       inkscape:connector-curvature="0"
       stroke-linejoin="null"
       stroke-linecap="null"
       d="M 240.30286,119.06603 349.7046,156.00049"
       id="svg_24" />
    <path
       style="fill:none;stroke:#f3ff0a;stroke-width:5;stroke-opacity:1;display:inline"
       inkscape:connector-curvature="0"
       d="M 224.11217,51.328902 360.57739,40.71009"
       id="svg_25" />
    <path
       id="path6556"
       d="m 205.39377,181.75694 83.21992,74.46173"
       stroke-linecap="null"
       stroke-linejoin="null"
       inkscape:connector-curvature="0"
       style="fill:none;stroke:#f3ff0a;stroke-width:5;stroke-opacity:1;stroke-dasharray:none;display:inline"
       sodipodi:nodetypes="cc" />
    <path
       sodipodi:nodetypes="cc"
       style="fill:none;stroke:#f3ff0a;stroke-width:5;stroke-opacity:1;stroke-dasharray:none;display:inline"
       inkscape:connector-curvature="0"
       stroke-linejoin="null"
       stroke-linecap="null"
       d="m 139.93922,227.13876 44.81992,98.02537"
       id="path6558" />
    <path
       id="path6560"
       d="M 60.521036,239.35694 55.5955,345.23686"
       stroke-linecap="null"
       stroke-linejoin="null"
       inkscape:connector-curvature="0"
       style="fill:none;stroke:#f3ff0a;stroke-width:5;stroke-opacity:1;stroke-dasharray:none;display:inline"
       sodipodi:nodetypes="cc" />
  </g>
  <g
     style="display:inline"
     inkscape:groupmode="layer"
     id="g6596"
     inkscape:label="0-Water Wash copy">
    <path
       id="path6598"
       d="M 148.92126,87.304471 467.69733,197.83289"
       stroke-linecap="null"
       stroke-linejoin="null"
       inkscape:connector-curvature="0"
       style="fill:#2ad4ff;stroke:#f2ff87;stroke-width:2.25;stroke-miterlimit:4;stroke-opacity:1;stroke-dasharray:none;display:inline"
       sodipodi:nodetypes="cc" />
    <path
       id="path6600"
       d="M 137.85819,55.522095 392.70974,39.708029"
       inkscape:connector-curvature="0"
       style="fill:#2ad4ff;stroke:#f2ff87;stroke-width:2.38944817;stroke-miterlimit:4;stroke-opacity:1;stroke-dasharray:none;display:inline"
       sodipodi:nodetypes="cc" />
    <path
       sodipodi:nodetypes="cc"
       style="fill:#2ad4ff;stroke:#f2ff87;stroke-width:2.25;stroke-miterlimit:4;stroke-opacity:1;stroke-dasharray:none;display:inline"
       inkscape:connector-curvature="0"
       stroke-linejoin="null"
       stroke-linecap="null"
       d="M 130.59399,114.35902 421.44279,374.1238"
       id="path6602" />
    <path
       id="path6604"
       d="M 97.43035,134.43174 239.91551,450.05107"
       stroke-linecap="null"
       stroke-linejoin="null"
       inkscape:connector-curvature="0"
       style="fill:#2ad4ff;stroke:#f2ff87;stroke-width:2.25;stroke-miterlimit:4;stroke-opacity:1;stroke-dasharray:none;display:inline"
       sodipodi:nodetypes="cc" />
    <path
       sodipodi:nodetypes="cc"
       style="fill:#2ad4ff;stroke:#f2ff87;stroke-width:2.25;stroke-miterlimit:4;stroke-opacity:1;stroke-dasharray:none;display:inline"
       inkscape:connector-curvature="0"
       stroke-linejoin="null"
       stroke-linecap="null"
       d="M 64.266713,130.06811 49.660959,504.16016"
       id="path6606" />
    <path
       id="path6608"
       d="m 471.8256,7.281247 -2.03875,0.178368 M 420.99694,31.804575 701.45398,7.267763 M 931.1066,7.25216 669.937,30.101539 M 562.75377,39.478856 638.7526,32.82982 M 514.28984,43.718901 412.9354,52.586266 M 809.08909,38.003705 976.81013,23.330015 M 781.98734,40.374802 681.73589,49.145667 m -118.19537,10.340755 66.89967,-5.852963 m -113.76787,9.953398 -102.09873,8.93248 M 822.79643,56.880865 978.16332,43.288024 m -206.43852,18.061033 -98.03341,8.57681 m -216.04611,18.90158 184.02403,-16.10001 m 336.5034,-9.36384 -161.1793,14.10136 M 468.12142,107.98731 781.02071,80.612167 m 185.17443,3.87573 -50.43312,4.41233 M 589.36106,117.45661 875.56,92.417447 M 551.31111,120.78555 518.57027,123.65 m 404.29098,-15.29448 27.57582,-2.41257 m -78.20278,6.84186 -126.71714,11.08631 m -94.84268,8.29766 45.33534,-3.96633 m -55.72819,4.87558 -44.03776,3.85281 m 312.3502,-7.25071 23.468,-2.05318 m -41.48098,3.62912 -137.43663,12.02414"
       style="fill:none;stroke:#3c9a8c;stroke-width:1;stroke-opacity:1;display:inline"
       inkscape:connector-curvature="0" />
  </g>
  <g
     inkscape:label="7-Violet"
     id="layer7"
     inkscape:groupmode="layer"
     style="display:inline" />
  <g
     inkscape:label="6-Blue"
     id="layer6"
     inkscape:groupmode="layer"
     style="display:inline" />
  <g
     style="display:inline"
     inkscape:label="5-Green"
     id="layer5"
     inkscape:groupmode="layer">
    <path
       id="path5246"
       d="M 449.77684,11.579882 413.98662,47.370111 M 414.22544,71.88002 478.8242,7.281259 m 24.74878,-3.9e-5 -78.44073,78.44073 m 25.29315,-0.54441 77.898,-77.898002 m 24.75042,-0.0017 -17.70729,17.707294 M 464.45144,95.90022 513.78457,46.567087 M 577.82424,7.276155 554.73742,30.362977 M 475.82455,109.27584 519.03608,66.06432 M 602.57466,7.274493 564.50327,45.345877 M 492.97823,116.87092 534.01606,75.8331 M 627.32508,7.272812 514.09716,120.50073 m 15.10057,9.64816 L 652.0755,7.27113 m 24.75041,-0.0017 -18.72268,18.722683 M 574.28322,109.81214 630.4327,53.662668 M 701.57633,7.267767 674.54091,34.303188 M 590.35585,118.48825 638.76418,70.07992 M 726.32675,7.266085 681.79379,51.799044 M 596.19455,137.39828 656.2646,77.32824 M 751.07717,7.264403 611.65629,146.68528 M 650.82414,132.26616 775.82759,7.262722 M 800.57801,7.261022 667.00178,140.83725 M 797.03283,35.554952 825.32843,7.259358 m -53.60181,53.601802 -47.33201,47.33202 m -29.61875,29.61874 0.76211,-0.76211 M 850.07885,7.257677 814.62458,42.711947 M 740.39974,116.93678 778.81888,78.51764 M 874.82927,7.255995 822.98589,59.099366 m -75.5822,75.582204 47.71745,-47.71745 M 899.57969,7.254314 761.65642,145.17757 m 16.40571,8.34304 L 924.3301,7.252632 M 949.08052,7.250932 808.85896,147.47249 M 900.42253,80.657662 970.04634,11.03385 m -98.30467,98.30467 -31.3119,31.3119 m 75.91167,-51.162928 60.26635,-60.266349 m -96.10213,96.102127 -17.45216,17.45216 m 59.90073,-35.15199 56.44143,-56.44143 m -80.78524,80.78523 -20.0694,20.06941 m 39.11561,-14.36688 35.25444,-35.25444"
       style="fill:none;stroke:#44a940;stroke-width:1;stroke-opacity:1"
       inkscape:connector-curvature="0" />
    <path
       inkscape:connector-curvature="0"
       style="fill:none;stroke:#007e00;stroke-width:5.4000001;stroke-miterlimit:4;stroke-opacity:1;stroke-dasharray:none;display:inline"
       d="M 963.40625,7.21875 C 963.24997,7.2107657 963.09278,7.22643 962.9375,7.25 809.62084,7.305646 656.31667,7.272551 503,7.28125 l -32.875,0 c -3.2343,1.7649532 -6.49571,3.605358 -10.0625,4.59375 -4.79047,-0.210479 -9.72469,-1.017833 -14.40625,0.4375 -3.36277,0.687976 -6.33221,2.485644 -9.15625,4.375 -3.24413,2.193519 -6.49005,4.386489 -9.59375,6.78125 -0.75078,0.476374 -1.1803,1.555079 -1.75,2.3125 -2.63907,3.935351 -5.53497,7.720831 -7.875,11.84375 -1.10268,1.92383 -1.9159,4.025425 -2.46875,6.1875 -1.23025,4.503835 -2.1184,9.106734 -2.625,13.75 -0.44492,5.417666 0.24292,11.061871 2.78125,15.90625 1.73069,3.254186 3.9477,6.235204 5.90625,9.34375 0.51631,0.655198 1.56653,0.997148 2.25,1.59375 2.06018,1.466621 4.27058,2.728548 6.40625,4.0625 0.44061,-0.02884 0.81163,-0.589341 1.15625,-0.75 1.31291,-1.170082 3.15928,-1.467511 4.78125,-2.0625 4.3786,-1.352491 9.08674,-1.609801 13.59375,-0.8125 2.25397,0.412019 4.50652,1.081467 6.5625,2.09375 2.2157,1.855027 4.18386,4.049376 6.25,6.09375 1.33987,1.430044 2.72352,2.85288 3.84375,4.4375 2.07045,4.11268 2.68815,8.8409 2.34375,13.40625 0.43565,0.12747 0.87073,-0.269 1.34375,-0.21875 3.63466,-0.72427 7.28163,-2.04249 11.03125,-1.625 1.2404,0.27174 2.3465,0.98249 3.25,1.84375 1.30942,0.6189 2.69659,1.51676 3.96875,2.375 3.03193,2.01275 5.86549,4.51434 9.40625,5.5625 5.51041,1.74696 11.34489,1.31398 17.03125,1.6875 0.91067,0.10755 1.8824,0.29671 2.4375,1.09375 0.91771,0.9904 1.65655,2.21822 2.90625,2.6875 3.6984,2.19955 7.0312,5.15794 11.21875,6.375 5.50489,1.67055 11.3249,1.82336 17.03125,1.65625 0.24082,-1.07125 0.0833,-2.17598 0.46875,-3.21875 0.60841,-2.8587 1.44948,-5.76624 3.0625,-8.21875 3.02643,-2.72116 5.78667,-5.88762 8.9375,-8.4375 4.59426,-2.449 9.94523,-3.04772 15.0625,-2.59375 3.19103,0.30801 6.338,1.19898 9.21875,2.59375 1.35781,1.31643 2.66617,2.7503 4.03125,4.09375 1.87737,1.92386 3.82668,3.87109 5.4375,6 2.08183,4.01416 2.62725,8.67284 2.46875,13.15625 -0.1284,2.65719 -0.52115,5.33053 -1.40625,7.84375 0.56922,0.31528 1.26358,0.32619 1.875,0.59375 4.83632,1.46505 9.83862,2.86308 14.9375,2.5625 5.24291,-0.27565 10.40608,-2.01926 14.75,-5 4.62911,-2.89419 9.17093,-5.91916 13.875,-8.6875 1.50409,-0.76793 2.98233,-1.71025 4.65625,-2.03125 2.47344,-0.33089 4.99236,0.53567 6.9375,2.0625 3.19673,1.97946 6.13961,4.42901 9.53125,6.0625 3.29832,1.47358 6.87587,2.13961 10.4375,2.5625 3.7216,0.38266 7.51873,0.15399 11.15625,-0.75 4.18228,-0.98007 8.24749,-2.46827 12.46875,-3.28125 -0.78954,-5.67128 0.3478,-11.52134 2.84375,-16.625 1.80587,-2.29599 4.12322,-4.2088 6.15625,-6.3125 1.4864,-1.39152 2.89829,-2.91157 4.59375,-4 3.93181,-2.06077 8.43829,-2.62588 12.8125,-2.65625 4.36397,0.0888 8.76368,0.97326 12.65625,3 0.8631,0.4763 1.44691,1.20685 2.03125,1.90625 2.54949,2.8697 5.34114,5.53753 7.6875,8.5625 0.24131,0.36369 0.66525,0.78993 0.78125,1.3125 2.09311,4.90273 2.65567,10.40946 2,15.6875 -0.099,1.00843 -0.31048,1.9943 -0.4375,3 3.9797,1.59301 8.25929,2.07356 12.4375,2.84375 2.05107,0.39378 3.87428,1.44063 5.59375,2.59375 2.43911,1.57368 4.98423,2.93596 7.625,4.125 4.02366,1.96223 8.26279,3.79241 12.78125,4.03125 5.42116,0.50419 10.97157,-0.53221 15.90625,-2.84375 4.37281,-2.2697 8.37372,-5.19502 12.46875,-7.9375 0.97208,-0.69313 1.70259,-1.9415 2.6875,-2.75 1.02371,-1.07377 2.71248,-1.00417 4.09375,-0.9375 4.2639,0.4728 8.40196,2.31127 12.75,1.65625 5.262,-0.49405 10.18246,-2.61069 15.09375,-4.4375 2.67906,-1.07461 5.45501,-2.40878 8.40625,-2.125 1.89137,0.3497 2.95367,2.18858 4.125,3.53125 1.60822,2.03019 2.72041,4.42257 4.375,6.40625 2.71601,1.69006 5.22426,3.73945 8.125,5.09375 4.61574,1.92025 9.84835,1.64952 14.5625,0.25 2.9166,-0.777 5.6299,-2.15718 8.09375,-3.90625 3.23516,-2.2217 6.40948,-4.66601 10.21875,-5.78125 3.8217,-1.37774 8.03508,-1.64697 11.625,-3.65625 5.27769,-3.12838 10.05985,-6.99152 15.0625,-10.53125 1.21984,-0.91535 2.62277,-1.69751 3.6875,-2.6875 2.08998,-2.0845 4.2101,-4.34371 6.03125,-6.5625 1.46872,-2.37182 2.90656,-4.763 4.53125,-7.03125 3.27011,-4.72403 6.61455,-9.41646 9.90625,-14.125 1.9782,-2.836738 3.83539,-5.73105 5.90625,-8.5 1.31045,-1.625643 2.83821,-3.127394 4.25,-4.6875 0.51552,-0.69948 1.13633,-1.598196 1.59375,-2.4375 1.67906,-2.582739 3.48546,-5.086754 5.09375,-7.71875 2.07151,-3.240927 3.87052,-6.726558 4.5625,-10.5625 1.19288,-5.007608 1.50783,-10.283286 0.6875,-15.375 -0.70858,-4.82636 -2.28864,-9.482723 -2.5625,-14.375 -0.29316,-3.676442 1.18489,-7.362739 0.21875,-11 -1.16163,-3.878166 -3.90382,-6.956561 -5.9375,-10.375 -0.26161,-0.483157 -0.98675,-0.847304 -1.5,-1.15625 C 967.33706,9.6387128 965.8368,8.0327354 963.875,7.3125 963.72221,7.277466 963.56253,7.2267343 963.40625,7.21875 z M 537.5,24.78125 c 1.54316,-0.05108 3.08806,-0.02526 4.625,0.125 3.19338,0.3842 6.47578,0.983909 9.3125,2.5625 2.98979,2.389799 5.75556,5.122177 8.4375,7.875 0.76776,0.917499 1.85395,1.603017 2.3125,2.71875 2.43352,4.844286 3.07885,10.398917 2.59375,15.75 -0.32652,3.102508 -1.05655,6.239801 -2.53125,9 -2.79859,3.627427 -6.2871,6.744709 -9.40625,10.09375 -2.76652,1.537521 -5.82603,2.591154 -8.96875,3.03125 -3.94014,0.545292 -8.01007,0.496709 -11.875,-0.5 -2.33493,-0.678113 -4.78031,-1.451602 -6.5625,-3.15625 -3.15418,-2.771366 -6.11388,-5.793489 -8.9375,-8.875 -1.83779,-3.438463 -2.73195,-7.339043 -2.96875,-11.21875 -0.26266,-4.919082 0.57024,-9.94346 2.84375,-14.34375 2.22363,-2.641452 4.78128,-5.11539 7.03125,-7.78125 0.67945,-0.713831 1.03851,-1.479558 1.96875,-1.90625 3.71079,-1.992446 7.8879,-3.244961 12.125,-3.375 z M 656.0625,25.875 c 4.19708,0.04617 8.44522,0.83751 12.1875,2.78125 2.84516,2.171638 5.43895,4.77266 8,7.3125 0.91512,1.025353 2.12013,1.780235 2.75,3 2.10598,4.218129 2.96983,8.995152 2.8125,13.6875 -0.11509,3.982133 -0.88982,8.087256 -2.84375,11.5625 -3.00914,3.561518 -6.34578,6.894412 -9.75,10.03125 -4.74344,2.606045 -10.30192,3.451666 -15.65625,3.03125 -3.37766,-0.26173 -6.7996,-0.938512 -9.75,-2.65625 -3.09485,-2.372696 -5.77399,-5.319257 -8.5625,-8.0625 -0.77474,-0.716116 -1.65763,-1.421076 -2.15625,-2.46875 -1.61931,-3.322512 -2.46899,-7.002165 -2.6875,-10.6875 -0.27999,-4.766061 0.58644,-9.631813 2.59375,-13.96875 1.36895,-2.021336 3.30104,-3.669565 4.90625,-5.53125 1.25389,-1.289662 2.19655,-2.621655 3.21875,-4.09375 4.0666,-2.118593 8.51595,-3.786339 13.15625,-3.90625 0.5963,-0.02163 1.18167,-0.03785 1.78125,-0.03125 z m 139.625,9.6875 c 1.54316,-0.05108 3.08806,-0.02526 4.625,0.125 3.19338,0.3842 6.47578,0.983909 9.3125,2.5625 2.98979,2.389799 5.75556,5.122177 8.4375,7.875 0.76776,0.917499 1.85395,1.603017 2.3125,2.71875 2.43352,4.844286 3.07885,10.398917 2.59375,15.75 -0.32652,3.102508 -1.05655,6.239801 -2.53125,9 -2.79859,3.627427 -6.2871,6.744709 -9.40625,10.09375 -2.76652,1.537521 -5.82603,2.591154 -8.96875,3.03125 -3.94014,0.545292 -8.01007,0.496709 -11.875,-0.5 -2.33493,-0.678113 -4.78031,-1.451602 -6.5625,-3.15625 -3.15418,-2.771366 -6.11388,-5.793489 -8.9375,-8.875 -1.83779,-3.438463 -2.73195,-7.339043 -2.96875,-11.21875 -0.26266,-4.919082 0.57024,-9.94346 2.84375,-14.34375 2.22363,-2.641452 4.78128,-5.11539 7.03125,-7.78125 0.67945,-0.713831 1.03851,-1.479558 1.96875,-1.90625 3.71079,-1.992446 7.8879,-3.244961 12.125,-3.375 z m 101.34375,44.90625 c 4.34604,0.04352 8.75444,0.76235 12.625,2.8125 2.67622,2.042488 5.10019,4.510398 7.4375,6.96875 1.04521,1.281537 2.35419,2.334589 3.25,3.71875 1.96935,4.169155 2.79666,8.86543 2.625,13.46875 -0.18332,3.7435 -0.73657,7.58256 -2.5,10.9375 -1.40863,1.8732 -3.07086,3.61235 -4.71875,5.3125 -1.71644,1.70073 -3.39498,3.44274 -5.1875,5.0625 -3.62002,2.00228 -7.80644,3.0843 -11.96875,3.21875 -4.56966,0.16118 -9.26492,-0.49242 -13.40625,-2.5 -2.47328,-1.90359 -4.75927,-4.12014 -6.9375,-6.375 -1.22778,-1.36748 -2.63668,-2.60292 -3.75,-4.03125 -2.08401,-3.73794 -2.85635,-8.07351 -2.90625,-12.3125 -0.087,-4.31042 0.75927,-8.635617 2.53125,-12.5625 1.34661,-2.191428 3.42104,-3.833428 5.0625,-5.8125 0.95018,-1.397142 2.18982,-2.807634 3.4375,-4.0625 3.85753,-2.025424 8.14979,-3.556032 12.5625,-3.8125 0.61696,-0.01813 1.22289,-0.03747 1.84375,-0.03125 z"
       id="path3375" />
    <path
       inkscape:connector-curvature="0"
       style="fill:none;stroke:#3c9a3c;stroke-width:1;stroke-opacity:1"
       d="m 471.8256,7.28125 -2.03875,0.178368 M 420.99694,31.804578 701.45398,7.267766 M 931.1066,7.252163 669.937,30.101542 M 562.75377,39.478859 638.7526,32.829823 M 514.28984,43.718904 412.9354,52.586269 M 809.08909,38.003708 976.81013,23.330018 M 781.98734,40.374805 681.73589,49.14567 M 563.54052,59.486425 630.44019,53.633462 M 516.67232,63.58686 414.57359,72.51934 M 822.79643,56.880868 978.16332,43.288027 M 771.7248,61.34906 673.69139,69.92587 M 457.64528,88.82745 641.66931,72.72744 M 978.17271,63.3636 816.99341,77.46496 M 468.12142,107.98731 781.02071,80.61217 m 185.17443,3.87573 -50.43312,4.41233 M 589.36106,117.45661 875.56,92.41745 m -324.24889,28.3681 -32.74084,2.86445 m 404.29098,-15.29448 27.57582,-2.41257 m -78.20278,6.84186 -126.71714,11.08631 m -94.84268,8.29766 45.33534,-3.96633 m -55.72819,4.87558 -44.03776,3.85281 m 312.3502,-7.25071 23.468,-2.05318 m -41.48098,3.62912 -137.43663,12.02414"
       id="path3873" />
    <path
       inkscape:connector-curvature="0"
       id="path3377"
       d="m 975.20553,717.09865 c 0,0 0.9213,0.95652 1.85749,-1.74229 0.93619,-2.69881 1.89909,-9.05295 1.89909,-23.67426 0,-7.31066 -0.55207,-9.37745 -1.52388,-8.3654 -0.97181,1.01205 -2.36802,5.10296 -4.08488,10.10769 -3.43372,10.00947 -8.17049,23.67426 -13.18183,23.67426 -5.01134,0 -0.25763,-13.66215 5.69968,-31.09408 5.95731,-17.43193 13.0921,-38.63363 13.0921,-53.71275 0,-7.53956 -1.76094,-6.00892 -4.56044,0.52806 -2.79949,6.53697 -6.6518,18.08027 -10.86929,30.56601 -4.21748,12.48575 -8.80284,25.91394 -12.97612,36.22069 -4.17328,10.30675 -7.92561,17.49207 -10.43128,17.49207 -5.01134,0 4.98736,-28.73817 15.96677,-61.37203 5.48971,-16.31694 11.22827,-33.6078 15.57261,-48.76728 4.34434,-15.15948 7.2991,-28.18757 7.2991,-35.97898 0,-7.79141 -2.92437,-2.55472 -7.50712,9.68298 -4.58275,12.2377 -10.85344,31.47642 -17.57105,51.68905 -6.71761,20.21264 -13.88624,41.39921 -20.03717,57.53261 -6.15093,16.13341 -11.26282,27.21365 -13.76849,27.21365 -2.50567,0 0.31685,-11.69305 5.75721,-29.43015 5.44036,-17.7371 13.47463,-41.51826 21.46556,-65.69449 7.99093,-24.17623 15.93696,-48.74753 21.46511,-68.0649 5.52815,-19.31737 8.65923,-33.38082 7.14029,-36.54136 -1.51895,-3.16054 -6.15213,7.74237 -12.52162,25.87454 -6.36949,18.13217 -14.50992,43.4936 -22.98038,69.2501 -8.47047,25.7565 -17.27286,51.90806 -24.62942,71.6205 -7.35655,19.71244 -13.23643,32.98576 -15.7421,32.98576 -2.50567,0 0.82424,-13.1441 6.95456,-32.93391 6.13031,-19.7898 15.03077,-46.22531 23.76769,-72.80814 8.73693,-26.58283 17.30966,-53.31297 23.11807,-73.69202 5.8084,-20.37906 8.88141,-34.40704 6.74051,-35.58555 -2.14089,-1.17851 -7.34803,11.67097 -14.25583,31.60809 -6.9078,19.93712 -15.55074,46.96188 -24.4645,74.13396 -8.91377,27.17208 -18.09908,54.49147 -25.72894,75.01784 -7.62986,20.52638 -13.67124,34.25973 -16.17691,34.25973 -2.50566,0 1.02949,-13.73047 7.4481,-34.37999 6.41862,-20.64952 15.68765,-48.21811 24.76197,-75.89434 9.07432,-27.67624 17.95341,-55.46013 23.95592,-76.54026 6.00252,-21.08014 9.16046,-35.45652 6.92013,-36.31773 -2.24032,-0.86122 -7.63346,12.65394 -14.77668,33.41112 -7.14322,20.75717 -16.07273,48.75637 -25.27551,76.86321 -9.20279,28.10685 -18.67938,56.32134 -26.53087,77.50913 -7.85149,21.18779 -14.04274,35.34886 -16.54841,35.34886 -2.50566,0 1.17964,-14.1593 7.80843,-35.43643 6.6288,-21.27713 16.16595,-49.67208 25.48446,-78.14337 9.31851,-28.4713 18.418,-57.01893 24.55819,-78.60142 6.1402,-21.5825 9.35547,-36.19985 7.03734,-36.81058 -2.31813,-0.61073 -7.8478,13.39589 -15.16131,34.74936 -7.31352,21.35347 -16.4483,50.05379 -25.85752,78.83045 -9.40921,28.77665 -19.09325,57.62965 -27.10242,79.28849 -8.00918,21.65883 -14.30685,36.1235 -16.81251,36.1235 -2.50567,0 1.28599,-14.46301 8.0631,-36.18347 6.77712,-21.72045 16.50305,-50.69835 25.99249,-79.72811 9.48943,-29.02977 18.74211,-58.11141 24.97613,-80.03936 6.23402,-21.92794 9.4855,-36.70219 7.10697,-37.11717 -2.37854,-0.41498 -8.00598,13.94429 -15.4388,35.71661 -7.43282,21.77233 -16.70928,50.95772 -26.26016,80.19498 -9.55088,29.23725 -19.37646,58.52639 -27.49302,80.5062 -8.11657,21.97982 -14.4864,36.65032 -16.99206,36.65032 -2.50567,0 1.35957,-14.67314 8.23835,-36.69768 6.87879,-22.02454 16.73339,-51.40047 26.33747,-80.80607 9.60409,-29.40559 18.9575,-58.84083 25.24901,-80.98399 6.29151,-22.14316 9.55853,-36.99424 7.12543,-37.23148 -2.43309,-0.23724 -8.13172,14.37659 -15.64518,36.43078 -7.51345,22.0542 -16.88038,51.54876 -26.51952,81.07297 -9.63915,29.52421 -19.55066,59.07808 -27.73177,81.25089 -8.18111,22.17282 -14.59348,36.96458 -17.09914,36.96458 -2.50567,0 1.40083,-14.79105 8.3338,-36.9778 6.93298,-22.18676 16.85408,-51.76921 26.51176,-81.35202 9.65769,-29.58281 19.05194,-59.16597 25.35287,-81.35414 6.30092,-22.18818 9.54683,-36.98135 7.04203,-36.98419 -2.5048,-0.003 -8.2555,14.78751 -15.80889,36.97462 -7.55338,22.1871 -16.9478,51.77098 -26.6059,81.3552 -9.6581,29.58423 -19.57989,59.16881 -27.76629,81.35734 -8.1864,22.18852 -14.59906,36.98099 -17.10473,36.98099 -2.50567,0 1.40112,-14.79202 8.33001,-36.96666 6.92888,-22.17463 16.84152,-51.73188 26.48264,-81.26233 9.64111,-29.53045 19.01083,-59.03411 25.27542,-81.10156 6.2646,-22.06745 9.46269,-36.6987 6.89146,-36.48433 -2.57124,0.21436 -8.34192,15.05997 -15.88726,37.20781 -7.54534,22.14784 -16.90286,51.5979 -26.51229,81.02117 -9.60944,29.42327 -19.47065,58.81975 -27.60766,80.8604 -8.137,22.04066 -14.512,36.7255 -17.01767,36.7255 -2.50567,0 1.36339,-14.68448 8.23405,-36.68504 6.87066,-22.00056 16.70514,-51.31721 26.26431,-80.58155 9.55917,-29.26435 18.84329,-58.47639 25.02853,-80.26774 6.18524,-21.79136 9.30991,-36.16202 6.67607,-35.7436 -2.63383,0.41842 -8.39496,15.2075 -15.88751,37.15576 -7.49255,21.94826 -16.75271,51.0557 -26.24993,80.11083 -9.49722,29.05514 -19.23123,58.05797 -27.26741,79.79702 -8.03617,21.73905 -14.33779,36.21432 -16.84346,36.21432 -2.50567,0 1.28995,-14.475 8.05144,-36.14923 6.76149,-21.67423 16.45215,-50.54768 25.86757,-79.34458 9.41542,-28.79689 18.55599,-57.51723 24.62071,-78.88523 6.06472,-21.368 9.09107,-35.38366 6.39735,-34.7712 -2.69372,0.61245 -8.41754,15.24057 -15.81484,36.83824 -7.39729,21.59767 -16.50247,50.1649 -25.82694,78.65556 -9.32446,28.49067 -18.86784,56.90478 -26.75426,78.19622 -7.88642,21.29144 -14.08071,35.46022 -16.58638,35.46022 -2.50567,0 1.18262,-14.16876 7.78641,-35.37185 6.60378,-21.20308 16.08789,-49.44049 25.30019,-77.57777 9.21229,-28.13728 18.15328,-56.17444 24.05717,-76.97704 5.9039,-20.8026 8.80688,-34.37064 6.05449,-33.56967 -2.7524,0.80097 -8.41256,15.16998 -15.67357,36.27294 -7.26102,21.10296 -16.15515,48.93988 -25.248,76.67668 -9.09285,27.7368 -18.38395,55.37348 -26.07314,76.07595 -7.68918,20.70248 -13.74323,34.47076 -16.2489,34.47076 -2.50567,0 1.04335,-13.77129 7.4424,-34.3633 6.39905,-20.59201 15.6149,-48.00474 24.56323,-75.28761 8.94833,-27.28288 17.62977,-54.43591 23.32479,-74.50851 5.69502,-20.07261 8.43811,-33.06479 5.61112,-32.02598 -2.82699,1.03881 -8.40307,15.0698 -15.48617,35.53196 -7.08311,20.46216 -15.70282,47.35548 -24.4954,74.11895 -8.79259,26.76348 -17.75745,53.3971 -25.19191,73.33985 -7.43446,19.94275 -13.30774,33.19464 -15.81341,33.19464 -2.50567,0 0.86562,-13.26395 7.00028,-33.06783 6.13465,-19.80388 15.00185,-46.14768 23.60139,-72.30739 8.59954,-26.1597 16.9323,-52.1353 22.3361,-71.20277 5.40381,-19.06747 7.91121,-31.22681 4.94743,-29.75399 -2.96378,1.47282 -8.44307,15.10498 -15.29147,34.72475 -6.8484,19.61978 -15.09179,45.22718 -23.46893,70.65047 -8.37715,25.42329 -16.88724,50.66248 -23.96595,69.54585 -7.0787,18.88337 -12.69853,31.41091 -15.2042,31.41091 -2.50567,0 0.60194,-12.51117 6.335,-31.12013 5.73306,-18.60897 14.06416,-43.31573 22.11032,-67.70692 8.04616,-24.3912 15.8088,-48.46682 20.70467,-65.81351 4.89588,-17.34669 6.95524,-27.96444 3.65714,-25.43989 -3.29811,2.52456 -8.66838,15.66686 -15.14578,33.96026 -6.47741,18.29339 -14.08167,41.73788 -21.74212,64.8668 -7.66046,23.12891 -15.37589,45.94226 -21.83104,62.97338 -6.45515,17.03112 -11.62787,28.28001 -14.13354,28.28001 -2.50567,0 0.04,-10.90257 5.0294,-27.30346 4.98944,-16.40089 12.40184,-38.3001 19.70025,-60.29337 7.29841,-21.99326 14.48246,-44.08058 19.2446,-60.85771 4.76213,-16.77712 7.12246,-28.24405 4.85465,-28.99651 -2.26781,-0.75247 -6.89239,9.96199 -12.80939,26.45693 -5.917,16.49495 -13.14946,38.77039 -20.56387,61.13989 -7.41441,22.3695 -15.01115,44.83306 -21.41195,61.70424 -6.4008,16.87118 -11.58337,28.14999 -14.08904,28.14999 -2.50567,0 0.18732,-11.32407 5.38774,-28.35024 5.20041,-17.02617 12.88578,-39.75443 20.44143,-62.56281 7.55564,-22.80837 14.98126,-45.69687 19.90959,-63.0435 4.92833,-17.34663 7.38121,-29.15141 5.07744,-29.79234 -2.30378,-0.64093 -7.05729,10.52291 -13.15501,27.62919 -6.09772,17.10629 -13.56405,40.15502 -21.21807,63.28386 -7.65401,23.12884 -15.49604,46.3378 -22.08418,63.76455 -6.58813,17.42675 -11.89862,29.07129 -14.40429,29.07129 -2.50567,0 0.29818,-11.6413 5.6496,-29.11556 5.35142,-17.47427 13.22667,-40.78149 20.94626,-64.11333 7.71959,-23.33185 15.28341,-46.68831 20.27327,-64.26106 4.98986,-17.57274 7.42929,-29.36177 4.98555,-29.55873 -2.44374,-0.19697 -7.32593,11.39509 -13.54297,28.89398 -6.21705,17.49888 -13.79331,40.90458 -21.54305,64.33491 -7.74975,23.43033 -15.67308,46.88527 -22.31877,64.48264 -6.64568,17.59737 -11.98957,29.33715 -14.49524,29.33715 -2.50567,0 0.33418,-11.7446 5.7235,-29.33159 5.38931,-17.58698 13.30393,-41.01634 21.03398,-64.38587 7.73006,-23.36952 15.27579,-46.6792 20.19293,-64.02681 4.91713,-17.34762 7.23032,-28.73317 4.57404,-28.25443 -2.65628,0.47873 -7.62813,12.34302 -13.86043,29.87016 -6.2323,17.52714 -13.74776,40.71714 -21.40445,63.84729 -7.6567,23.13016 -15.4544,46.20047 -21.99583,63.48824 -6.54144,17.28777 -11.80342,28.79301 -14.30909,28.79301 -2.50567,0 0.24827,-11.49927 5.50131,-28.68213 5.25304,-17.18286 12.98202,-40.04932 20.51095,-62.7837 7.52893,-22.73438 14.85836,-45.33668 19.56653,-61.99123 4.70817,-16.65455 6.81932,-27.36134 3.98007,-26.30472 -2.83924,1.05663 -7.79471,12.82005 -13.89328,29.87084 -6.09857,17.05078 -13.36034,39.38893 -20.72664,61.59499 -7.36631,22.20607 -14.83665,44.28005 -21.12,60.80252 -6.28335,16.52248 -11.35862,27.49343 -13.86429,27.49343 -2.50566,0 0.053,-10.94096 5.01986,-27.27557 4.96681,-16.33461 12.32078,-38.06286 19.48283,-59.63743 7.16205,-21.57458 14.13278,-42.99548 18.56314,-58.71538 4.43036,-15.7199 6.3425,-25.73881 3.44663,-24.5094 -2.89586,1.22941 -7.70945,12.47772 -13.55271,28.65865 -5.84326,16.18093 -12.73376,37.29448 -19.7053,58.25435 -6.97153,20.95987 -14.02354,41.76607 -19.98386,57.33229 -5.96032,15.56623 -10.81027,25.89249 -13.31594,25.89249 -2.50566,0 -0.15189,-10.35418 4.53669,-25.86502 4.68858,-15.51084 11.69318,-36.17834 18.55588,-56.80496 6.86269,-20.62663 13.58363,-41.21238 17.91136,-56.55974 4.32772,-15.34735 6.2813,-25.45631 3.67153,-25.12934 -2.60978,0.32697 -7.17457,10.7629 -12.7977,26.23286 -5.62313,15.46997 -12.32249,35.97398 -19.13431,56.43712 -6.81182,20.46314 -13.73595,40.88541 -19.60833,56.1919 -5.87237,15.30648 -10.6748,25.49718 -13.18047,25.49718 -2.50566,0 -0.20607,-10.19896 4.41128,-25.49908 4.61735,-15.30011 11.53425,-35.70139 18.32689,-56.10602 6.79264,-20.40463 13.46103,-40.81262 17.78186,-56.12616 4.32082,-15.31355 6.31229,-25.53265 3.81518,-25.5595 -2.49711,-0.0269 -6.98558,10.16539 -12.55574,25.46887 -5.57017,15.30347 -12.24033,35.71817 -19.03716,56.13623 -6.79682,20.41806 -13.72033,40.83947 -19.59618,56.15637 -5.87586,15.3169 -10.68581,25.52929 -13.19147,25.52929 -2.50567,0 -0.20006,-10.21612 4.42975,-25.553 4.62981,-15.33688 11.56552,-35.79452 18.38346,-56.27757 6.81795,-20.48306 13.51802,-40.99152 17.87779,-56.43003 4.35977,-15.43852 6.39734,-25.80709 3.9564,-26.01036 -2.44095,-0.20327 -6.91857,9.96203 -12.50471,25.32432 -5.58613,15.36229 -12.29963,35.92157 -19.1492,56.50625 -6.84957,20.58469 -13.83532,41.19479 -19.76088,56.65871 -5.92556,15.46393 -10.7723,25.78168 -13.27796,25.78168 -2.50567,0 -0.16446,-10.3179 4.52094,-25.8191 4.6854,-15.5012 11.69634,-36.18571 18.59426,-56.91893 6.89791,-20.73322 13.68263,-41.51515 18.12093,-57.21121 4.43831,-15.69606 6.5485,-26.30624 4.16676,-26.69596 -2.38174,-0.38971 -6.87194,9.83076 -12.51234,25.38067 -5.6404,15.54992 -12.45072,36.42928 -19.40918,57.35736 -6.95845,20.92808 -14.06522,41.90487 -20.08572,57.64964 -6.02049,15.74478 -10.93533,26.25753 -13.441,26.25753 -2.50567,0 -0.0928,-10.52291 4.69533,-26.32806 4.78815,-15.80516 11.93219,-36.89257 18.95582,-58.02158 7.02363,-21.12901 13.92668,-42.29962 18.44641,-58.27117 4.51972,-15.97156 6.67521,-26.74406 4.27519,-27.07685 -2.40002,-0.3328 -6.95402,10.10691 -12.68325,25.95367 -5.72923,15.84676 -12.65402,37.10056 -19.72923,58.39597 -7.07522,21.2954 -14.30101,42.63241 -20.4122,58.64556 -6.11119,16.01316 -11.08775,26.70246 -13.59342,26.70246 -2.50567,0 -0.031,-10.69998 4.83881,-26.74693 4.86981,-16.04695 12.11468,-37.44088 19.21978,-58.82878 7.10509,-21.3879 14.07042,-42.76978 18.60177,-58.79263 4.53134,-16.02285 6.64881,-26.68667 4.12785,-26.63847 -2.52097,0.0482 -7.15961,10.76023 -12.95007,26.80116 -5.79045,16.04092 -12.75264,37.41075 -19.85027,58.77455 -7.09763,21.3638 -14.33067,42.72158 -20.44314,58.7384 -6.11248,16.01683 -11.08441,26.6927 -13.59008,26.6927 -2.50567,0 -0.0416,-10.66999 4.80231,-26.64037 4.84388,-15.97037 12.04758,-37.24113 19.09258,-58.44265 7.04501,-21.20153 13.93159,-42.33382 18.36036,-58.02727 4.42877,-15.69346 6.42021,-25.94807 3.7386,-25.39423 -2.68161,0.55384 -7.35714,11.36229 -13.11086,27.26344 -5.75371,15.90114 -12.60403,36.89498 -19.56312,57.81958 -6.95908,20.92461 -14.02667,41.77998 -20.00652,57.4042 -5.97985,15.62423 -10.85303,26.0173 -13.3587,26.0173 -2.50567,0 -0.13833,-10.39332 4.55645,-25.92271 4.69478,-15.52939 11.69807,-36.19484 18.53339,-56.7391 6.83532,-20.54425 13.50312,-40.96731 17.73458,-56.01192 4.23146,-15.04461 6.0464,-24.71077 3.2317,-23.74121 -2.81471,0.96955 -7.44855,11.60526 -13.05908,27.01346 -5.61053,15.40819 -12.21411,35.58886 -18.89836,55.64834 -6.68426,20.05948 -13.44877,39.99776 -19.19159,54.92118 -5.74283,14.92341 -10.44677,24.83196 -12.95244,24.83196 -2.50567,0 -0.30289,-9.92261 4.14027,-24.70851 4.44317,-14.78591 11.10948,-34.4351 17.59564,-53.88827 6.48616,-19.45317 12.79286,-38.71032 16.70567,-52.71212 3.9128,-14.0018 5.45035,-22.74826 2.44211,-21.18007 -3.00824,1.5682 -7.56041,11.88286 -12.93023,26.47274 -5.36982,14.58988 -11.57068,33.45497 -17.81079,52.12404 -6.24011,18.66908 -12.51886,37.14212 -17.88307,50.9479 -5.36422,13.80578 -9.79928,22.94429 -12.30495,22.94429 -2.50567,0 -0.63192,-8.98045 3.33407,-22.35855 3.96598,-13.3781 10.01008,-31.15384 15.8983,-48.74441 5.88822,-17.59056 11.62115,-34.99596 15.11948,-47.63338 3.49832,-12.63741 4.77736,-20.50684 1.79312,-19.02547 -2.98424,1.48136 -7.25295,10.83216 -12.19698,24.02509 -4.94403,13.19292 -10.57423,30.22798 -16.22763,47.07786 -5.65341,16.84989 -11.3295,33.5146 -16.23413,45.96685 -4.90463,12.45224 -9.02591,20.69201 -11.53158,20.69201 -2.50567,0 -0.86706,-8.30645 2.77535,-20.73162 3.64241,-12.42517 9.27653,-28.96906 14.80551,-45.44395 5.52899,-16.47489 10.95303,-32.88077 14.30802,-45.02992 3.35499,-12.14916 4.65343,-20.04158 1.96874,-19.48954 -2.6847,0.55204 -6.66975,8.99649 -11.34945,21.35266 -4.6797,12.35617 -10.06496,28.62404 -15.50601,44.82291 -5.44105,16.19887 -10.9377,32.32873 -15.71572,44.40888 -4.77802,12.08015 -8.82612,20.11058 -11.33179,20.11058 -2.50567,0 -0.96285,-8.03195 2.54027,-20.04751 3.50312,-12.01556 8.95525,-28.01474 14.30895,-43.94919 5.35369,-15.93445 10.60914,-31.80418 13.84302,-43.56085 3.23389,-11.75668 4.45789,-19.40029 1.78392,-18.88251 -2.67397,0.51778 -6.57368,8.67917 -11.12782,20.63001 -4.55413,11.95084 -9.77292,27.69112 -15.0439,43.36669 -5.27098,15.67556 -10.59397,31.2864 -15.2399,42.97835 -4.64593,11.69195 -8.60422,19.46501 -11.10989,19.46501 -2.50567,0 -1.05253,-7.77478 2.3275,-19.42851 3.38003,-11.65373 8.67637,-27.18641 13.89448,-42.70222 5.21811,-15.5158 10.35803,-31.01473 13.54169,-42.60096 3.18366,-11.58622 4.42173,-19.25974 1.87212,-19.12473 -2.54962,0.13501 -6.33775,7.94354 -10.79182,19.5804 -4.45407,11.63685 -9.58439,27.10203 -14.7809,42.55033 -5.1965,15.4483 -10.45914,30.87972 -15.0633,42.44907 -4.60417,11.56935 -8.53945,19.27662 -11.04512,19.27662 -2.50567,0 -1.07346,-7.71472 2.28053,-19.2919 3.35399,-11.57719 8.61934,-27.01682 13.81627,-42.46665 5.19693,-15.44983 10.32541,-30.90985 13.5204,-42.52779 3.19499,-11.61794 4.46687,-19.3938 1.98774,-19.47532 -2.47913,-0.0815 -6.22987,7.61282 -10.66709,19.20019 -4.43721,11.58737 -9.57149,27.06777 -14.78147,42.55836 -5.20997,15.49059 -10.49567,30.99136 -15.11982,42.6195 -4.62416,11.62813 -8.57624,19.38361 -11.08191,19.38361 -2.50567,0 -1.04172,-7.80584 2.34944,-19.49232 3.39116,-11.68648 8.69886,-27.25359 13.91886,-42.77614 5.22,-15.52254 10.35242,-31.00052 13.51033,-42.50872 3.15791,-11.5082 4.35222,-19.04662 1.73047,-18.69006 -2.62176,0.35656 -6.43899,8.25155 -10.89616,19.89346 -4.45716,11.6419 -9.56421,27.03074 -14.72713,42.375 -5.16293,15.34427 -10.38161,30.64396 -14.9498,42.10759 -4.56819,11.46363 -8.47569,19.09119 -10.98136,19.09119 -2.50567,0 -1.11091,-7.60784 2.16088,-18.94391 3.27178,-11.33607 8.41046,-26.40037 13.43071,-41.31329 5.02025,-14.91292 9.92248,-29.67446 12.8324,-40.40502 2.90993,-10.73055 3.8385,-17.43011 0.93717,-16.21907 -2.90134,1.21104 -6.73502,9.12164 -11.05546,20.30633 -4.32043,11.18469 -9.13547,25.64347 -13.96098,39.95087 -4.82552,14.3074 -9.66115,28.46343 -13.92802,39.0426 -4.26686,10.57917 -7.95638,17.58149 -10.46205,17.58149 -2.50567,0 -1.3386,-6.95486 1.60811,-17.33712 2.94672,-10.38225 7.66461,-24.1919 12.29182,-37.90148 4.62722,-13.70958 9.164,-27.31909 11.84143,-37.30107 2.67743,-9.98197 3.50447,-16.3364 0.73601,-15.53584 -2.76846,0.80057 -6.36627,7.95557 -10.40077,18.23775 -4.03449,10.28219 -8.51275,23.69156 -13.01046,37.00085 -4.49771,13.3093 -9.01466,26.51853 -13.04357,36.40043 -4.0289,9.8819 -7.56225,16.43648 -10.06792,16.43648 -2.50566,0 -1.46999,-6.57773 1.30409,-16.45393 2.77408,-9.8762 7.27898,-23.05086 11.738,-36.24471 4.45902,-13.19386 8.87212,-26.40691 11.54602,-36.35988 2.6739,-9.95297 3.6161,-16.64587 1.16089,-16.79941 -2.4552,-0.15355 -5.85217,6.38579 -9.75892,16.28119 -3.90674,9.89539 -8.33111,23.14682 -12.815,36.41745 -4.4839,13.27063 -9.02737,26.56045 -13.08702,36.53262 -4.05966,9.97216 -7.62774,16.62667 -10.13341,16.62667 -2.50566,0 -1.4423,-6.65727 1.36496,-16.63071 2.80725,-9.97344 7.35062,-23.26306 11.83252,-36.52777 4.4819,-13.26471 8.90237,-26.5045 11.54919,-36.37829 2.64682,-9.87378 3.52786,-16.38157 0.95668,-16.18225 -2.57118,0.19931 -6.02396,6.9064 -9.94956,16.85493 -3.9256,9.94853 -8.33144,23.1385 -12.78105,36.30355 -4.4496,13.16505 -8.94291,26.30518 -12.96049,36.15406 -4.01759,9.84887 -7.55193,16.40648 -10.05759,16.40648 -2.50567,0 -1.47856,-6.55336 1.2692,-16.35261 2.74775,-9.79924 7.20863,-22.84437 11.59775,-35.82789 4.38911,-12.98353 8.70661,-25.90546 11.25021,-35.4583 2.5436,-9.55285 3.32111,-15.73661 0.65323,-15.24381 -2.66789,0.49279 -6.11464,7.16936 -9.97523,16.907 -3.86059,9.73765 -8.14174,22.53637 -12.45085,35.2735 -4.30912,12.73713 -8.64609,25.41265 -12.54155,34.9039 -3.89546,9.49125 -7.34245,15.79821 -9.84811,15.79821 -2.50567,0 -1.56687,-6.30007 1.04859,-15.71202 2.61545,-9.41195 6.90061,-21.93577 11.11306,-34.38327 8.42492,-24.895 16.53213,-49.48471 11.11786,-48.26356 -2.70714,0.61058 -6.08586,7.06329 -9.8195,16.39892 -3.73364,9.33562 -7.82818,21.55416 -11.94122,33.69637 -8.22608,24.28442 -16.55281,48.26356 -21.564144,48.26356 -5.011337,0 3.306994,-23.96014 11.383734,-47.79794 8.07673,-23.8378 15.91394,-47.55327 10.74084,-47.06393 -5.1731,0.48934 -13.01539,24.20481 -21.012262,47.79794 -7.996872,23.59313 -16.146324,47.06393 -21.157661,47.06393 -5.011337,0 3.143564,-23.48772 11.111528,-46.99472 7.967964,-23.50701 15.748675,-47.0333 10.762845,-47.11045 -4.985819,-0.0771 -12.765732,23.44914 -20.746294,46.99472 -7.980562,23.54558 -16.162091,47.11045 -21.173429,47.11045 -5.011337,0 3.174761,-23.57655 11.200719,-47.25787 8.025958,-23.68132 15.890051,-47.4674 11.017229,-47.88648 -4.872822,-0.41908 -12.73255,23.36701 -20.826892,47.25787 -8.094341,23.89085 -16.425068,47.88648 -21.436405,47.88648 -5.011337,0 3.323765,-24.00516 11.505951,-48.15869 8.182185,-24.15353 16.208972,-48.45543 11.393577,-49.04891 -4.815394,-0.59347 -12.835864,23.70843 -21.114757,48.1587 -4.139446,12.22513 -8.336558,24.48736 -12.134466,33.6933 -3.797908,9.20594 -7.189986,15.3556 -9.695654,15.3556 -5.011338,0 3.533089,-24.60794 11.916362,-49.3706 4.191637,-12.38132 8.350227,-24.80133 10.850478,-34.20337 2.500251,-9.40204 3.348629,-15.7861 0.944993,-16.09555 -2.403635,-0.30944 -5.573397,5.51505 -9.007397,13.96706 -3.434001,8.45201 -7.138698,19.53155 -10.580284,29.73221 -3.441586,10.20066 -6.617901,19.52243 -8.930991,24.45893 -2.313089,4.93649 -3.7521748,5.4877 -3.7521748,-1.85278 0,-14.68096 5.7062558,-31.60856 10.1496138,-44.9329 4.443359,-13.32434 7.638594,-23.04542 2.715505,-23.31334 -4.923089,-0.26791 -8.131392,5.66973 -10.121548,11.67435 -1.990156,6.00462 -2.7624523,12.07621 -2.7624523,12.07621"
       style="fill:none;stroke:#007e00;stroke-width:5.39999962;stroke-miterlimit:4;stroke-opacity:1;stroke-dasharray:none;display:inline"
       inkscape:path-effect="#path-effect3379"
       inkscape:original-d="m 866.00036,480.37591 c -26.26954,0.0953 -52.89038,4.79852 -77.74995,11.64643 -17.47131,4.81207 -35.64325,11.08022 -51.76171,19.02842 -12.71943,6.27342 -23.85894,15.70748 -35.03964,24.32223 -3.25279,2.3179 -6.58143,4.54294 -10.00255,6.6173 -0.71438,-0.38653 -1.42562,-0.77218 -2.1478,-1.147 -13.55521,-7.04152 -25.99018,-10.24872 -41.32959,-11.11706 -20.74979,-1.17383 -43.45725,8.64412 -61.48812,17.11674 -18.95111,8.9042 -46.66301,7.59074 -68.14628,5.52912 -17.24952,-1.65458 -33.13729,-6.41847 -51.08667,-6.44083 -22.54181,-0.0267 -53.87532,10.26974 -73.08618,21.52826 -9.00633,5.27774 -14.80246,11.44057 -25.43596,14.91097 -10.95992,3.57844 -22.52851,5.11719 -33.78165,7.58784 -20.45887,4.49368 -35.35854,3.85161 -55.41297,2.97043 -27.90981,-1.22627 -47.36002,20.90012 -73.51573,18.4402 -23.18801,-2.18115 -45.34888,3.01019 -67.71672,8.11722 -34.84343,7.95458 -71.915516,0.79655 -106.653046,-3.32336 -6.473238,-0.76692 -14.595093,-0.80709 -22.1835903,-1.44109 l 0,102.37692 969.4811763,0 0,-198.43066 c -4.13399,-6.1399 -9.168,-11.47572 -15.64817,-15.20507 -21.8299,-12.56387 -46.22883,-18.40229 -71.21455,-21.55768 -8.60387,-1.08659 -17.32378,-1.5611 -26.0803,-1.52933 z" />
    <path
       sodipodi:nodetypes="ccssccccccccccccscccc"
       inkscape:connector-curvature="0"
       style="fill:none;stroke:#007e00;stroke-width:5.4000001;stroke-miterlimit:4;stroke-opacity:1;stroke-dasharray:none;display:inline"
       d="m 988.78125,506.21875 c -4.21041,-6.52399 -9.3375,-12.1936 -15.9375,-16.15625 -22.23351,-13.34981 -47.08356,-19.55347 -72.53125,-22.90625 -8.76295,-1.15456 -17.64408,-1.65875 -26.5625,-1.625 -26.75526,0.10126 -53.8683,5.0987 -79.1875,12.375 -17.79435,5.11309 -36.30227,11.77335 -52.71875,20.21875 -12.95461,6.66587 -24.30009,16.69009 -35.6875,25.84375 -3.31294,2.4629 -6.70312,4.82713 -10.1875,7.03125 -0.72758,-0.41071 -1.45198,-0.82049 -2.1875,-1.21875 -13.80585,-7.48201 -26.47073,-10.88983 -42.09375,-11.8125 -21.13344,-1.24726 -44.26075,9.18487 -62.625,18.1875 -19.3015,9.46121 -47.52578,8.06559 -69.40625,5.875 -17.56846,-1.75808 -33.74999,-6.81999 -52.03125,-6.84375 -22.95859,-0.0284 -54.87142,10.91219 -74.4375,22.875 -9.17284,5.60788 -15.07614,12.15625 -25.90625,15.84375 -11.16256,3.80228 -22.94503,5.4373 -34.40625,8.0625 -20.83713,4.77479 -36.01229,4.09255 -56.4375,3.15625 -28.42585,-1.30298 -48.23569,22.20755 -74.875,19.59375 -23.61674,-2.3176 -46.18735,3.1985 -68.96875,8.625 -35.487668,8.45219 -73.245194,0.84638 -108.625,-3.53125 C 17.375827,608.9976 9.1038037,608.95492 1.375,608.28125"
       id="svg_5" />
    <path
       sodipodi:nodetypes="ccssccccccccccccscccc"
       inkscape:connector-curvature="0"
       style="fill:none;stroke:#007e00;stroke-width:5.4000001;stroke-miterlimit:4;stroke-opacity:1;stroke-dasharray:none;display:inline"
       d="m 988.78125,518.21875 c -4.21041,-6.52399 -9.3375,-12.1936 -15.9375,-16.15625 -22.23351,-13.34981 -47.08356,-19.55347 -72.53125,-22.90625 -8.76295,-1.15456 -17.64408,-1.65875 -26.5625,-1.625 -26.75526,0.10126 -53.8683,5.0987 -79.1875,12.375 -17.79435,5.11309 -36.30227,11.77335 -52.71875,20.21875 -12.95461,6.66587 -24.30009,16.69009 -35.6875,25.84375 -3.31294,2.4629 -6.70312,4.82713 -10.1875,7.03125 -0.72758,-0.41071 -1.45198,-0.82049 -2.1875,-1.21875 -13.80585,-7.48201 -26.47073,-10.88983 -42.09375,-11.8125 -21.13344,-1.24726 -44.26075,9.18487 -62.625,18.1875 -19.3015,9.46121 -47.52578,8.06559 -69.40625,5.875 -17.56846,-1.75808 -33.74999,-6.81999 -52.03125,-6.84375 -22.95859,-0.0284 -54.87142,10.91219 -74.4375,22.875 -9.17284,5.60788 -15.07614,12.15625 -25.90625,15.84375 -11.16256,3.80228 -22.94503,5.4373 -34.40625,8.0625 -20.83713,4.77479 -36.01229,4.09255 -56.4375,3.15625 -28.42585,-1.30298 -48.23569,22.20755 -74.875,19.59375 -23.61674,-2.3176 -46.18735,3.1985 -68.96875,8.625 -35.487668,8.45219 -73.245194,0.84638 -108.625,-3.53125 C 17.375827,620.9976 9.103804,620.95492 1.375,620.28125"
       id="svg_5-7-3" />
    <path
       id="path5215"
       d="m 988.78125,538.21875 c -4.21041,-6.52399 -9.3375,-12.1936 -15.9375,-16.15625 -22.23351,-13.34981 -47.08356,-19.55347 -72.53125,-22.90625 -8.76295,-1.15456 -17.64408,-1.65875 -26.5625,-1.625 -26.75526,0.10126 -53.8683,5.0987 -79.1875,12.375 -17.79435,5.11309 -36.30227,11.77335 -52.71875,20.21875 -12.95461,6.66587 -24.30009,16.69009 -35.6875,25.84375 -3.31294,2.4629 -6.70312,4.82713 -10.1875,7.03125 -0.72758,-0.41071 -1.45198,-0.82049 -2.1875,-1.21875 -13.80585,-7.48201 -26.47073,-10.88983 -42.09375,-11.8125 -21.13344,-1.24726 -44.26075,9.18487 -62.625,18.1875 -19.3015,9.46121 -47.52578,8.06559 -69.40625,5.875 -17.56846,-1.75808 -33.74999,-6.81999 -52.03125,-6.84375 -22.95859,-0.0284 -54.87142,10.91219 -74.4375,22.875 -9.17284,5.60788 -15.07614,12.15625 -25.90625,15.84375 -11.16256,3.80228 -22.94503,5.4373 -34.40625,8.0625 -20.83713,4.77479 -36.01229,4.09255 -56.4375,3.15625 -28.42585,-1.30298 -48.23569,22.20755 -74.875,19.59375 -23.61674,-2.3176 -46.18735,3.1985 -68.96875,8.625 -35.487668,8.45219 -73.245194,0.84638 -108.625,-3.53125 C 17.375827,640.9976 9.103804,640.95492 1.375,640.28125"
       style="fill:none;stroke:#007e00;stroke-width:5.4000001;stroke-miterlimit:4;stroke-opacity:1;stroke-dasharray:none;display:inline"
       inkscape:connector-curvature="0"
       sodipodi:nodetypes="ccssccccccccccccscccc" />
  </g>
  <g
     style="display:inline"
     inkscape:label="2-Red"
     id="layer2"
     inkscape:groupmode="layer">
    <path
       inkscape:original-d="m 539.21875,29.53125 c -11.44618,0 -21,9.553649 -21,21 0,11.44635 9.55382,21 21,21 11.44618,0 21,-9.553661 21,-21 0,-11.44634 -9.55352,-21 -21,-21 z m 116.90625,1.125 c -11.44644,0 -21,9.553651 -21,21 0,11.446348 9.55356,21 21,21 11.44643,0 20.96875,-9.553661 20.96875,-21 0,-11.44634 -9.52252,-21 -20.96875,-21 z m 141.28125,9.65625 c -11.44644,0 -21,9.553651 -21,21 0,11.446349 9.55356,21 21,21 11.44643,0 21,-9.55366 21,-21 0,-11.446339 -9.55357,-21 -21,-21 z m 99.875,44.96875 c -11.44624,0 -20.96875,9.553648 -20.96875,21 0,11.44634 9.52251,21 20.96875,21 11.44615,0 21,-9.55365 21,-21 0,-11.446359 -9.55377,-21 -21,-21 z M 443.875,90.25 c -10.51791,0 -19.3125,8.794597 -19.3125,19.3125 0,10.51789 8.79459,19.28125 19.3125,19.28125 10.5179,0 19.28125,-8.76336 19.28125,-19.28125 0,-10.517896 -8.76313,-19.3125 -19.28125,-19.3125 z m 277.5,23.28125 c -11.44634,0 -21,9.55367 -21,21 0,11.44633 9.55366,21 21,21 11.44633,0 21,-9.55364 21,-21 0,-11.44636 -9.55357,-21 -21,-21 z m -149.25,1.6875 c -10.5177,0 -19.3125,8.7946 -19.3125,19.3125 0,10.51789 8.7948,19.28125 19.3125,19.28125 10.5177,0 19.28125,-8.76336 19.28125,-19.28125 0,-10.5179 -8.76314,-19.3125 -19.28125,-19.3125 z"
       inkscape:path-effect="#path-effect18708"
       inkscape:connector-curvature="0"
       id="svg_12"
       d="m 560.03571,53.264464 c 0,0 0.62918,0.129106 0.26585,1.474423 -0.36333,1.345317 -1.68921,3.906845 -5.87655,8.77169 -2.09367,2.432422 -2.74611,2.385521 -2.58019,0.86137 0.16592,-1.52415 1.11663,-4.52555 2.0877,-8.002124 0.97107,-3.476574 1.95171,-7.428322 2.36867,-10.853171 0.41696,-3.424848 0.28222,-6.322796 -0.79511,-7.69177 -1.07732,-1.368973 -1.95106,7.76e-4 -2.81905,2.834061 -0.86799,2.833284 -1.77256,7.130104 -2.92122,11.615272 -1.14865,4.485168 -2.54684,9.158683 -4.05348,12.745358 -1.50664,3.586675 -3.09032,6.08651 -4.45621,6.224317 -1.3659,0.137807 -1.14889,-2.203987 -0.28156,-5.82212 0.86733,-3.618132 2.35015,-8.512602 3.61298,-13.480147 1.26283,-4.967545 2.30366,-10.008164 2.66026,-13.918593 0.3566,-3.91043 0.0598,-6.69067 -1.19574,-7.137458 -1.25553,-0.446787 -2.19824,1.880581 -3.14546,5.592721 -0.94722,3.71214 -1.94258,8.809052 -3.19203,13.901352 -1.24945,5.092299 -2.75284,10.179986 -4.27858,13.873677 -1.52574,3.69369 -3.0299,5.993385 -4.17386,5.509698 -1.14396,-0.483686 -0.79977,-3.268995 0.0955,-7.159797 0.89532,-3.890802 2.31178,-8.887096 3.47179,-13.792754 1.16002,-4.905658 2.06606,-9.720679 2.30642,-13.248934 0.24037,-3.528254 -0.15004,-5.769743 -1.49721,-5.528335 -1.34717,0.241407 -2.31548,2.737796 -3.22964,6.27224 -0.91416,3.534443 -1.80282,8.106941 -2.84165,12.500565 -1.03883,4.393625 -2.22288,8.608376 -3.40096,11.427328 -1.17807,2.818951 -2.31164,4.242102 -3.24851,3.052525 -0.93688,-1.189577 -0.74984,-3.881933 -0.1733,-7.138419 0.57655,-3.256485 1.5306,-7.0771 2.28323,-10.523192 0.75264,-3.446092 1.31183,-6.517661 1.28443,-8.276058 -0.0274,-1.758396 -0.61346,-2.203619 -2.23499,-0.397017 -3.24305,3.613203 -4.66651,7.364362 -5.31334,10.21222 -0.64682,2.847858 -0.49569,4.792415 -0.49569,4.792415 M 676.90477,48.87495 c 0,0 -0.0579,3.170827 -1.11689,7.084062 -1.05897,3.913234 -3.15986,8.568876 -6.7893,11.538506 -1.81471,1.484815 -2.1824,0.656598 -1.80632,-1.495867 0.37608,-2.152466 1.46623,-5.629179 2.51085,-9.441359 1.04461,-3.812179 2.03618,-7.959823 2.43785,-11.45415 0.40168,-3.494327 0.22811,-6.335337 -0.8882,-7.534245 -1.11631,-1.198909 -2.01004,0.373072 -2.90254,3.407911 -0.8925,3.034839 -1.82718,7.532535 -3.01251,12.185056 -1.18533,4.65252 -2.62592,9.459866 -4.15749,13.114003 -1.53158,3.654137 -3.11994,6.155066 -4.45019,6.194755 -1.33024,0.03969 -1.07428,-2.406985 -0.17915,-6.121596 0.89512,-3.71461 2.39439,-8.697158 3.66096,-13.729218 1.26657,-5.03206 2.29906,-10.113633 2.64382,-14.026293 0.34475,-3.912661 0.0341,-6.656409 -1.23452,-7.012821 -1.26858,-0.356412 -2.2141,2.027053 -3.16074,5.767789 -0.94665,3.740736 -1.93697,8.838743 -3.17465,13.911418 -1.23769,5.072676 -2.72194,10.120018 -4.22274,13.759424 -1.5008,3.639405 -2.97402,5.870874 -4.09295,5.311802 -1.11893,-0.559073 -0.78252,-3.353819 0.0886,-7.209765 0.87115,-3.855946 2.24877,-8.773091 3.37415,-13.576959 1.12538,-4.803868 2.00153,-9.49446 2.22096,-12.8973 0.21942,-3.40284 -0.18358,-5.517929 -1.54513,-5.17079 -1.36155,0.347138 -2.33576,2.829263 -3.24118,6.272992 -0.90543,3.443729 -1.76766,7.849062 -2.75594,12.042618 -0.98829,4.193557 -2.097,8.175336 -3.19646,10.771956 -1.09945,2.59662 -2.15278,3.808082 -3.05005,2.461003 -0.89727,-1.347078 -0.9964,-3.729489 -0.71945,-6.545374 0.27695,-2.815884 0.92407,-6.065243 1.60721,-9.146216 0.68315,-3.080974 1.40462,-5.993562 1.94531,-8.135908 0.54068,-2.142345 0.9111,-3.514447 0.9111,-3.514447 m 168.869,41.106947 c 0,0 2.20736,-4.564359 3.71759,-10.012153 0.75512,-2.723896 1.33665,-5.668651 1.46481,-8.37415 0.12816,-2.705498 -0.19456,-5.171739 -1.17391,-6.938608 -0.97935,-1.766869 -1.79782,-0.849162 -2.60291,1.541685 -0.80509,2.390847 -1.63726,6.254835 -2.70168,10.380528 -1.06442,4.125693 -2.36829,8.513091 -3.81704,11.950759 -1.44875,3.437669 -3.01631,5.925607 -4.45012,6.25238 -1.43381,0.326773 -1.30127,-1.795939 -0.50054,-5.201595 0.80072,-3.405657 2.23568,-8.094258 3.47815,-12.899263 1.24247,-4.805005 2.28936,-9.726414 2.66303,-13.597686 0.37367,-3.871272 0.10188,-6.692408 -1.12921,-7.296866 -1.23108,-0.604458 -2.16805,1.601223 -3.11256,5.227274 -0.94451,3.626052 -1.94132,8.672474 -3.19893,13.749497 -1.25761,5.077024 -2.77699,10.184649 -4.33053,13.933108 -1.55353,3.748458 -3.0984,6.13775 -4.28491,5.778106 -1.18651,-0.359644 -0.84073,-3.10725 0.0814,-7.021339 0.92217,-3.914089 2.38842,-8.994662 3.59539,-14.020239 1.20696,-5.025577 2.15617,-9.996159 2.42772,-13.690267 0.27155,-3.694108 -0.0992,-6.111742 -1.42529,-6.031424 -1.3261,0.08032 -2.28669,2.585132 -3.21325,6.235544 -0.92657,3.650412 -1.85233,8.446422 -2.96218,13.109133 -1.10985,4.662712 -2.39993,9.192125 -3.68839,12.309344 -1.28845,3.117218 -2.53432,4.822241 -3.52514,3.836173 -0.99082,-0.986068 -0.75641,-3.709039 -0.0859,-7.168333 0.67051,-3.459295 1.76042,-7.654914 2.63804,-11.58628 0.87763,-3.931365 1.54897,-7.598477 1.6201,-10.000757 0.0711,-2.402281 -0.42923,-3.53973 -1.91744,-2.411769 -1.48822,1.12796 -2.62723,3.121484 -3.55393,5.477293 -0.9267,2.355809 -1.64524,5.073903 -2.23099,7.651001 -1.17152,5.154197 -1.8261,9.744413 -1.8261,9.744413 m 139.58878,31.490605 c 0,0 -0.10146,1.323532 -0.3975,3.368232 -0.29604,2.0447 -0.79651,4.81057 -1.57204,7.69525 -0.77554,2.88468 -1.82776,5.88817 -3.11877,8.40811 -1.29101,2.51994 -2.8142,4.55634 -4.46049,5.50682 -1.6463,0.95049 -1.80407,-0.43121 -1.25178,-3.10038 0.55229,-2.66917 1.78414,-6.62583 2.91288,-10.82526 1.12875,-4.19943 2.14864,-8.64164 2.54469,-12.281924 0.39606,-3.640288 0.18727,-6.478654 -0.973,-7.470399 -1.16027,-0.991745 -2.07375,0.819187 -2.99104,4.088046 -0.91729,3.26886 -1.88286,7.995647 -3.10616,12.835617 -1.2233,4.83997 -2.70779,9.79312 -4.26249,13.5147 -1.5547,3.72158 -3.14206,6.2116 -4.42642,6.1253 -1.28437,-0.0863 -0.9862,-2.65362 -0.0655,-6.47044 0.92071,-3.81681 2.42906,-8.88312 3.69111,-13.96741 1.26206,-5.08428 2.27732,-10.186538 2.60337,-14.075242 0.32605,-3.888705 -0.003,-6.563858 -1.28912,-6.793937 -1.28589,-0.230078 -2.23527,2.213942 -3.17885,5.967465 -0.94359,3.753522 -1.9219,8.816544 -3.13442,13.824474 -1.21252,5.00794 -2.65755,9.96077 -4.11221,13.49392 -1.45467,3.53315 -2.87504,5.64661 -3.95817,4.97578 -1.08312,-0.67082 -0.76592,-3.46361 0.0608,-7.24323 0.82672,-3.77962 2.13756,-8.54608 3.20498,-13.16424 1.06742,-4.61817 1.89524,-9.088049 2.08107,-12.274516 0.18584,-3.186467 -0.23728,-5.089523 -1.62298,-4.574044 -1.38569,0.51548 -2.37095,2.970927 -3.26266,6.25983 -0.8917,3.288903 -1.71076,7.41126 -2.61513,11.26057 -0.90437,3.8493 -1.8872,7.42555 -2.85207,9.62223 -0.96486,2.19668 -1.87715,3.01379 -2.69706,1.34483 -0.81991,-1.66897 -1.00167,-3.91494 -0.86046,-6.34511 0.14121,-2.43017 0.60374,-5.04453 1.13038,-7.45027 1.05328,-4.811475 2.36285,-8.788471 2.36285,-8.788471 M 462.81821,106.00762 c 0,0 -0.0858,3.41494 -1.19069,7.46814 -0.55244,2.0266 -1.35902,4.21276 -2.48061,6.2114 -1.12159,1.99863 -2.55644,3.80974 -4.31702,5.08624 -1.76058,1.2765 -2.0873,0.36916 -1.69385,-1.77753 0.39344,-2.14669 1.47561,-5.53273 2.48659,-9.21363 1.01098,-3.68091 1.94329,-7.65667 2.28263,-10.98281 0.33934,-3.326145 0.10219,-6.002662 -1.04761,-7.085065 -1.14979,-1.082404 -2.0152,0.451055 -2.85506,3.355904 -0.83986,2.904851 -1.7,7.181091 -2.81689,11.584241 -1.11689,4.40316 -2.49476,8.93323 -3.97217,12.34575 -1.4774,3.41251 -3.01698,5.70748 -4.30766,5.64041 -1.29067,-0.0671 -1.04731,-2.41668 -0.2047,-5.91718 0.84262,-3.5005 2.24952,-8.15188 3.41062,-12.82248 1.1611,-4.67061 2.07582,-9.36043 2.32546,-12.937813 0.24965,-3.577383 -0.13197,-6.042323 -1.42132,-6.263158 -1.28935,-0.220836 -2.18957,2.022005 -3.05724,5.466746 -0.86767,3.444741 -1.7435,8.091385 -2.85124,12.678145 -1.10774,4.58677 -2.44535,9.11366 -3.81348,12.31889 -1.36812,3.20524 -2.72198,5.08882 -3.79025,4.38898 -1.06826,-0.69984 -0.80459,-3.29488 -0.0666,-6.75518 0.73796,-3.46029 1.92627,-7.78584 2.87544,-11.9467 0.94917,-4.16085 1.66377,-8.157006 1.76779,-10.958523 0.10402,-2.801517 -0.36949,-4.408392 -1.76502,-3.790678 -1.39553,0.617713 -2.34873,2.91329 -3.17776,5.879867 -0.82903,2.966574 -1.55204,6.604154 -2.32821,9.905864 -0.77616,3.30171 -1.59639,6.26756 -2.39289,7.89068 -0.79649,1.62312 -1.53294,1.90352 -2.25498,-0.16568 -1.44409,-4.1384 -1.16689,-8.05967 -0.55072,-10.94634 0.61616,-2.88666 1.594,-4.738726 1.594,-4.738726 m 314.23939,28.498896 c 0,0 -0.34885,4.82986 -1.79276,10.19002 -0.72195,2.68009 -1.71318,5.49275 -2.96304,7.90055 -1.24987,2.40779 -2.75344,4.41073 -4.43534,5.47135 -1.68189,1.06063 -1.88658,-0.19917 -1.3746,-2.75061 0.51198,-2.55145 1.71051,-6.39454 2.81938,-10.50053 1.10887,-4.10598 2.12196,-8.47484 2.51935,-12.07783 0.39739,-3.60298 0.19697,-6.44009 -0.95288,-7.48254 -1.14985,-1.04246 -2.05895,0.7105 -2.97069,3.92296 -0.91173,3.21246 -1.87032,7.88443 -3.08502,12.68 -1.2147,4.79556 -2.68927,9.71473 -4.23919,13.42158 -1.54993,3.70686 -3.13848,6.2014 -4.43471,6.14773 -1.29624,-0.0537 -1.00796,-2.59166 -0.0926,-6.38494 0.91539,-3.79328 2.42292,-8.84184 3.68729,-13.91665 1.26436,-5.07481 2.28484,-10.17587 2.61611,-14.07413 0.33126,-3.89827 0.007,-6.59375 -1.27454,-6.8574 -1.28138,-0.26365 -2.22973,2.16634 -3.17439,5.91969 -0.94466,3.75334 -1.92676,8.83003 -3.14705,13.85977 -1.22029,5.02974 -2.67731,10.01253 -4.14576,13.57808 -1.46845,3.56554 -2.9043,5.71383 -3.99739,5.07457 -1.0931,-0.63925 -0.76986,-3.43396 0.07,-7.23725 0.83991,-3.80329 2.17027,-8.61515 3.25451,-13.28873 1.08425,-4.67358 1.92598,-9.20887 2.1215,-12.459 0.19551,-3.25013 -0.22177,-5.21509 -1.60035,-4.74803 -1.37858,0.46706 -2.36041,2.92974 -3.25594,6.26345 -0.89554,3.33371 -1.72699,7.53845 -2.65588,11.48965 -0.92889,3.9512 -1.94875,7.64886 -2.95408,9.96839 -1.00532,2.31954 -1.96096,3.26096 -2.80644,1.69968 -0.84547,-1.56128 -1.00326,-3.84547 -0.82146,-6.39354 0.18179,-2.54806 0.70044,-5.36001 1.27553,-7.97679 1.15019,-5.23356 2.52076,-9.68649 2.52076,-9.68649 m -123.59011,30.49484 c 0,0 0.66159,-1.37559 1.53814,-3.52671 0.87655,-2.15112 1.95558,-5.07778 2.81211,-8.17992 0.85652,-3.10213 1.48773,-6.37975 1.60521,-9.23279 0.11747,-2.85304 -0.27192,-5.28151 -1.35013,-6.68534 -1.0782,-1.40384 -1.91348,-0.22645 -2.7163,2.33612 -0.80282,2.56256 -1.61768,6.5103 -2.67839,10.64716 -1.06071,4.13687 -2.37336,8.46285 -3.81587,11.78191 -1.4425,3.31905 -2.98254,5.63118 -4.33915,5.74033 -1.35661,0.10915 -1.17591,-2.07026 -0.37212,-5.42529 0.80378,-3.35503 2.19551,-7.88569 3.36149,-12.47906 1.16598,-4.59336 2.10433,-9.24943 2.37948,-12.85529 0.27515,-3.60585 -0.0815,-6.16149 -1.34881,-6.55398 -1.2673,-0.3925 -2.16282,1.76473 -3.03367,5.18687 -0.87086,3.42213 -1.76069,8.10917 -2.90008,12.77631 -1.1394,4.66713 -2.52766,9.31436 -3.95664,12.65686 -1.42898,3.3425 -2.85367,5.38028 -3.96998,4.82852 -1.11631,-0.55176 -0.82711,-3.14591 -0.0302,-6.70304 0.79697,-3.55713 2.07377,-8.07726 3.09863,-12.48097 1.02486,-4.40372 1.80116,-8.69102 1.94713,-11.78253 0.14598,-3.09151 -0.3037,-4.98722 -1.66604,-4.60773 -1.36234,0.37948 -2.29354,2.68173 -3.13215,5.83101 -0.8386,3.14927 -1.60909,7.14556 -2.49486,10.91314 -0.88576,3.76757 -1.8802,7.30642 -2.87758,9.54081 -0.99738,2.23439 -1.96002,3.16432 -2.82525,1.71404 -0.86524,-1.45028 -1.03525,-3.62745 -0.86752,-6.07743 0.16774,-2.44997 0.66991,-5.17275 1.22413,-7.71425 1.10846,-5.08299 2.41747,-9.44084 2.41747,-9.44084"
       style="fill:none;stroke:#ff4700;stroke-width:4.5;stroke-miterlimit:4;stroke-opacity:1;stroke-dasharray:none;display:inline" />
  </g>
  <g
     inkscape:label="3-Orange"
     id="layer3"
     inkscape:groupmode="layer"
     style="display:inline" />
  <g
     style="display:inline"
     inkscape:label="1-Black"
     id="layer1"
     inkscape:groupmode="layer">
    <path
       style="fill:none;stroke:#000000;stroke-width:5;stroke-miterlimit:10"
       inkscape:connector-curvature="0"
       stroke-miterlimit="10"
       d="m 818.41404,241.20928 c -3.71483,8.79948 -0.79346,24.62236 -1.13492,35.12551 -0.46989,14.4473 -7.25948,25.35341 -5.73409,40.03556 2.64793,25.48383 6.86901,49.23002 6.86901,75.79211"
       id="svg_7" />
    <path
       style="fill:none;stroke:#000000;stroke-width:5;stroke-miterlimit:10"
       inkscape:connector-curvature="0"
       stroke-miterlimit="10"
       d="m 861.54342,153.81522 c 4.36537,14.33384 5.67506,25.52476 5.67506,40.80055 0,14.32241 2.46292,25.16263 4.78502,38.3955 2.23024,12.71064 -7.45811,23.66789 -7.05512,37.45453 0.36561,12.50873 4.49583,23.29452 4.53993,36.57268"
       id="svg_8" />
    <path
       style="fill:none;stroke:#000000;stroke-width:5;stroke-miterlimit:10"
       inkscape:connector-curvature="0"
       stroke-miterlimit="10"
       d="m 804.79419,443.23693 c 4.10635,22.22531 -27.7004,26.23295 -40.91176,34.583 -11.13195,7.03586 -16.61961,14.39406 -30.39833,17.7138 -8.16067,1.96691 -17.99411,4.20739 -26.29872,4.45258"
       id="svg_9" />
    <path
       style="fill:none;stroke:#000000;stroke-width:5;stroke-miterlimit:10"
       inkscape:connector-curvature="0"
       stroke-miterlimit="10"
       d="m 839.97878,444.37185 c 5.894,9.54301 2.81245,20.90656 14.72521,24.99247 4.38339,1.50387 10.47946,-1.60486 14.81509,-0.16567 6.50459,2.15863 10.04009,10.22609 15.97716,13.52897 8.2924,4.61271 17.03283,0.16002 25.95725,2.39142 5.07797,1.2689 8.39192,4.82376 13.71174,5.78388 5.03692,0.90913 9.82993,-0.46419 14.69238,1.13845"
       id="svg_10" />
  </g>
  <g
     inkscape:label="8-Brown"
     id="layer8"
     inkscape:groupmode="layer"
     style="display:inline">
    <path
       id="svg_6"
       d="m 953.4402,474.74669 c 0,0 2.54098,6.60638 -3.28576,4.36539 -5.82674,-2.24099 0.51319,-7.57004 -5.24788,-10.81071 -5.76107,-3.24068 -0.57966,8.58064 -6.43827,6.80146 -5.85861,-1.77918 0.6704,-9.94552 -5.24364,-10.91658 -5.91404,-0.97106 -0.61563,9.14663 -6.50038,7.74896 -5.88474,-1.39767 0.58071,-8.63639 -5.42681,-8.21235 -6.00752,0.42405 -0.45849,6.82269 -6.36453,5.73776 -5.90603,-1.08493 1.18664,-17.74467 -4.3197,-24.93846 -5.50634,-7.19379 -1.58683,23.86065 -7.50996,23.028 -5.92314,-0.83266 2.09095,-31.21679 -2.17013,-58.31514 -2.13053,-13.54918 -3.03109,0.81713 -4.17436,18.51005 -1.14327,17.69292 -2.55076,38.71245 -5.52402,38.46972 -1.48663,-0.12137 -1.14365,-16.19573 0.0587,-40.64044 1.20237,-24.44471 3.24743,-57.25977 5.21318,-90.86252 1.96575,-33.60275 3.85062,-67.99319 4.9178,-95.58866 1.06717,-27.59548 1.33021,-48.39599 0.14765,-54.81889 -1.18257,-6.4229 -2.6101,7.95499 -4.26252,33.13265 -1.65242,25.17766 -3.55814,61.15509 -5.66275,97.93128 -2.10462,36.77619 -4.41024,74.35114 -6.59929,102.72383 -2.18905,28.37269 -4.23733,47.54312 -5.7299,47.51028 -1.49258,-0.0328 -0.92777,-19.35911 0.55063,-48.33042 1.4784,-28.97132 3.84592,-67.58769 6.04474,-106.20074 2.19883,-38.61304 4.22897,-77.22277 5.30211,-106.18081 1.07314,-28.95804 1.21376,-48.26439 -0.28072,-48.27067 -1.49449,-0.006 -3.12959,19.29395 -4.95002,48.25085 -1.82043,28.95691 -3.85071,67.57048 -6.04993,106.19087 -2.19922,38.62039 -4.56739,77.2476 -6.79405,106.23176 -2.22665,28.98417 -4.2873,48.32529 -5.78531,48.37353 -1.49802,0.0482 -0.93931,-19.1853 0.534,-48.06719 1.4733,-28.88188 3.83675,-67.41212 6.03316,-105.95731 2.19641,-38.54518 4.22574,-77.10531 5.2994,-106.04697 1.07366,-28.94166 1.21602,-48.26486 -0.27541,-48.33617 -1.49144,-0.0713 -3.12501,19.18074 -4.94484,48.10666 -1.81982,28.92591 -3.85046,67.52569 -6.05105,106.14984 -2.20058,38.62414 -4.57118,77.27265 -6.80133,106.29602 -2.23015,29.02337 -4.29541,48.4216 -5.79849,48.54518 -1.50308,0.12359 -0.9411,-19.14113 0.54174,-48.15399 1.48283,-29.01286 3.86179,-67.77387 6.07644,-106.64284 2.21465,-38.86897 4.26471,-77.8459 5.36096,-107.29064 1.09625,-29.44474 1.26286,-49.35727 -0.1974,-50.09743 -1.46027,-0.74016 -3.0848,18.43236 -4.91083,47.6196 -1.82603,29.18723 -3.87964,68.38918 -6.11458,107.70788 -2.23495,39.31869 -4.65153,78.75414 -6.92222,108.40836 -2.27069,29.65422 -4.37001,49.52722 -5.87782,49.72104 -1.50781,0.19381 -0.9102,-19.56136 0.6247,-49.38676 1.53491,-29.82539 3.98093,-69.721 6.25674,-109.80805 2.27582,-40.08704 4.38092,-80.36554 5.52074,-110.95669 1.13982,-30.59116 1.33953,-51.49499 -0.0937,-52.8327 -1.43324,-1.33772 -3.06181,18.22851 -4.91673,48.34656 -1.85492,30.11804 -3.96492,70.7879 -6.27498,111.65743 -2.31006,40.86953 -4.82073,81.93873 -7.17135,112.85547 -2.35063,30.91674 -4.51358,51.68101 -6.02585,51.94067 -1.51227,0.25967 -0.87875,-19.98252 0.6994,-50.4605 1.57815,-30.47797 4.07329,-71.19174 6.37942,-111.87524 2.30613,-40.6835 4.42332,-81.33673 5.54744,-111.69362 1.12411,-30.35689 1.28295,-50.41745 -0.23495,-49.91561 -1.51789,0.50184 -3.19618,21.06434 -5.08225,51.64592 -1.88607,30.58159 -4.00638,71.18225 -6.31133,111.76041 -2.30496,40.57816 -4.79449,81.13381 -7.124,111.62537 -2.32951,30.49156 -4.47242,50.91903 -5.98893,51.24082 -1.5165,0.32179 -0.88973,-19.77498 0.68406,-50.10117 1.57379,-30.3262 4.06718,-70.88182 6.37657,-111.47771 2.3094,-40.59589 4.43469,-81.23206 5.57137,-111.71936 1.13668,-30.4873 1.31195,-50.82573 -0.18281,-50.82614 -1.49476,-4.1e-4 -3.1647,20.3377 -5.05103,50.86888 -1.88633,30.53119 -4.01625,71.25546 -6.3366,112.02738 -2.32035,40.77192 -4.83126,81.59149 -7.18024,112.31327 -2.34897,30.72177 -4.50908,51.34576 -6.02963,51.72653 -1.52056,0.38077 -0.87001,-20.0042 0.73548,-50.75603 1.60548,-30.75183 4.13754,-71.87054 6.47669,-112.95726 2.33914,-41.08673 4.48547,-82.14147 5.62817,-112.76538 1.14271,-30.62391 1.31033,-50.81698 -0.21387,-50.18036 -1.52421,0.63661 -3.21802,21.46638 -5.12694,52.38026 -1.90893,30.91388 -4.05978,71.91186 -6.39871,112.88489 -2.33892,40.97304 -4.86585,81.92112 -7.22698,112.7352 -2.36113,30.81409 -4.52951,51.49417 -6.05397,51.9312 -1.52446,0.43703 -0.88881,-19.66913 0.69936,-50.02783 1.58817,-30.3587 4.1011,-70.96994 6.42546,-111.54307 2.32435,-40.57313 4.46023,-81.10814 5.59589,-111.31439 1.13567,-30.20624 1.29907,-50.08372 -0.23038,-49.34178 -1.52944,0.74193 -3.22457,21.3611 -5.12956,51.90343 -1.90499,30.54234 -4.04582,71.00783 -6.36939,111.44241 -2.32357,40.43459 -4.8298,80.83827 -7.17404,111.25697 -2.34424,30.4187 -4.50036,50.85243 -6.02885,51.34711 -1.5285,0.49468 -0.89943,-19.444 0.68468,-49.61295 1.58412,-30.16895 4.09582,-70.56816 6.42423,-110.99452 2.3284,-40.42637 4.47343,-80.87988 5.6223,-111.15744 1.14887,-30.27756 1.32888,-50.37916 -0.17894,-50.1017 -1.50781,0.27746 -3.19639,20.65612 -5.10318,51.10322 -1.90679,30.4471 -4.05836,70.96263 -6.39757,111.51382 -2.33922,40.55119 -4.86617,81.13804 -7.22919,111.72778 -2.36302,30.58974 -4.53571,51.18237 -6.069,51.74512 -1.53329,0.56274 -1.4603,-11.34503 -0.69029,-28.52839 0.77001,-17.18337 2.22706,-39.64232 3.51287,-60.18192 1.28582,-20.5396 2.40403,-39.15985 2.595,-48.66582 0.19097,-9.50596 -0.52804,-9.89764 -2.97465,6.0199 -4.89321,31.83508 -7.00849,65.23443 -8.70327,90.99841 -1.69479,25.76397 -2.9506,43.89258 -6.02909,45.18617 -3.0785,1.2936 -1.9243,-15.5251 -1.0363,-28.80693 0.888,-13.28182 1.52994,-23.02678 -2.48428,-7.58572 -8.02844,30.88213 -2.63522,38.96376 -8.82343,41.98874 -6.1882,3.02498 1.85434,-27.17907 -4.14125,-26.93443 -5.99559,0.24465 -2.03986,29.86049 -8.30086,33.91183 -3.13051,2.02567 -2.54284,-6.40404 -1.94756,-15.0833 0.59529,-8.67926 1.19754,-17.60807 -1.86137,-16.58061 -3.05891,1.02746 -3.66319,9.9738 -4.30332,19.28281 -0.64013,9.309 -1.31685,18.98067 -4.48031,21.4588 -3.16347,2.47812 -2.49502,-7.0256 -1.82022,-16.79506 0.67479,-9.76946 1.35511,-19.80467 -1.73048,-18.38952 -3.0856,1.41514 -3.77003,11.48865 -4.48729,21.83891 -0.71726,10.35027 -1.46795,20.97729 -4.63619,23.49945 -3.16824,2.52215 -2.41144,-8.13378 -1.63745,-19.25791 0.77399,-11.12414 1.5636,-22.71648 -1.47019,-22.06715 -3.0338,0.64934 -3.85785,12.73529 -4.68757,24.63169 -0.82973,11.8964 -1.66456,23.60324 -4.64635,23.49436 -2.9818,-0.10889 -2.12803,-12.08636 -1.29567,-24.02651 0.83237,-11.94014 1.64343,-23.84297 -1.34888,-23.80256 -2.99231,0.0404 -3.77781,11.56328 -4.55866,22.7754 -0.78085,11.21212 -1.55609,22.11348 -4.46025,20.91089 -2.90415,-1.2026 -2.12496,-12.19363 -1.40619,-22.53001 0.71876,-10.33638 1.37889,-20.01811 -1.7074,-18.6021 -3.08629,1.416 -3.74908,11.09903 -4.38537,20.23522 -0.63629,9.1362 -1.2448,17.72558 -4.17978,16.95429 -5.86997,-1.54258 -0.87733,-30.2769 -0.87733,-30.2769 M 786.11942,160.46568 c 0,0 -0.75183,15.98232 -1.53726,31.96463 -0.78544,15.98232 -1.60446,31.96463 -1.60446,31.96463"
       style="fill:none;stroke:#794700;stroke-width:4.5;stroke-miterlimit:4;stroke-opacity:1;stroke-dasharray:none"
       inkscape:connector-curvature="0"
       inkscape:path-effect="#path-effect18646"
       inkscape:original-d="m 854.9375,141.03125 c -0.15212,0.0682 -0.3168,0.1204 -0.46875,0.1875 -8.01998,3.50025 -16.76454,7.4102 -25.8125,6.4375 -3.17928,-0.34156 -6.37817,-0.97051 -9.46875,-1.9375 -2.1746,3.42316 -5.15559,6.36957 -8.875,8.4375 -7.98789,4.44121 -16.05767,6.76149 -24.78125,6.28125 -4.24537,22.59146 -3.17941,46.1902 -2.375,68.96875 0.46423,13.14093 0.9361,26.29442 0.28125,39.4375 -0.76042,15.25991 -2.95353,30.56104 -4.8125,45.71875 -0.44032,3.58776 -0.87837,7.16566 -1.34375,10.75 -0.067,0.505 -0.14321,0.92198 -0.1875,1.25 -0.20661,1.50945 -0.41513,3.02286 -0.625,4.53125 -1.08741,7.83365 -2.22758,15.65213 -3.4375,23.46875 -2.46185,15.91601 -5.22812,31.80116 -7.875,47.6875 -2.35625,14.13634 -4.21438,28.31456 -8.09375,42.125 -2.43219,8.65321 -4.12782,17.23026 -4.09375,25.71875 -11.45208,-2.17695 -22.13303,-0.65283 -32.625,5.5 -2.27663,1.33462 -4.54221,2.16836 -6.96875,3.1875 -1.72535,0.72531 -3.68159,1.29479 -5.5,1.6875 -1.40049,0.30307 -2.76011,0.77371 -4.15625,1.09375 -1.21552,0.27796 -2.03959,0.23722 -3.21875,0.0625 -2.84995,-0.41989 -6.02455,-0.19485 -8.90625,-0.21875 -14.54153,-0.12154 -26.6875,12.20913 -26.6875,26.65625 0,4.31198 1.04776,8.39181 2.90625,12 8.88992,1.87269 17.20745,4.97061 25.96875,9.71875 0.73552,0.39826 1.45992,0.80804 2.1875,1.21875 3.48438,-2.20412 6.87456,-4.56835 10.1875,-7.03125 11.38741,-9.15366 22.73289,-19.17788 35.6875,-25.84375 16.41648,-8.4454 34.9244,-15.10566 52.71875,-20.21875 25.3192,-7.2763 52.43224,-12.27374 79.1875,-12.375 8.91842,-0.0337 17.79955,0.47044 26.5625,1.625 20.14925,2.6547 39.91479,7.10726 58.3125,15.46875 -3.63665,-8.88321 -13.26273,-15.63296 -22,-17.84375 -6.34932,-1.60719 -12.76409,-1.52739 -19.15625,-0.75 -0.11813,-2.18706 -0.38006,-4.34216 -0.75,-6.375 -1.58436,-8.69401 -6.13817,-14.94767 -12.1875,-19.625 -0.92836,-14.83885 -3.5229,-29.6548 -6.09375,-44.40625 -0.0973,-0.56061 -0.18352,-1.09553 -0.28125,-1.65625 1.39705,-22.62595 3.1065,-45.2406 3.75,-67.90625 0.5744,-20.24926 1.40551,-40.36496 2.59375,-60.59375 1.26312,-21.49781 2.05979,-43.20958 -0.375,-64.65625 -1.64961,-14.52672 -4.40954,-30.21144 -10.9375,-43.75 -2.04923,0.75657 -4.17787,1.36511 -6.40625,1.78125 -13.34172,2.49125 -26.79306,-2.94287 -31.84375,-15.8125 z" />
    <path
       inkscape:connector-curvature="0"
       style="fill:none;stroke:#794700;stroke-width:4.5;stroke-miterlimit:4;stroke-opacity:1;stroke-dasharray:none"
       d="m 854.9375,141.03125 c -0.15212,0.0682 -0.3168,0.1204 -0.46875,0.1875 -8.01998,3.50025 -16.76454,7.4102 -25.8125,6.4375 -3.17928,-0.34156 -6.37817,-0.97051 -9.46875,-1.9375 -2.1746,3.42316 -5.15559,6.36957 -8.875,8.4375 -7.98789,4.44121 -16.05767,6.76149 -24.78125,6.28125 -4.24537,22.59146 -3.17941,46.1902 -2.375,68.96875 0.46423,13.14093 0.9361,26.29442 0.28125,39.4375 -0.76042,15.25991 -2.95353,30.56104 -4.8125,45.71875 -0.44032,3.58776 -0.87837,7.16566 -1.34375,10.75 -0.067,0.505 -0.14321,0.92198 -0.1875,1.25 -0.20661,1.50945 -0.41513,3.02286 -0.625,4.53125 -1.08741,7.83365 -2.22758,15.65213 -3.4375,23.46875 -2.46185,15.91601 -5.22812,31.80116 -7.875,47.6875 -2.35625,14.13634 -4.21438,28.31456 -8.09375,42.125 -2.43219,8.65321 -4.12782,17.23026 -4.09375,25.71875 -11.45208,-2.17695 -22.13303,-0.65283 -32.625,5.5 -2.27663,1.33462 -4.54221,2.16836 -6.96875,3.1875 -1.72535,0.72531 -3.68159,1.29479 -5.5,1.6875 -1.40049,0.30307 -2.76011,0.77371 -4.15625,1.09375 -1.21552,0.27796 -2.03959,0.23722 -3.21875,0.0625 -2.84995,-0.41989 -6.02455,-0.19485 -8.90625,-0.21875 -14.54153,-0.12154 -26.6875,12.20913 -26.6875,26.65625 0,4.31198 1.04776,8.39181 2.90625,12 8.88992,1.87269 17.20745,4.97061 25.96875,9.71875 0.73552,0.39826 1.45992,0.80804 2.1875,1.21875 3.48438,-2.20412 6.87456,-4.56835 10.1875,-7.03125 11.38741,-9.15366 22.73289,-19.17788 35.6875,-25.84375 16.41648,-8.4454 34.9244,-15.10566 52.71875,-20.21875 25.3192,-7.2763 52.43224,-12.27374 79.1875,-12.375 8.91842,-0.0337 17.79955,0.47044 26.5625,1.625 20.14925,2.6547 39.91479,7.10726 58.3125,15.46875 -3.63665,-8.88321 -13.26273,-15.63296 -22,-17.84375 -6.34932,-1.60719 -12.76409,-1.52739 -19.15625,-0.75 -0.11813,-2.18706 -0.38006,-4.34216 -0.75,-6.375 -1.58436,-8.69401 -6.13817,-14.94767 -12.1875,-19.625 -0.92836,-14.83885 -3.5229,-29.6548 -6.09375,-44.40625 -0.0973,-0.56061 -0.18352,-1.09553 -0.28125,-1.65625 1.39705,-22.62595 3.1065,-45.2406 3.75,-67.90625 0.5744,-20.24926 1.40551,-40.36496 2.59375,-60.59375 1.26312,-21.49781 2.05979,-43.20958 -0.375,-64.65625 -1.64961,-14.52672 -4.40954,-30.21144 -10.9375,-43.75 -2.04923,0.75657 -4.17787,1.36511 -6.40625,1.78125 -13.34172,2.49125 -26.79306,-2.94287 -31.84375,-15.8125 z"
       id="path18706" />
  </g>
  <g
     style="display:inline"
     inkscape:groupmode="layer"
     id="g6580"
     inkscape:label="4-Yellow copy" />
  <g
     inkscape:label="0-Water Wash"
     id="layer0"
     inkscape:groupmode="layer"
     style="display:inline">
    <path
       inkscape:connector-curvature="0"
       style="fill:none;stroke:#3c9a8c;stroke-width:1;stroke-opacity:1;display:inline"
       d="m 471.8256,7.281247 -2.03875,0.178368 M 420.99694,31.804575 701.45398,7.267763 M 931.1066,7.25216 669.937,30.101539 M 562.75377,39.478856 638.7526,32.82982 M 514.28984,43.718901 412.9354,52.586266 M 809.08909,38.003705 976.81013,23.330015 M 781.98734,40.374802 681.73589,49.145667 m -118.19537,10.340755 66.89967,-5.852963 m -113.76787,9.953398 -102.09873,8.93248 M 822.79643,56.880865 978.16332,43.288024 m -206.43852,18.061033 -98.03341,8.57681 m -216.04611,18.90158 184.02403,-16.10001 m 336.5034,-9.36384 -161.1793,14.10136 M 468.12142,107.98731 781.02071,80.612167 m 185.17443,3.87573 -50.43312,4.41233 M 589.36106,117.45661 875.56,92.417447 M 551.31111,120.78555 518.57027,123.65 m 404.29098,-15.29448 27.57582,-2.41257 m -78.20278,6.84186 -126.71714,11.08631 m -94.84268,8.29766 45.33534,-3.96633 m -55.72819,4.87558 -44.03776,3.85281 m 312.3502,-7.25071 23.468,-2.05318 m -41.48098,3.62912 -137.43663,12.02414"
       id="path3873-7" />
  </g>
</svg>
