<?xml version="1.0" encoding="UTF-8" standalone="no"?>
<!-- Created with Inkscape (http://www.inkscape.org/) -->

<svg
   xmlns:dc="http://purl.org/dc/elements/1.1/"
   xmlns:cc="http://creativecommons.org/ns#"
   xmlns:rdf="http://www.w3.org/1999/02/22-rdf-syntax-ns#"
   xmlns:svg="http://www.w3.org/2000/svg"
   xmlns="http://www.w3.org/2000/svg"
   xmlns:sodipodi="http://sodipodi.sourceforge.net/DTD/sodipodi-0.dtd"
   xmlns:inkscape="http://www.inkscape.org/namespaces/inkscape"
   width="990px"
   height="720px"
   id="svg10159"
   version="1.1"
   inkscape:version="0.48.5 r10040"
   sodipodi:docname="New document 12">
  <defs
     id="defs10161" />
  <sodipodi:namedview
     inkscape:document-units="in"
     pagecolor="#ffffff"
     bordercolor="#666666"
     borderopacity="1.0"
     inkscape:pageopacity="0.0"
     inkscape:pageshadow="2"
     inkscape:zoom="0.44255917"
     inkscape:cx="711.10535"
     inkscape:cy="235.07335"
     inkscape:current-layer="layer1"
     id="namedview10163"
     showgrid="false"
     inkscape:window-width="1436"
     inkscape:window-height="855"
     inkscape:window-x="0"
     inkscape:window-y="0"
     inkscape:window-maximized="1" />
  <metadata
     id="metadata10165">
    <rdf:RDF>
      <cc:Work
         rdf:about="">
        <dc:format>image/svg+xml</dc:format>
        <dc:type
           rdf:resource="http://purl.org/dc/dcmitype/StillImage" />
        <dc:title></dc:title>
      </cc:Work>
    </rdf:RDF>
  </metadata>
  <g
     inkscape:groupmode="layer"
     id="layer4"
     inkscape:label="4-Yellow" />
  <g
     inkscape:groupmode="layer"
     id="layer3"
     inkscape:label="3-Orange" />
  <g
     inkscape:groupmode="layer"
     id="layer2"
     inkscape:label="2-Red" />
  <g
     inkscape:groupmode="layer"
     id="layer5"
     inkscape:label="5-Green" />
  <g
     inkscape:groupmode="layer"
     id="layer6"
     inkscape:label="6-Blue" />
  <g
     inkscape:groupmode="layer"
     id="layer7"
     inkscape:label="7-Violet" />
  <g
     inkscape:groupmode="layer"
     id="layer8"
     inkscape:label="8-Brown" />
  <g
     inkscape:groupmode="layer"
     id="layer1"
     inkscape:label="1-Black">
    <g
       style="display:inline"
       transform="matrix(0.65398622,0,0,0.65397997,772.67859,-171.84821)"
       id="g32490">
      <g
         id="g32492"
         transform="matrix(-1.228254,1.228254,-0.40810606,-0.40810606,607.65759,1447.1573)">
        <path
           style="fill:none;stroke:#000000;stroke-width:1.52717149px;stroke-linecap:butt;stroke-linejoin:miter;stroke-opacity:1"
           d="m 72.436362,646.90513 0,376.14537"
           id="path32494"
           inkscape:connector-curvature="0" />
        <path
           inkscape:connector-curvature="0"
           id="path32496"
           d="m 81.803483,646.90513 0,376.14537"
           style="fill:none;stroke:#000000;stroke-width:1.52717149px;stroke-linecap:butt;stroke-linejoin:miter;stroke-opacity:1" />
        <path
           inkscape:connector-curvature="0"
           id="path32498"
           d="m 91.606285,646.90513 0,376.14537"
           style="fill:none;stroke:#000000;stroke-width:1.52717149px;stroke-linecap:butt;stroke-linejoin:miter;stroke-opacity:1" />
        <path
           style="fill:none;stroke:#000000;stroke-width:1.52717149px;stroke-linecap:butt;stroke-linejoin:miter;stroke-opacity:1"
           d="m 101.40909,646.90513 0,376.14537"
           id="path32500"
           inkscape:connector-curvature="0" />
      </g>
      <g
         transform="matrix(1.228254,1.228254,0.40810606,-0.40810606,-287.38779,1447.1573)"
         id="g32502">
        <path
           inkscape:connector-curvature="0"
           id="path32504"
           d="m 72.436362,646.90513 0,376.14537"
           style="fill:none;stroke:#000000;stroke-width:1.52717149px;stroke-linecap:butt;stroke-linejoin:miter;stroke-opacity:1" />
        <path
           style="fill:none;stroke:#000000;stroke-width:1.52717149px;stroke-linecap:butt;stroke-linejoin:miter;stroke-opacity:1"
           d="m 81.803483,646.90513 0,376.14537"
           id="path32506"
           inkscape:connector-curvature="0" />
        <path
           style="fill:none;stroke:#000000;stroke-width:1.52717149px;stroke-linecap:butt;stroke-linejoin:miter;stroke-opacity:1"
           d="m 91.606285,646.90513 0,376.14537"
           id="path32508"
           inkscape:connector-curvature="0" />
        <path
           inkscape:connector-curvature="0"
           id="path32510"
           d="m 101.40909,646.90513 0,376.14537"
           style="fill:none;stroke:#000000;stroke-width:1.52717149px;stroke-linecap:butt;stroke-linejoin:miter;stroke-opacity:1" />
      </g>
    </g>
    <g
       inkscape:label="Hershey Text"
       transform="matrix(1.3942615,0,0,1.3942615,7.4960618,30.297369)"
       id="g9622">
      <path
         d="M -10,-12 -5,9 M 0,-12 -5,9 M 0,-12 5,9 M 10,-12 5,9"
         style="fill:none;stroke:#000000;stroke-width:0.71722549"
         transform="translate(12,0)"
         id="path9624"
         inkscape:connector-curvature="0" />
      <path
         d="M 6,-5 6,9 M 6,-2 4,-4 2,-5 l -3,0 -2,1 -2,2 -1,3 0,2 1,3 2,2 2,1 3,0 2,-1 2,-2"
         style="fill:none;stroke:#000000;stroke-width:0.71722549"
         transform="translate(33,0)"
         id="path9626"
         inkscape:connector-curvature="0" />
      <path
         d="M 0,-12 0,5 1,8 3,9 5,9 m -8,-14 7,0"
         style="fill:none;stroke:#000000;stroke-width:0.71722549"
         transform="translate(48,0)"
         id="path9628"
         inkscape:connector-curvature="0" />
      <path
         d="M -6,1 6,1 6,-1 5,-3 4,-4 2,-5 l -3,0 -2,1 -2,2 -1,3 0,2 1,3 2,2 2,1 3,0 2,-1 2,-2"
         style="fill:none;stroke:#000000;stroke-width:0.71722549"
         transform="translate(64,0)"
         id="path9630"
         inkscape:connector-curvature="0" />
      <path
         d="m -3,-5 0,14 m 0,-8 1,-3 2,-2 2,-1 3,0"
         style="fill:none;stroke:#000000;stroke-width:0.71722549"
         transform="translate(80,0)"
         id="path9632"
         inkscape:connector-curvature="0" />
      <path
         d="m 8,-7 -1,-2 -2,-2 -2,-1 -4,0 -2,1 -2,2 -1,2 -1,3 0,5 1,3 1,2 2,2 2,1 L 3,9 5,8 7,6 8,4"
         style="fill:none;stroke:#000000;stroke-width:0.71722549"
         transform="translate(96,0)"
         id="path9634"
         inkscape:connector-curvature="0" />
      <path
         d="m -1,-5 -2,1 -2,2 -1,3 0,2 1,3 2,2 2,1 L 2,9 4,8 6,6 7,3 7,1 6,-2 4,-4 2,-5 -1,-5"
         style="fill:none;stroke:#000000;stroke-width:0.71722549"
         transform="translate(116,0)"
         id="path9636"
         inkscape:connector-curvature="0" />
      <path
         d="M 0,-12 0,9"
         style="fill:none;stroke:#000000;stroke-width:0.71722549"
         transform="translate(130,0)"
         id="path9638"
         inkscape:connector-curvature="0" />
      <path
         d="m -1,-5 -2,1 -2,2 -1,3 0,2 1,3 2,2 2,1 L 2,9 4,8 6,6 7,3 7,1 6,-2 4,-4 2,-5 -1,-5"
         style="fill:none;stroke:#000000;stroke-width:0.71722549"
         transform="translate(143,0)"
         id="path9640"
         inkscape:connector-curvature="0" />
      <path
         d="m -3,-5 0,14 m 0,-8 1,-3 2,-2 2,-1 3,0"
         style="fill:none;stroke:#000000;stroke-width:0.71722549"
         transform="translate(160,0)"
         id="path9642"
         inkscape:connector-curvature="0" />
      <path
         d="m -7,-12 0,21 m 0,-21 9,0 3,1 1,1 1,2 0,2 -1,2 -1,1 -3,1 m -9,0 9,0 3,1 L 6,0 7,2 7,5 6,7 5,8 2,9 -7,9"
         style="fill:none;stroke:#000000;stroke-width:0.71722549"
         transform="translate(177,0)"
         id="path9644"
         inkscape:connector-curvature="0" />
      <path
         d="m -1,-5 -2,1 -2,2 -1,3 0,2 1,3 2,2 2,1 L 2,9 4,8 6,6 7,3 7,1 6,-2 4,-4 2,-5 -1,-5"
         style="fill:none;stroke:#000000;stroke-width:0.71722549"
         transform="translate(196,0)"
         id="path9646"
         inkscape:connector-curvature="0" />
      <path
         d="M 0,-12 0,5 1,8 3,9 5,9 m -8,-14 7,0"
         style="fill:none;stroke:#000000;stroke-width:0.71722549"
         transform="translate(211,0)"
         id="path9648"
         inkscape:connector-curvature="0" />
    </g>
    <g
       id="g9814"
       transform="matrix(0.96562654,0,0,0.96562654,19.579761,-1.6911224)">
      <path
         transform="matrix(0.97826087,0,0,0.97826087,298.62823,209.82989)"
         d="m 559.13713,153.09708 c 0,197.29075 -159.93575,357.2265 -357.2265,357.2265 -197.2907497,0 -357.2265,-159.93575 -357.2265,-357.2265 0,-197.290753 159.9357503,-357.22651 357.2265,-357.22651 197.29075,0 357.2265,159.935757 357.2265,357.22651 z"
         sodipodi:ry="357.2265"
         sodipodi:rx="357.2265"
         sodipodi:cy="153.09708"
         sodipodi:cx="201.91063"
         id="path9806"
         style="fill:none;stroke:#350000;stroke-width:1.05861032;stroke-linecap:round;stroke-linejoin:round;stroke-miterlimit:4;stroke-opacity:1;stroke-dasharray:none"
         sodipodi:type="arc" />
      <path
         transform="translate(-3.8385151,-0.22034963)"
         inkscape:transform-center-y="10.278087"
         inkscape:transform-center-x="20.443565"
         d="M 579.68067,406.06538 C 391.4201,732.14224 989.09267,328.7962 716.59151,588.62553 444.09035,848.45485 875.41795,270.65123 540.75262,443.1832 206.08729,615.71516 926.94678,599.52506 557.22988,670.78215 187.51298,742.03925 862.75307,489.15321 487.93685,453.3626 113.12064,417.57199 728.29926,793.67808 378.74912,653.73931 29.198979,513.80054 733.9676,666.12162 438.002,433.3717 142.0364,200.62178 456.21929,849.61303 237.81561,542.90797 19.411927,236.20291 529.95003,745.37024 406.80203,389.55747 283.65403,33.744692 197.09033,749.57096 179.17474,373.4763 161.25914,-2.6183543 315.47448,701.7382 404.2427,335.83061 493.01092,-30.07698 33.18401,525.31453 221.44458,199.23767 409.70514,-126.83919 158.63544,549.07835 431.13659,289.24902 703.63775,29.419696 16.539414,248.04357 351.20474,75.511603 685.87007,-97.020363 109.22818,335.85913 478.94508,264.60204 848.66198,193.34494 152.44109,5.7896428 527.2573,41.580253 902.07351,77.370864 182.93917,129.77612 532.48931,269.71489 882.03945,409.65366 397.74122,-124.53333 693.70681,108.21659 989.67241,340.96651 356.36568,-3.7407672 574.76936,302.96429 793.17304,609.66935 674.55873,-101.54874 797.70673,254.26404 920.85473,610.07681 574.44602,-22.30087 592.36162,353.79379 610.27722,729.88845 895.00604,67.445981 806.23782,433.35357 717.46959,799.26116 767.94123,79.988514 579.68067,406.06538 z"
         inkscape:randomized="0"
         inkscape:rounded="1.65"
         inkscape:flatsided="false"
         sodipodi:arg2="0.80919811"
         sodipodi:arg1="0.52359878"
         sodipodi:r2="318.19647"
         sodipodi:r1="95.458939"
         sodipodi:cy="358.33591"
         sodipodi:cx="497.0108"
         sodipodi:sides="11"
         id="path9808"
         style="fill:none;stroke:#350000;stroke-width:1.03559709;stroke-linecap:round;stroke-linejoin:round;stroke-miterlimit:4;stroke-opacity:1;stroke-dasharray:none"
         sodipodi:type="star" />
      <path
         sodipodi:type="arc"
         style="fill:none;stroke:#350000;stroke-width:4.83278608;stroke-linecap:round;stroke-linejoin:round;stroke-miterlimit:4;stroke-opacity:1;stroke-dasharray:none"
         id="path9810"
         sodipodi:cx="201.91063"
         sodipodi:cy="153.09708"
         sodipodi:rx="357.2265"
         sodipodi:ry="357.2265"
         d="m 559.13713,153.09708 c 0,197.29075 -159.93575,357.2265 -357.2265,357.2265 -197.2907497,0 -357.2265,-159.93575 -357.2265,-357.2265 0,-197.290753 159.9357503,-357.22651 357.2265,-357.22651 197.29075,0 357.2265,159.935757 357.2265,357.22651 z"
         transform="matrix(0.21428571,0,0,0.21428571,452.88293,326.79225)" />
      <path
         sodipodi:type="star"
         style="fill:none;stroke:#350000;stroke-width:4.98954821;stroke-linecap:round;stroke-linejoin:round;stroke-miterlimit:4;stroke-opacity:1;stroke-dasharray:none"
         id="path9812"
         sodipodi:sides="8"
         sodipodi:cx="497.0108"
         sodipodi:cy="358.33591"
         sodipodi:r1="95.458939"
         sodipodi:r2="318.19647"
         sodipodi:arg1="0.52359878"
         sodipodi:arg2="0.91629786"
         inkscape:flatsided="false"
         inkscape:rounded="1.65"
         inkscape:randomized="0"
         d="M 579.68067,406.06538 C 387.54902,738.84715 995.57311,376.85347 690.71654,610.77814 385.85998,844.70281 892.88723,351.0875 521.71739,450.54216 150.54756,549.99682 836.45369,723.96659 455.47783,673.81016 74.501965,623.65374 782.0631,633.13742 449.28133,441.00577 116.49956,248.87413 478.49324,856.89821 244.56857,552.04165 10.643901,247.18508 504.25921,754.21233 404.80455,383.0425 305.34989,11.872662 131.38012,697.7788 181.53655,316.80293 231.69297,-64.172931 222.20929,643.38821 414.34094,310.60644 606.47258,-22.175332 -1.5515003,339.81834 303.30506,105.89367 608.16163,-128.031 101.13438,365.58431 472.30421,266.12965 843.47405,166.675 157.56791,-7.2947758 538.54378,42.86165 919.51964,93.018076 211.9585,83.534396 544.74027,275.66604 877.52204,467.79769 515.52837,-140.2264 749.45304,164.63017 983.37771,469.48673 489.7624,-37.54052 589.21706,333.62932 c 99.45465,371.16983 273.42443,-314.736302 223.268,66.23956 -50.15643,380.97587 -40.67275,-326.585273 -232.80439,6.1965 z"
         inkscape:transform-center-x="4.2430937"
         inkscape:transform-center-y="2.1332653"
         transform="matrix(0.20755137,0,0,0.20755514,392.99422,285.22431)" />
    </g>
    <path
       sodipodi:type="spiral"
       style="fill:none;stroke:#000000;stroke-width:1px;stroke-linecap:butt;stroke-linejoin:miter;stroke-opacity:1"
       id="path10710"
       sodipodi:cx="877.53467"
       sodipodi:cy="99.845917"
       sodipodi:expansion="1.04"
       sodipodi:revolution="20"
       sodipodi:radius="95.755989"
       sodipodi:argument="-57.072266"
       sodipodi:t0="2.4286129e-17"
       d="m 877.53467,99.845917 c 0.51582,-0.297812 0.65431,0.564833 0.50225,0.869923 -0.43813,0.87906 -1.66927,0.71645 -2.29102,0.16282 -1.13626,-1.011774 -0.82532,-2.80894 0.21432,-3.75977 1.54856,-1.416276 3.9855,-0.939175 5.25257,0.603469 1.70797,2.079443 1.05582,5.182581 -0.99988,6.762431 -2.61049,2.00621 -6.39383,1.17421 -8.28563,-1.40145 -2.3087,-3.143276 -1.2938,-7.615931 1.80704,-9.819838 3.67817,-2.614241 8.84683,-1.414287 11.3634,2.215896 2.92214,4.21524 1.53547,10.085182 -2.62752,12.915132 -4.7544,3.23197 -11.32999,1.65724 -14.4741,-3.04153 -3.54344,-5.29554 -1.77952,-12.580491 3.45764,-16.039588 5.83854,-3.856304 13.83611,-1.902236 17.61099,3.875633 4.17043,6.38329 2.02535,15.096385 -4.29532,19.187835 -6.92968,4.48566 -16.36091,2.14881 -20.76968,-4.71658 -4.80193,-7.4776 -2.27261,-17.62935 5.13924,-22.356183 8.02698,-5.119122 18.90145,-2.3967 23.94705,5.563244 5.43718,8.577721 2.52108,20.176949 -5.98847,25.541979 -9.12977,5.75606 -21.45565,2.64573 -27.14077,-6.41485 -6.07569,-9.68304 -2.77063,-22.737353 6.84231,-28.74318 10.2375,-6.39603 24.02191,-2.895766 30.34905,7.270788 6.71704,10.793069 3.02113,25.309172 -7.70024,31.958192 -11.3497,7.0387 -26.599,3.14671 -33.57046,-8.13059 -7.36096,-11.90738 -3.2725,-27.891287 8.56183,-35.185723 12.46602,-7.683797 29.18591,-3.398482 36.80384,8.993896 8.00719,13.025608 3.52465,30.482777 -9.42676,38.424687 -13.58611,8.33112 -31.7818,3.65102 -40.04819,-9.86038 -8.65555,-14.14747 -3.77755,-33.082884 10.29474,-41.674212 14.70969,-8.980472 34.38597,-3.904255 43.30269,10.729793 9.30587,15.272716 4.03112,35.690979 -11.16553,44.933529 -15.83653,9.63172 -36.99784,4.15815 -46.56664,-11.60192 -9.95801,-16.40111 -4.28534,-38.306498 12.03893,-48.201964 16.96643,-10.28473 39.6169,-4.412671 49.83943,12.476557 10.61186,17.53246 4.54015,40.928977 -12.91477,51.478967 -18.09919,10.93939 -42.24269,4.66777 -53.12051,-13.35356 -11.26731,-18.6666 -4.79553,-43.557979 13.7929,-54.76401 19.23465,-11.59561 44.87481,-4.923425 56.4094,14.232775 11.92428,19.803361 5.05145,46.193145 -14.67317,58.056655 -20.37269,12.2533 -47.51293,5.1796 -59.7057,-15.11408 -12.58267,-20.94262 -5.30788,-48.834141 15.55548,-61.356507 21.51314,-12.912372 50.15673,-5.436277 63.00902,15.997366 13.24241,22.084251 5.56479,51.480671 -16.43972,64.663201 -22.65592,13.57277 -52.80593,5.69343 -66.31901,-16.88253 -13.90345,-23.22814 -5.82218,-54.132477 17.32578,-67.976412 23.8009,-14.234436 55.46028,-5.951035 69.63537,17.769473 14.56573,24.374187 6.08001,56.789319 -18.21359,71.295859 -24.94799,14.8973 -58.11955,6.20907 -72.95782,-18.65813 -15.22917,-25.52229 -6.33826,-59.450958 19.10306,-74.621251 26.0971,-15.561324 60.78353,-6.467538 76.28611,19.548404 15.89375,26.672388 6.59692,62.117217 -19.99413,77.952367 -27.24815,16.22645 -63.45202,6.7264 -79.61999,-20.44025 -16.55942,-27.82438 -6.85598,-64.787894 20.88673,-81.288957 28.40106,-16.892646 66.12484,-6.985654 82.95925,21.333582 17.22613,28.978201 7.11542,67.462835 -21.7808,84.630835 -29.55577,17.55986 -68.80184,7.24528 -86.30368,-22.22836 -17.89385,-30.13379 -7.37524,-70.141869 22.67627,-87.977793 30.71221,-18.228067 71.48287,-7.50527 89.65312,23.124523 18.56253,31.291069 7.63539,72.82485 -23.57311,91.32966 -31.87033,18.89722 -74.16779,7.7656 -93.00738,-24.02203 -19.23215,-32.44999 -7.8959,-75.511657 24.47126,-94.686257 33.03006,-19.567303 76.85646,-8.026286 96.36629,24.920815 19.90268,33.610512 8.15675,78.202152 -25.37068,98.047442 -34.19135,20.23828 -79.54875,8.2873 -99.72971,-25.82085 -20.57409,-34.77257 -8.41792,-80.896225 26.27133,-101.413072 35.35415,-20.910108 82.24456,-8.548618 103.0975,26.722099 21.24635,35.936114 8.6794,83.593763 -27.17316,104.783003 -36.51843,21.58278 -84.94379,8.81025 -106.46954,-27.62452 -21.91942,-37.1011 -8.94118,-86.294647 28.07615,-108.157101 37.68414,-22.2562661 87.64633,-9.072189 109.84569,28.528065 22.5933,38.267505 9.20326,88.998806 -28.98026,111.535266 -38.85122,22.93054 -90.35207,9.33442 -113.22582,-29.43272 -23.26797,-39.43527 -9.46564,-91.706129 29.88544,-114.917361 40.01965,-23.6055862 93.06095,-9.596933 116.60986,30.338439 23.94339,40.604362 9.72829,94.416532 -30.7917,118.303292 -41.18939,24.28138 -95.77287,9.85973 -119.99766,-31.2452 C 776.44633,102.22035 791.07466,46.865155 832.76484,22.302142 875.12526,-2.655756 931.25259,12.179355 956.154,54.455119 981.45043,97.401514 966.40842,154.30139 923.54677,179.54138 880.01408,205.1765 822.34125,189.92749 796.76252,146.47964 770.78852,102.36037 786.24465,43.914182 830.27901,17.996536 874.98516,-8.3165154 934.2051,7.3468349 960.46183,51.967998"
       transform="translate(1.1093991,14.422188)" />
    <g
       id="g10754"
       transform="matrix(0,1.7174546,-1.7174546,0,881.08629,461.77903)">
      <path
         sodipodi:nodetypes="ccccccccccccccc"
         inkscape:connector-curvature="0"
         id="path10744"
         d="m -147.55008,490.88008 19.33524,-32.58885 19.33524,32.58885 19.335243,-32.58885 19.33524,32.58885 19.335241,-32.58885 19.335241,32.58885 19.335242,-32.58885 19.3352407,32.58885 19.3352413,-32.58885 19.335242,32.58885 19.335239,-32.58885 19.335239,32.58885 19.335241,-32.58885 19.33524,32.58885"
         style="fill:none;stroke:#000000;stroke-width:0.58225697px;stroke-linecap:butt;stroke-linejoin:miter;stroke-opacity:1" />
      <path
         style="fill:none;stroke:#000000;stroke-width:0.58225697px;stroke-linecap:butt;stroke-linejoin:miter;stroke-opacity:1"
         d="m -147.55008,481.8801 19.33524,-32.58885 19.33524,32.58885 19.335243,-32.58885 19.33524,32.58885 19.335241,-32.58885 19.335241,32.58885 19.335242,-32.58885 19.3352407,32.58885 19.3352413,-32.58885 19.335242,32.58885 19.335239,-32.58885 19.335239,32.58885 19.335241,-32.58885 19.33524,32.58885"
         id="path10746"
         inkscape:connector-curvature="0"
         sodipodi:nodetypes="ccccccccccccccc" />
      <path
         sodipodi:nodetypes="ccccccccccccccc"
         inkscape:connector-curvature="0"
         id="path10748"
         d="m -147.55008,472.88008 19.33524,-32.58885 19.33524,32.58885 19.335243,-32.58885 19.33524,32.58885 19.335241,-32.58885 19.335241,32.58885 19.335242,-32.58885 19.3352407,32.58885 19.3352413,-32.58885 19.335242,32.58885 19.335239,-32.58885 19.335239,32.58885 19.335241,-32.58885 19.33524,32.58885"
         style="fill:none;stroke:#000000;stroke-width:0.58225697px;stroke-linecap:butt;stroke-linejoin:miter;stroke-opacity:1" />
      <path
         style="fill:none;stroke:#000000;stroke-width:0.58225697px;stroke-linecap:butt;stroke-linejoin:miter;stroke-opacity:1"
         d="m -147.55008,463.88008 19.33524,-32.58885 19.33524,32.58885 19.335243,-32.58885 19.33524,32.58885 19.335241,-32.58885 19.335241,32.58885 19.335242,-32.58885 19.3352407,32.58885 19.3352413,-32.58885 19.335242,32.58885 19.335239,-32.58885 19.335239,32.58885 19.335241,-32.58885 19.33524,32.58885"
         id="path10750"
         inkscape:connector-curvature="0"
         sodipodi:nodetypes="ccccccccccccccc" />
      <path
         sodipodi:nodetypes="ccccccccccccccc"
         inkscape:connector-curvature="0"
         id="path10752"
         d="m -147.55008,499.88008 19.33524,-32.58885 19.33524,32.58885 19.335243,-32.58885 19.33524,32.58885 19.335241,-32.58885 19.335241,32.58885 19.335242,-32.58885 19.3352407,32.58885 19.3352413,-32.58885 19.335242,32.58885 19.335239,-32.58885 19.335239,32.58885 19.335241,-32.58885 19.33524,32.58885"
         style="fill:none;stroke:#000000;stroke-width:0.58225697px;stroke-linecap:butt;stroke-linejoin:miter;stroke-opacity:1" />
    </g>
    <g
       transform="matrix(0,0.7374566,-0.7374566,0,1220.7538,390.6798)"
       id="g10761">
      <path
         style="fill:none;stroke:#000000;stroke-width:1.35601187px;stroke-linecap:butt;stroke-linejoin:miter;stroke-opacity:1"
         d="m -147.55008,490.88008 19.33524,-32.58885 19.33524,32.58885 19.335243,-32.58885 19.33524,32.58885 19.335241,-32.58885 19.335241,32.58885 19.335242,-32.58885 19.3352407,32.58885 19.3352413,-32.58885 19.335242,32.58885 19.335239,-32.58885 19.335239,32.58885 19.335241,-32.58885 19.33524,32.58885"
         id="path10763"
         inkscape:connector-curvature="0"
         sodipodi:nodetypes="ccccccccccccccc" />
      <path
         sodipodi:nodetypes="ccccccccccccccc"
         inkscape:connector-curvature="0"
         id="path10765"
         d="m -147.55008,481.8801 19.33524,-32.58885 19.33524,32.58885 19.335243,-32.58885 19.33524,32.58885 19.335241,-32.58885 19.335241,32.58885 19.335242,-32.58885 19.3352407,32.58885 19.3352413,-32.58885 19.335242,32.58885 19.335239,-32.58885 19.335239,32.58885 19.335241,-32.58885 19.33524,32.58885"
         style="fill:none;stroke:#000000;stroke-width:1.35601187px;stroke-linecap:butt;stroke-linejoin:miter;stroke-opacity:1" />
      <path
         style="fill:none;stroke:#000000;stroke-width:1.35601187px;stroke-linecap:butt;stroke-linejoin:miter;stroke-opacity:1"
         d="m -147.55008,472.88008 19.33524,-32.58885 19.33524,32.58885 19.335243,-32.58885 19.33524,32.58885 19.335241,-32.58885 19.335241,32.58885 19.335242,-32.58885 19.3352407,32.58885 19.3352413,-32.58885 19.335242,32.58885 19.335239,-32.58885 19.335239,32.58885 19.335241,-32.58885 19.33524,32.58885"
         id="path10767"
         inkscape:connector-curvature="0"
         sodipodi:nodetypes="ccccccccccccccc" />
      <path
         sodipodi:nodetypes="ccccccccccccccc"
         inkscape:connector-curvature="0"
         id="path10769"
         d="m -147.55008,463.88008 19.33524,-32.58885 19.33524,32.58885 19.335243,-32.58885 19.33524,32.58885 19.335241,-32.58885 19.335241,32.58885 19.335242,-32.58885 19.3352407,32.58885 19.3352413,-32.58885 19.335242,32.58885 19.335239,-32.58885 19.335239,32.58885 19.335241,-32.58885 19.33524,32.58885"
         style="fill:none;stroke:#000000;stroke-width:1.35601187px;stroke-linecap:butt;stroke-linejoin:miter;stroke-opacity:1" />
      <path
         style="fill:none;stroke:#000000;stroke-width:1.35601187px;stroke-linecap:butt;stroke-linejoin:miter;stroke-opacity:1"
         d="m -147.55008,499.88008 19.33524,-32.58885 19.33524,32.58885 19.335243,-32.58885 19.33524,32.58885 19.335241,-32.58885 19.335241,32.58885 19.335242,-32.58885 19.3352407,32.58885 19.3352413,-32.58885 19.335242,32.58885 19.335239,-32.58885 19.335239,32.58885 19.335241,-32.58885 19.33524,32.58885"
         id="path10771"
         inkscape:connector-curvature="0"
         sodipodi:nodetypes="ccccccccccccccc" />
    </g>
  </g>
  <g
     inkscape:groupmode="layer"
     id="layer0"
     inkscape:label="0-Water Wash" />
</svg>
