<?xml version="1.0" encoding="UTF-8" standalone="no"?>
<!-- Created with Inkscape (http://www.inkscape.org/) -->

<svg
   xmlns:dc="http://purl.org/dc/elements/1.1/"
   xmlns:cc="http://creativecommons.org/ns#"
   xmlns:rdf="http://www.w3.org/1999/02/22-rdf-syntax-ns#"
   xmlns:svg="http://www.w3.org/2000/svg"
   xmlns="http://www.w3.org/2000/svg"
   xmlns:sodipodi="http://sodipodi.sourceforge.net/DTD/sodipodi-0.dtd"
   xmlns:inkscape="http://www.inkscape.org/namespaces/inkscape"
   width="990"
   height="720"
   sodipodi:docname="Beach Scene3.svg"
   id="svg126782"
   version="1.1"
   inkscape:version="0.48.1 r9760">
  <sodipodi:namedview
     id="base"
     pagecolor="#ffffff"
     bordercolor="#666666"
     borderopacity="1.0"
     inkscape:pageopacity="0.0"
     inkscape:pageshadow="2"
     inkscape:zoom="0.8102265"
     inkscape:cx="768.53712"
     inkscape:cy="409.96071"
     inkscape:document-units="in"
     inkscape:current-layer="layer5"
     inkscape:window-width="1676"
     inkscape:window-height="1006"
     showgrid="false"
     units="in"
     inkscape:window-x="0"
     inkscape:window-y="0"
     inkscape:window-maximized="1" />
  <defs
     id="defs6412">
    <inkscape:path-effect
       back_thickness="0.25"
       front_thickness="1"
       stroke_width_bottom="1"
       stroke_width_top="1"
       fat_output="true"
       bottom_smth_variation="0;1"
       top_smth_variation="0;1"
       scale_tb="1"
       scale_tf="1"
       scale_bb="1"
       scale_bf="1"
       top_tgt_variation="0;1"
       bottom_tgt_variation="0;1"
       top_edge_variation="35.083637;1"
       bottom_edge_variation="35.083637;1"
       bender="497.25242,191.16259 , -46.490911,-82.622988"
       do_bend="true"
       growth="0"
       dist_rdm="75;1"
       direction="468.45242,146.08554 , -3.6621341,-201.89515"
       is_visible="true"
       id="path-effect94016"
       effect="rough_hatches" />
    <inkscape:path-effect
       effect="rough_hatches"
       id="path-effect93462"
       is_visible="true"
       direction="488.64592,276.50267 , -60.436382,-235.54806"
       dist_rdm="75;1"
       growth="0"
       do_bend="true"
       bender="488.64592,278.46596 , 5,0"
       bottom_edge_variation="35.083637;1"
       top_edge_variation="35.083637;1"
       bottom_tgt_variation="0;1"
       top_tgt_variation="0;1"
       scale_bf="1"
       scale_bb="1"
       scale_tf="1"
       scale_tb="1"
       top_smth_variation="0;1"
       bottom_smth_variation="0;1"
       fat_output="true"
       stroke_width_top="1"
       stroke_width_bottom="1"
       front_thickness="1"
       back_thickness="0.25" />
    <inkscape:path-effect
       back_thickness="0.25"
       front_thickness="1"
       stroke_width_bottom="1"
       stroke_width_top="1"
       fat_output="true"
       bottom_smth_variation="0;1"
       top_smth_variation="0;1"
       scale_tb="1"
       scale_tf="1"
       scale_bb="1"
       scale_bf="1"
       top_tgt_variation="0;1"
       bottom_tgt_variation="0;1"
       top_edge_variation="35.083637;1"
       bottom_edge_variation="35.083637;1"
       bender="487.41814,630.17506 , 5,0"
       do_bend="true"
       growth="0"
       dist_rdm="75;1"
       direction="487.41814,628.21177 , -60.436382,-235.54806"
       is_visible="true"
       id="path-effect126972"
       effect="rough_hatches" />
    <inkscape:path-effect
       effect="rough_hatches"
       id="path-effect126968"
       is_visible="true"
       direction="487.41814,439.85764 , 1.5272545,-66.717302"
       dist_rdm="75;1"
       growth="0"
       do_bend="true"
       bender="487.41814,442.40588 , 5,0"
       bottom_edge_variation="0;1"
       top_edge_variation="0;1"
       bottom_tgt_variation="0.9;654207591"
       top_tgt_variation="0;-547591043"
       scale_bf="1"
       scale_bb="1"
       scale_tf="1"
       scale_tb="1"
       top_smth_variation="0;1"
       bottom_smth_variation="0;1"
       fat_output="false"
       stroke_width_top="1"
       stroke_width_bottom="1"
       front_thickness="1"
       back_thickness="0.25" />
    <inkscape:path-effect
       effect="rough_hatches"
       id="path-effect126942"
       is_visible="true"
       direction="486.54544,240.67273 , 59.563631,148.36364"
       dist_rdm="75;1"
       growth="0"
       do_bend="true"
       bender="486.54544,245.67273 , 5,0"
       bottom_edge_variation="45.992728;1"
       top_edge_variation="45.992728;1"
       bottom_tgt_variation="0;1"
       top_tgt_variation="0;1"
       scale_bf="1"
       scale_bb="1"
       scale_tf="1"
       scale_tb="1"
       top_smth_variation="0;1"
       bottom_smth_variation="0;1"
       fat_output="true"
       stroke_width_top="1"
       stroke_width_bottom="1"
       front_thickness="1"
       back_thickness="0.25" />
    <inkscape:path-effect
       effect="rough_hatches"
       id="path-effect126942-5"
       is_visible="true"
       direction="502.54544,189.88326 , 118.90909,98.619547"
       dist_rdm="75;1"
       growth="0"
       do_bend="true"
       bender="502.54544,192.73189 , 5,0"
       bottom_edge_variation="45.992728;1"
       top_edge_variation="45.992728;1"
       bottom_tgt_variation="0;1"
       top_tgt_variation="0;1"
       scale_bf="1"
       scale_bb="1"
       scale_tf="1"
       scale_tb="1"
       top_smth_variation="0;1"
       bottom_smth_variation="0;1"
       fat_output="true"
       stroke_width_top="1"
       stroke_width_bottom="1"
       front_thickness="1"
       back_thickness="0.25" />
    <inkscape:path-effect
       back_thickness="0.25"
       front_thickness="1"
       stroke_width_bottom="1"
       stroke_width_top="1"
       fat_output="true"
       bottom_smth_variation="0;1"
       top_smth_variation="0;1"
       scale_tb="1"
       scale_tf="1"
       scale_bb="1"
       scale_bf="1"
       top_tgt_variation="0;1"
       bottom_tgt_variation="0;1"
       top_edge_variation="35.083637;1"
       bottom_edge_variation="35.083637;1"
       bender="488.64592,630.17506 , 5,0"
       do_bend="true"
       growth="0"
       dist_rdm="75;1"
       direction="488.64592,628.21177 , -60.436382,-235.54806"
       is_visible="true"
       id="path-effect126972-0"
       effect="rough_hatches" />
    <inkscape:path-effect
       effect="rough_hatches"
       id="path-effect126968-2"
       is_visible="true"
       direction="494.62453,429.68342 , 1.5272545,-58.901834"
       dist_rdm="75;1"
       growth="0"
       do_bend="true"
       bender="494.62453,431.93315 , 5,0"
       bottom_edge_variation="0;1"
       top_edge_variation="0;1"
       bottom_tgt_variation="0.9;654207591"
       top_tgt_variation="0;547591044"
       scale_bf="1"
       scale_bb="1"
       scale_tf="1"
       scale_tb="1"
       top_smth_variation="0;1"
       bottom_smth_variation="0;1"
       fat_output="false"
       stroke_width_top="1"
       stroke_width_bottom="1"
       front_thickness="1"
       back_thickness="0.25" />
    <inkscape:path-effect
       effect="rough_hatches"
       id="path-effect126968-2-3"
       is_visible="true"
       direction="494.59621,460.34285 , 0.65452723,-179.52459"
       dist_rdm="75;1"
       growth="0"
       do_bend="true"
       bender="494.59621,463.49212 , 5,0"
       bottom_edge_variation="0;1"
       top_edge_variation="0;1"
       bottom_tgt_variation="0.9;654207591"
       top_tgt_variation="0;547591044"
       scale_bf="1"
       scale_bb="1"
       scale_tf="1"
       scale_tb="1"
       top_smth_variation="0;1"
       bottom_smth_variation="0;1"
       fat_output="false"
       stroke_width_top="1"
       stroke_width_bottom="1"
       front_thickness="1"
       back_thickness="0.25" />
    <inkscape:path-effect
       effect="rough_hatches"
       id="path-effect126968-2-2"
       is_visible="true"
       direction="494.63362,350.70804 , 3.3114215,-101.54201"
       dist_rdm="0;1"
       growth="0"
       do_bend="true"
       bender="494.63362,360.6805 , 5.0591445,0"
       bottom_edge_variation="0;1"
       top_edge_variation="0;1"
       bottom_tgt_variation="0;654207591"
       top_tgt_variation="0;547591044"
       scale_bf="1"
       scale_bb="1"
       scale_tf="1"
       scale_tb="1"
       top_smth_variation="0;1"
       bottom_smth_variation="0;1"
       fat_output="false"
       stroke_width_top="1"
       stroke_width_bottom="1"
       front_thickness="1"
       back_thickness="0.25" />
    <inkscape:path-effect
       effect="rough_hatches"
       id="path-effect93462-7"
       is_visible="true"
       direction="488.64592,47.726961 , -60.436382,-80.972209"
       dist_rdm="75;1"
       growth="0"
       do_bend="true"
       bender="488.64592,48.401864 , 5,0"
       bottom_edge_variation="35.083637;1"
       top_edge_variation="35.083637;1"
       bottom_tgt_variation="0;1"
       top_tgt_variation="0;1"
       scale_bf="1"
       scale_bb="1"
       scale_tf="1"
       scale_tb="1"
       top_smth_variation="0;1"
       bottom_smth_variation="0;1"
       fat_output="true"
       stroke_width_top="1"
       stroke_width_bottom="1"
       front_thickness="1"
       back_thickness="0.25" />
    <inkscape:path-effect
       effect="rough_hatches"
       id="path-effect93462-7-8"
       is_visible="true"
       direction="468.45242,65.28615 , -3.6621341,-54.379907"
       dist_rdm="75;1"
       growth="0"
       do_bend="true"
       bender="497.25242,82.772351 , -46.490911,-32.050948"
       bottom_edge_variation="35.083637;1"
       top_edge_variation="35.083637;1"
       bottom_tgt_variation="0;1"
       top_tgt_variation="0;1"
       scale_bf="1"
       scale_bb="1"
       scale_tf="1"
       scale_tb="1"
       top_smth_variation="0;1"
       bottom_smth_variation="0;1"
       fat_output="true"
       stroke_width_top="1"
       stroke_width_bottom="1"
       front_thickness="1"
       back_thickness="0.25" />
  </defs>
  <metadata
     id="metadata6415">
    <rdf:RDF>
      <cc:Work
         rdf:about="">
        <dc:format>image/svg+xml</dc:format>
        <dc:type
           rdf:resource="http://purl.org/dc/dcmitype/StillImage" />
        <dc:title />
      </cc:Work>
    </rdf:RDF>
  </metadata>
  <g
     style="display:inline"
     inkscape:label="1-Black"
     id="layer1"
     inkscape:groupmode="layer">
    <path
       inkscape:connector-curvature="0"
       inkscape:original-d="m 9.0823244,561.29557 959.1271956,0 0,137.75897 -959.1271956,0 z"
       inkscape:path-effect="#path-effect126972-0"
       id="path126970"
       d="m 9.0823244,600.88702 c 0,0 39.9746286,-10.16781 94.6147056,-20.33562 54.64008,-10.16781 123.94561,-20.33563 183.04323,-20.33563 29.92604,0 28.02516,6.30991 9.68094,16.06077 -18.34421,9.75087 -53.15257,22.94269 -88.99425,36.70651 -35.84168,13.76382 -72.72015,28.09966 -94.97534,40.13854 -22.255186,12.03889 -29.873212,21.78083 -7.04301,26.35687 23.04137,4.61838 74.7192,-0.67759 141.01562,-11.10456 66.29642,-10.42696 147.15969,-25.98493 228.58936,-41.89056 81.42968,-15.90563 163.42226,-32.15892 232.40901,-43.97653 68.98675,-11.81761 125.01239,-19.19955 154.63079,-17.36247 29.92271,1.85595 22.76403,10.91276 -4.20927,23.45402 -26.97331,12.54125 -73.78854,28.56694 -123.0285,44.36064 -49.23996,15.79369 -100.90283,31.3554 -137.22987,42.96868 -36.32705,11.61327 -57.28734,19.27813 -45.02623,19.27813 12.63834,0 45.77378,-6.01431 88.27203,-14.64678 42.49826,-8.63247 94.3406,-19.8831 144.48879,-30.35575 50.14819,-10.47266 98.60781,-20.16733 134.53548,-25.68789 35.92766,-5.52055 59.35326,-6.86698 59.36238,-0.64315 0.009,6.32066 -12.1322,14.17989 -30.39419,22.41335 -18.26199,8.23347 -42.64541,16.84117 -67.06362,24.6588 -48.83641,15.63524 -97.80726,28.11015 -97.80726,28.11015 0,0 49.21306,-12.47249 98.29198,-28.13759 24.53947,-7.83254 49.04415,-16.46325 67.39683,-24.73211 18.35268,-8.26887 30.55424,-16.17591 30.54405,-22.56113 -0.0104,-6.48205 -23.68864,-5.26473 -59.92874,0.20741 -36.2401,5.47214 -85.07291,15.19909 -135.46985,25.7363 -50.39695,10.53721 -102.36391,21.88467 -144.67404,30.59784 -42.31013,8.71316 -74.9443,14.79202 -86.57671,14.79202 -12.00963,0 9.12589,-7.66171 45.56178,-19.27105 36.43588,-11.60935 88.14123,-27.16633 137.36702,-42.95688 49.22578,-15.79056 95.97016,-31.81467 122.82537,-44.35829 26.85521,-12.54361 33.84849,-21.60672 3.72267,-23.47525 -30.43013,-1.88741 -87.00301,5.44114 -156.31714,17.21405 -69.31412,11.77291 -151.41419,27.99016 -232.77884,43.88016 -81.36464,15.88999 -161.99057,31.45272 -227.92597,41.91658 -65.93541,10.46386 -117.12901,15.82884 -139.60786,11.32334 -22.690028,-4.54783 -14.939732,-14.27567 7.41924,-26.30926 22.35897,-12.0336 59.31265,-26.37295 95.18027,-40.14383 35.86761,-13.77088 70.6526,-26.97328 88.904,-36.73296 18.25139,-9.75968 19.99004,-16.07664 -10.18747,-16.07664 -61.10947,0 -130.65353,10.22994 -185.03051,20.45988 -54.376975,10.22995 -93.5868756,20.45989 -93.5868756,20.45989 z"
       style="color:#000000;fill:none;stroke:#000000;stroke-width:5;stroke-linecap:round;stroke-linejoin:round;stroke-miterlimit:4;stroke-opacity:1;stroke-dasharray:none;stroke-dashoffset:0;marker:none;visibility:visible;display:inline;overflow:visible;enable-background:accumulate" />
  </g>
  <g
     style="display:none"
     inkscape:label="8-Brown"
     id="layer8"
     inkscape:groupmode="layer" />
  <g
     style="display:none"
     inkscape:label="7-Violet"
     id="layer7"
     inkscape:groupmode="layer" />
  <g
     style="display:inline"
     inkscape:label="5-Green"
     id="layer5"
     inkscape:groupmode="layer">
    <path
       style="color:#000000;fill:none;stroke:#009000;stroke-width:5;stroke-linecap:round;stroke-linejoin:round;stroke-miterlimit:4;stroke-opacity:1;stroke-dasharray:none;stroke-dashoffset:0;marker:none;visibility:visible;display:inline;overflow:visible;enable-background:accumulate"
       d="m 719.82875,353.00469 c 0,0 254.36901,6.31241 254.36982,13.54855 8e-4,7.23615 -812.89024,-13.54855 -886.007687,-5.65352 -36.55872,3.94751 184.978757,12.15106 415.621807,20.48837 230.64305,8.33731 470.39078,16.80838 470.39067,21.29094 -1.1e-4,4.48255 -239.76848,0.49288 -479.55129,-4.25209 -239.78281,-4.74496 -479.589421,-10.24523 -479.589421,-8.78384 0,1.46138 239.816681,8.40758 479.600611,15.73378 239.78394,7.32619 479.532,15.03238 479.532,18.01372 0,2.98134 -239.76234,-1.74427 -479.54337,-6.16784 -239.78103,-4.42356 -479.576867,-8.54508 -479.576867,-4.35554 0,4.18953 239.816137,12.51836 479.597967,20.91674 239.78184,8.39838 479.52893,16.86631 479.52881,21.33404 -2.4e-4,8.93546 -959.119794,-16.00541 -959.119794,-5.75788 0,5.12377 239.815364,13.82116 479.595224,21.71132 239.77986,7.89016 479.52988,14.97308 479.53014,16.86791 2.5e-4,1.89484 -239.76161,-3.29374 -479.54755,-8.43922 -239.78594,-5.14547 -479.595455,-10.24784 -479.595455,-8.18059 0,2.06725 239.818475,9.28046 472.540635,16.63461 232.72216,7.35415 458.34687,14.84924 430.09625,17.48025 -28.25062,2.63101 -253.89385,-1.50082 -472.49001,-5.73891 C 226.61508,495.4574 15.064841,491.11304 15.064841,493.319 c 0,4.41192 506.035599,17.40554 262.731909,17.40554 -243.303689,0 -262.735815,-0.367 -262.735815,-0.367"
       id="rect126965"
       inkscape:path-effect="#path-effect126968-2"
       inkscape:original-d="m 15.060935,353.00469 959.127195,0 0,157.85691 -959.127195,0 z"
       inkscape:connector-curvature="0" />
  </g>
  <g
     inkscape:label="6-Blue"
     id="layer6"
     inkscape:groupmode="layer"
     style="display:inline">
    <path
       style="color:#000000;fill:none;stroke:#0000ff;stroke-width:5;stroke-linecap:round;stroke-linejoin:round;stroke-miterlimit:4;stroke-opacity:1;stroke-dasharray:none;stroke-dashoffset:0;marker:none;visibility:visible;display:inline;overflow:visible;enable-background:accumulate"
       d="m 953.4851,323.74818 c 0,0 16.27321,-18.94448 16.2964,-48.46941 0.006,-7.52613 -4.36846,-7.97089 -11.43657,-4.40458 -7.06812,3.56631 -16.83716,11.14369 -27.64913,19.66183 -21.62394,17.03629 -47.45209,37.83564 -63.80666,37.83564 -8.29908,0 -6.42977,-9.52055 0.99291,-24.3869 7.42267,-14.86635 20.38571,-35.0785 34.29748,-56.46171 13.91177,-21.38321 28.76943,-43.93748 40.12361,-63.48806 11.35418,-19.55058 19.2122,-36.09747 19.23352,-45.46593 0.0217,-9.51714 -12.16625,-1.77347 -30.67437,15.19543 -18.50813,16.9689 -43.37966,43.16302 -68.74767,70.54679 -25.36802,27.38376 -51.23808,55.95717 -71.40002,77.68464 -20.16195,21.72746 -34.58372,36.60899 -36.91048,36.60899 -2.44857,0 9.80597,-16.53636 29.0586,-41.3409 19.25263,-24.80454 45.46353,-57.87726 71.06708,-90.94998 25.60354,-33.07272 50.59974,-66.14544 67.86106,-90.94998 17.26131,-24.804535 26.82758,-41.340894 21.71065,-41.340894 -5.23872,0 -22.40389,16.328929 -45.82264,40.822324 -23.41875,24.49339 -53.12992,57.15125 -83.32471,89.80911 -30.19479,32.65785 -60.8732,65.31571 -85.79929,89.8091 -24.92609,24.4934 -44.06102,40.82233 -51.03292,40.82233 -7.0937,0 2.78257,-17.84145 20.89204,-44.60361 18.10947,-26.76217 44.40577,-62.44506 70.31439,-98.12795 25.90863,-35.68289 51.42957,-71.36578 68.49829,-98.127945 17.06872,-26.762167 25.73158,-44.603611 18.08629,-44.603611 -7.76709,0 -26.77098,16.328929 -51.62483,40.822322 -24.85385,24.493394 -55.59649,57.151254 -86.70516,89.809104 -31.10867,32.65786 -62.58336,65.31572 -88.47416,89.80911 -25.89079,24.4934 -46.15885,40.82232 -54.71833,40.82232 -8.68127,0 -1.9899,-15.56834 12.56086,-38.92087 14.55077,-23.35252 36.92562,-54.48922 59.73485,-85.62592 22.80923,-31.1367 46.05284,-62.2734 62.72942,-85.62592 16.67657,-23.352527 26.82141,-38.920877 23.55666,-38.920877 -3.38655,0 -19.13398,16.328929 -41.24195,40.822327 -22.10798,24.49339 -50.61534,57.15125 -79.38582,89.8091 -28.77049,32.65786 -57.8041,65.31572 -80.53743,89.80911 -22.73332,24.4934 -39.12753,40.82232 -42.48328,40.82232 -3.47755,0 7.27664,-15.72392 24.83502,-39.3098 17.55838,-23.58589 41.88494,-55.03373 65.67818,-86.48158 23.79323,-31.44784 47.05313,-62.89569 62.87428,-86.48157 15.82115,-23.585883 24.23956,-39.309806 18.47584,-39.309806 -5.88551,0 -23.53019,16.328929 -47.09306,40.822326 -23.56288,24.49339 -53.08279,57.15125 -82.58285,89.8091 -29.50007,32.65786 -58.9803,65.31572 -82.03664,89.80911 -23.05634,24.4934 -39.64997,40.82233 -43.24091,40.82233 -3.71275,0 7.28518,-16.19065 25.35335,-40.47661 18.06817,-24.28596 43.1684,-56.66724 67.79388,-89.04853 24.62549,-32.38128 48.77622,-64.76256 65.36536,-89.04853 16.58914,-24.28596 25.65486,-40.476601 20.24394,-40.476601 -5.53272,0 -22.91806,16.328928 -46.54947,40.822321 -23.6314,24.49339 -53.5477,57.15125 -84.00643,89.80911 -30.45873,32.65786 -61.45988,65.31571 -86.83382,89.80911 -25.37394,24.49339 -45.08183,40.82232 -52.81812,40.82232 -7.85809,0 -0.12615,-16.0005 15.30731,-40.00124 15.43346,-24.00075 38.53114,-56.00174 61.53506,-88.00273 23.00391,-32.001 45.91405,-64.00199 61.38256,-88.00274 15.46851,-24.000743 23.53269,-40.001239 16.97519,-40.001239 -6.67931,0 -24.93708,16.328928 -48.94738,40.822319 -24.01029,24.4934 -53.81194,57.15125 -83.44307,89.80911 -29.63114,32.65786 -59.09176,65.31572 -81.99283,89.80911 -22.90107,24.49339 -39.20376,40.82232 -42.38311,40.82232 -3.30116,0 9.52141,-17.94516 30.2691,-44.8629 20.7477,-26.91774 49.37362,-62.80806 77.84335,-98.69838 28.46973,-35.89032 56.78326,-71.78064 77.42208,-98.698378 20.63882,-26.91774 33.64982,-44.862899 31.67865,-44.862899 -2.09297,0 -16.8495,16.328928 -38.08851,40.822322 -21.239,24.493395 -48.99933,57.151255 -76.96399,89.809105 -27.96466,32.65786 -56.13365,65.31572 -77.76281,89.80911 -21.62916,24.49339 -36.67967,40.82232 -38.27145,40.82232 -1.71357,0 10.78445,-16.2425 29.95502,-40.60624 19.17058,-24.36375 44.97528,-56.84875 70.00956,-89.33375 25.03428,-32.485 49.29812,-64.97 65.80964,-89.333748 16.51152,-24.363749 25.30913,-40.606248 19.54542,-40.606248 -5.88552,0 -23.48974,16.328929 -46.9901,40.822322 -23.50036,24.493394 -52.93569,57.151254 -82.34751,89.809104 -29.41181,32.65786 -58.80011,65.31572 -81.77924,89.80911 -22.97912,24.4934 -39.51025,40.82233 -43.0718,40.82233 -3.68335,0 6.86297,-15.68071 24.41917,-39.20177 17.55619,-23.52107 42.08646,-54.88248 66.49634,-86.2439 24.40988,-31.36141 48.69938,-62.72283 66.16799,-86.24389 17.4686,-23.521061 28.15211,-39.201769 25.47535,-39.201769 -2.79856,0 -18.11223,16.328929 -39.79007,40.822319 -21.67783,24.4934 -49.75867,57.15125 -77.95563,89.80911 -28.19696,32.65786 -56.51006,65.31572 -78.22525,89.80911 -21.715197,24.49339 -36.793658,40.82232 -38.385436,40.82232 -1.713576,0 11.379156,-16.908 31.623346,-42.27001 20.24419,-25.36201 47.5982,-59.17803 74.55291,-92.99404 26.95471,-33.81601 53.51013,-67.63202 72.61512,-92.994033 19.105,-25.362009 30.80121,-42.270016 28.18325,-42.270016 -2.73976,0 -17.9873,16.328929 -39.57696,40.822322 -21.58966,24.493397 -49.56027,57.151247 -77.61027,89.809107 -28.05,32.65786 -56.17937,65.31572 -77.659395,89.80911 -21.480021,24.49339 -36.271851,40.82232 -37.510834,40.82232 -1.360781,0 11.076978,-15.85356 30.084833,-39.63391 19.007856,-23.78035 44.549206,-55.48749 69.523716,-87.19462 24.97452,-31.70713 49.3822,-63.41427 66.52539,-87.19462 17.14319,-23.780348 27.05848,-39.633915 23.17634,-39.633915 -4.00394,0 -18.9777,14.791254 -39.34491,36.3603 -20.36722,21.569045 -46.15953,49.915885 -71.65635,77.027055 -25.49683,27.11117 -50.692386,52.98668 -69.527804,69.61305 -18.835419,16.62637 -31.267518,24.00361 -31.266237,14.11827 0.0013,-10.0305 7.588687,-26.62238 18.599881,-45.86803 11.011194,-19.24565 25.440155,-41.14509 39.228681,-61.79071 13.788529,-20.64562 26.939469,-40.03743 35.522609,-54.267837 8.58315,-14.230404 12.61023,-23.299403 8.1695,-23.299403 -4.56254,0 -13.74822,7.10058 -24.9965,17.189856 C 95.483973,102.54687 82.165935,115.62484 69.377937,127.57963 56.589939,139.53441 44.334671,150.366 35.284684,155.96252 26.234698,161.55905 20.402532,161.9205 20.41926,152.93499 20.453268,134.66752 31.590213,111.86268 42.659738,93.624696 53.729262,75.386714 64.755587,61.715599 64.755587,61.715599 c 0,0 -11.183183,13.764729 -22.410494,32.145732 -11.22731,18.380999 -22.523351,41.378279 -22.559797,59.843379 -0.01851,9.38077 5.893669,9.21695 15.046139,3.69454 9.152469,-5.52241 21.532157,-16.40341 34.403565,-28.45701 12.871408,-12.0536 26.231676,-25.27979 37.41968,-35.492588 11.188,-10.212796 20.21108,-17.412192 24.44882,-17.412192 4.35954,0 0.29016,9.044807 -8.3104,23.244971 -8.60055,14.200169 -21.74396,33.555689 -35.514442,54.177119 -13.770478,20.62143 -28.170893,42.50877 -39.158295,61.77257 -10.987402,19.26379 -18.555848,35.90405 -18.558295,46.03132 -0.0025,10.27241 12.511182,3.08871 31.451669,-13.46509 18.940488,-16.5538 44.263653,-42.47769 69.845863,-69.68562 25.5822,-27.20794 51.41739,-55.69993 71.72401,-77.38994 20.30662,-21.690004 35.11671,-36.578025 38.79586,-36.578025 3.80094,0 -6.17703,15.853566 -23.36348,39.633915 -17.18645,23.78035 -41.61799,55.48749 -66.59606,87.19462 -24.97807,31.70713 -50.50268,63.41427 -69.472599,87.19462 -18.969922,23.78035 -31.348559,39.63391 -29.90658,39.63391 1.563777,0 16.601033,-16.32893 38.246196,-40.82232 21.645163,-24.49339 49.859403,-57.15125 77.913063,-89.80911 28.05365,-32.65786 55.94673,-65.31571 77.37674,-89.809107 21.43001,-24.493393 36.43578,-40.822322 38.85074,-40.822322 2.53677,0 -9.22224,16.908006 -28.37067,42.270016 -19.14844,25.362013 -45.72794,59.178023 -72.68645,92.994033 -26.9585,33.81601 -54.296,67.63203 -74.50244,92.99404 -20.20643,25.36201 -33.240158,42.27001 -31.445384,42.27001 1.916571,0 17.240458,-16.32893 39.120794,-40.82232 21.88034,-24.49339 50.27829,-57.15125 78.47892,-89.80911 28.20062,-32.65786 56.20392,-65.31571 77.7221,-89.80911 21.51819,-24.493391 36.59009,-40.82232 39.06386,-40.82232 2.59556,0 -8.15061,15.680708 -25.66244,39.20177 -17.51184,23.52106 -41.82516,54.88248 -66.23856,86.24389 -24.4134,31.36142 -48.92688,62.72283 -66.44511,86.2439 -17.51823,23.52106 -28.00541,39.20177 -24.24086,39.20177 3.88634,0 20.66289,-16.32893 43.80716,-40.82233 23.14427,-24.49339 52.61743,-57.15125 82.0329,-89.80911 29.41548,-32.65785 58.77327,-65.31571 82.11398,-89.809104 23.34071,-24.493393 40.70317,-40.822322 46.26389,-40.822322 5.68252,0 -3.17781,16.242499 -19.73266,40.606248 -16.55485,24.363748 -40.84264,56.848748 -65.88056,89.333748 -25.03792,32.485 -50.82597,64.97 -69.95867,89.33375 -19.13271,24.36374 -31.57165,40.60624 -29.77688,40.60624 1.91657,0 17.21251,-16.32893 39.00681,-40.82232 21.79431,-24.49339 50.04816,-57.15125 78.01647,-89.80911 27.96832,-32.65785 55.65111,-65.31571 76.73047,-89.809106 21.07936,-24.493393 35.59412,-40.822322 37.3623,-40.822322 1.88997,0 -11.18395,17.94516 -31.86638,44.8629 -20.68243,26.917738 -49.02029,62.808058 -77.49404,98.698378 -28.47375,35.89032 -57.0834,71.78064 -77.79351,98.69838 -20.71012,26.91774 -33.4738,44.8629 -30.09144,44.8629 3.50414,0 20.05226,-16.32893 43.11847,-40.82232 23.06622,-24.49339 52.6117,-57.15125 82.24649,-89.80911 29.6348,-32.65786 59.35891,-65.31571 83.20955,-89.80911 23.85065,-24.493391 41.86666,-40.82232 48.22116,-40.82232 6.47631,0 -1.65056,16.000497 -17.16236,40.00124 -15.51181,24.00075 -38.44583,56.00174 -61.45333,88.00273 -23.0075,32.001 -46.08848,64.00199 -61.48402,88.00274 -15.39555,24.00074 -23.06839,40.00124 -15.1291,40.00124 8.06108,0 28.0144,-16.32893 53.55348,-40.82232 25.53908,-24.4934 56.6251,-57.15125 87.08748,-89.80911 30.46239,-32.65786 60.30116,-65.31572 83.77291,-89.80911 23.47175,-24.493393 40.61533,-40.822322 45.82326,-40.822322 5.32972,0 -3.79871,16.190642 -20.43118,40.476602 -16.63246,24.28597 -40.80712,56.66725 -65.43623,89.04853 -24.62912,32.38129 -49.71268,64.76257 -67.74297,89.04853 -18.0303,24.28596 -28.96914,40.47661 -25.1752,40.47661 3.91575,0 20.7548,-16.32893 43.97628,-40.82233 23.22149,-24.49339 52.78657,-57.15125 82.2903,-89.80911 29.50373,-32.65785 58.9461,-65.31571 82.34932,-89.8091 23.40323,-24.493397 40.80614,-40.822326 46.36686,-40.822326 5.68252,0 -2.79856,15.723922 -18.66295,39.309806 -15.86439,23.58588 -39.14812,55.03373 -62.94487,86.48157 -23.79676,31.44785 -48.10655,62.89569 -65.62698,86.48158 -17.52043,23.58588 -28.21548,39.3098 -24.65673,39.3098 3.68055,0 20.32018,-16.32892 43.21865,-40.82232 22.89847,-24.49339 52.01694,-57.15125 80.79109,-89.80911 28.77414,-32.65785 57.20396,-65.31571 79.15229,-89.8091 21.94832,-24.493398 37.45399,-40.822327 40.51574,-40.822327 3.18356,0 -7.02393,15.56835 -23.74372,38.920877 -16.71979,23.35252 -39.98719,54.48922 -62.79991,85.62592 -22.81273,31.1367 -45.17077,62.2734 -59.68355,85.62592 -14.51278,23.35253 -21.14501,38.92087 -12.38253,38.92087 8.88427,0 29.39775,-16.32892 55.45369,-40.82232 26.05594,-24.49339 57.6155,-57.15125 88.72782,-89.80911 31.11233,-32.65785 61.77744,-65.31571 86.47164,-89.809104 24.69419,-24.493394 43.45632,-40.822323 50.89862,-40.822323 7.56409,0 -1.16167,17.841445 -18.27399,44.603612 -17.11232,26.762165 -42.65756,62.445055 -68.57019,98.127945 -25.91262,35.68289 -52.19262,71.36578 -70.26449,98.12795 -18.07187,26.76216 -27.88924,44.60361 -20.71435,44.60361 7.2967,0 26.67705,-16.32893 51.76829,-40.82233 25.09123,-24.49339 55.8545,-57.15125 86.05295,-89.8091 30.19845,-32.65786 59.83208,-65.31572 83.09118,-89.80911 23.2591,-24.493396 40.1825,-40.822324 45.09643,-40.822324 5.03573,0 -4.59328,16.536359 -21.89798,41.340894 -17.3047,24.80454 -42.3249,57.87726 -67.93216,90.94998 -25.60725,33.07272 -51.80156,66.14544 -71.01637,90.94998 -19.21481,24.80454 -31.4103,41.3409 -28.88054,41.3409 2.65156,0 17.23409,-14.78241 37.45683,-36.38598 20.22273,-21.60356 46.05402,-50.0283 71.3448,-77.31294 25.29077,-27.28465 50.04631,-53.42921 68.45685,-70.47245 18.41053,-17.04324 30.51826,-24.98514 30.49648,-15.86448 -0.0221,9.26934 -7.90167,25.76667 -19.28278,45.29867 -11.3811,19.532 -26.27118,42.09865 -40.20564,63.50664 -13.93446,21.40799 -26.91046,41.65731 -34.32028,56.55464 -7.40981,14.89732 -9.24037,24.44265 -0.86009,24.44265 17.00415,0 42.83198,-20.41297 64.29626,-37.25607 10.73213,-8.42154 20.38109,-15.95062 27.34847,-19.58938 6.96738,-3.63876 11.25999,-3.38719 11.25358,3.75256 -0.0262,29.13855 -15.64872,47.69969 -15.64872,47.69969 z"
       id="rect126939"
       inkscape:path-effect="#path-effect126942-5"
       inkscape:original-d="m 30.836364,61.715599 943.418156,0 0,262.032581 -943.418156,0 z"
       inkscape:connector-curvature="0" />
    <path
       style="color:#000000;fill:none;stroke:#0090ff;stroke-width:4.99999952;stroke-linecap:round;stroke-linejoin:round;stroke-miterlimit:4;stroke-opacity:1;stroke-dasharray:none;stroke-dashoffset:0;marker:none;visibility:visible;display:inline;overflow:visible;enable-background:accumulate"
       d="m 598.27888,353.00468 c 0,0 93.9699,0.27314 187.95003,3.30301 93.98014,3.02986 187.97613,8.81643 187.97675,19.8433 6.3e-4,11.02687 -239.8056,15.73556 -479.57768,21.41735 -239.77208,5.68178 -479.504198,12.33666 -479.504198,27.25591 0,14.91924 239.738688,23.26889 479.517118,31.30314 239.77842,8.03424 479.59497,15.75308 479.59479,29.41068 -1.7e-4,13.65759 -239.82446,19.59632 -479.62061,23.23398 -239.79614,3.63765 -479.574342,4.97422 -479.574342,9.42752 0,4.45329 239.779722,7.55419 479.567342,11.81231 239.78762,4.25811 479.58551,9.67343 479.58551,18.75555 0,9.08212 -239.80118,12.7489 -479.58996,14.14514 -239.78878,1.39625 -479.571015,0.52196 -479.571015,0.52196"
       id="rect126965-4"
       inkscape:path-effect="#path-effect126968-2-3"
       inkscape:original-d="m 15.032615,353.00468 959.127195,0 0,220.97486 -959.127195,0 z"
       inkscape:connector-curvature="0" />
  </g>
  <g
     style="display:none"
     inkscape:label="3-Orange"
     id="layer3"
     inkscape:groupmode="layer" />
  <g
     style="display:inline"
     inkscape:label="2-Red"
     id="layer2"
     inkscape:groupmode="layer">
    <path
       style="color:#000000;fill:none;stroke:#ff0000;stroke-width:5;stroke-linecap:round;stroke-linejoin:round;stroke-miterlimit:4;stroke-opacity:1;stroke-dasharray:none;stroke-dashoffset:0;marker:none;visibility:visible;display:inline;overflow:visible;enable-background:accumulate"
       d="m 9.0823244,27.638304 c 0,0 1.9280386,-1.378329 6.3286916,-2.756657 4.400653,-1.378329 11.27392,-2.756657 21.232147,-2.756657 5.135848,0 6.42095,2.110761 5.67796,5.378731 -0.742991,3.26797 -3.533755,7.693149 -6.506598,12.321983 -2.972842,4.628835 -6.131225,9.461325 -7.392819,13.543918 -1.261594,4.082593 -0.613645,7.415289 4.173134,9.044535 2.446439,0.832679 5.748967,0.732888 9.703138,-0.07926 3.954172,-0.812153 8.557189,-2.336668 13.572574,-4.353439 10.030771,-4.033542 21.678407,-10.036107 33.175984,-16.246842 11.497574,-6.210735 22.838554,-12.629639 32.782414,-17.49586 9.94386,-4.86622 18.53937,-8.179757 24.75571,-8.179757 6.37307,0 7.68277,2.922375 6.01815,7.305938 -1.66461,4.383562 -6.34162,10.228313 -11.80867,16.073063 -5.46704,5.84475 -11.72413,11.689501 -16.12999,16.073064 -4.40587,4.383562 -6.92243,7.305938 -4.77515,7.305938 2.30401,0 7.98444,-2.799416 15.29924,-6.99854 7.31481,-4.199124 16.22904,-9.797955 25.12298,-15.396787 8.89394,-5.598832 17.76757,-11.197663 25.38557,-15.396787 7.61799,-4.199124 14.01529,-6.99854 18.07886,-6.99854 4.2203,0 3.88978,2.922375 1.22013,7.305938 -2.66966,4.383563 -7.71652,10.228313 -12.79563,16.073064 -5.0791,5.84475 -10.19045,11.689501 -12.57015,16.073063 -2.3797,4.383563 -1.98968,7.305938 4.06722,7.305938 6.21364,0 13.74745,-2.025796 21.85417,-5.064491 8.10673,-3.038695 16.76808,-7.090288 25.30086,-11.141881 8.53278,-4.051593 16.937,-8.103186 24.73076,-11.141881 7.79376,-3.038695 14.99536,-5.064491 21.18695,-5.064491 6.34833,0 7.4269,2.922375 5.75737,7.305938 -1.66953,4.383563 -6.12523,10.228313 -10.71215,16.073063 -4.58692,5.844751 -9.30506,11.689501 -11.08055,16.073064 -1.77549,4.383563 -0.57025,7.305938 6.82286,7.305938 7.54984,0 18.22555,-3.373226 29.91103,-8.433066 11.68549,-5.059839 24.33,-11.806291 35.99504,-18.552743 11.66505,-6.746453 22.35061,-13.492905 30.67632,-18.552744 8.32571,-5.05984 14.34229,-8.433066 16.84696,-8.433066 2.6614,0 1.06877,2.922375 -2.80739,7.305938 -3.87616,4.383563 -10.07393,10.228313 -16.48952,16.073064 -6.41559,5.84475 -13.049,11.6895 -17.37754,16.073063 -4.32855,4.383563 -6.31414,7.305938 -3.3008,7.305938 3.17007,0 10.31751,-3.281006 19.31849,-8.202516 9.00098,-4.92151 19.80751,-11.483524 30.46375,-18.045537 10.65625,-6.562013 21.16221,-13.124027 30.09009,-18.045537 8.92789,-4.92151 16.3257,-8.202516 20.93364,-8.202516 4.76469,0 4.82429,2.922375 2.25576,7.305938 -2.56853,4.383562 -7.80327,10.228313 -13.49401,16.073063 -5.69073,5.844751 -11.83745,11.689501 -15.81103,16.073064 -3.97357,4.383563 -5.73593,7.305938 -2.52464,7.305938 3.36803,0 10.18255,-3.004348 18.59058,-7.51087 8.40804,-4.506523 18.36934,-10.515219 28.17182,-16.523915 9.80247,-6.008696 19.44611,-12.017392 27.66154,-16.523915 8.21543,-4.506522 15.0429,-7.51087 19.35392,-7.51087 4.46774,0 4.32174,2.922375 1.82988,7.305938 -2.49186,4.383563 -7.36765,10.228313 -12.22619,16.073064 -4.85854,5.84475 -9.69983,11.6895 -11.70378,16.073063 -2.00395,4.383563 -1.13248,7.305938 5.56778,7.305938 6.857,0 16.43188,-3.117061 27.06382,-7.792652 10.63193,-4.675591 22.27759,-10.909713 33.42777,-17.143834 11.15018,-6.234122 21.80488,-12.468244 30.93148,-17.143835 9.12659,-4.675591 16.76841,-7.792652 22.04446,-7.792652 5.43278,0 6.05114,2.922375 3.9233,7.305938 -2.12785,4.383563 -7.04,10.228313 -12.53495,16.073063 -5.49494,5.844751 -11.57269,11.689501 -15.61285,16.073064 -4.04016,4.383563 -6.00465,7.305938 -3.13978,7.305938 3.0216,0 8.04726,-1.964317 13.89395,-4.910792 5.84668,-2.946476 12.49718,-6.875109 18.82868,-10.803743 6.3315,-3.928634 12.344,-7.857267 17.10395,-10.803743 4.75994,-2.946475 8.28453,-4.910792 9.70044,-4.910792 1.57264,0 -0.90385,2.922375 -5.58617,7.305938 -4.68232,4.383563 -11.60855,10.228313 -18.80209,16.073064 -7.19354,5.84475 -14.6544,11.6895 -19.98706,16.073063 -5.33266,4.383563 -8.49905,7.305938 -6.97039,7.305938 1.6854,0 7.33838,-2.973608 14.97298,-7.43402 7.6346,-4.460413 17.2114,-10.407629 26.88244,-16.354846 9.67104,-5.947216 19.43632,-11.894433 27.88162,-16.354845 8.44529,-4.460413 15.61003,-7.434021 20.21798,-7.434021 4.76468,0 4.69289,2.922375 1.92573,7.305938 -2.76716,4.383563 -8.26777,10.228313 -14.22747,16.073064 -5.9597,5.84475 -12.37847,11.6895 -16.56305,16.073063 -4.18458,4.383563 -6.09688,7.305938 -2.91033,7.305938 3.34328,0 10.72216,-3.306623 19.80697,-8.266558 9.0848,-4.959935 19.82678,-11.573181 30.06687,-18.186427 10.2401,-6.613247 19.97831,-13.226493 27.59191,-18.186428 7.6136,-4.959935 13.15134,-8.266558 15.16112,-8.266558 2.16651,0 0.22621,2.922375 -3.98586,7.305938 -4.21208,4.383563 -10.73401,10.228313 -17.59749,16.073064 -6.86348,5.84475 -14.06851,11.6895 -19.22786,16.073063 -5.15935,4.383563 -8.23494,7.305938 -6.70627,7.305938 1.6854,0 6.67315,-2.579113 13.19022,-6.447784 6.51706,-3.86867 14.53379,-9.026898 22.38096,-14.185125 7.84716,-5.158227 15.52477,-10.316455 21.68987,-14.185125 6.16511,-3.86867 10.84737,-6.447784 12.80765,-6.447784 2.11702,0 0.068,2.922375 -4.29778,7.305938 -4.36583,4.383563 -11.08658,10.228313 -18.1798,16.073063 -7.09323,5.844751 -14.55893,11.689501 -19.99575,16.073064 -5.43682,4.383563 -8.80668,7.305938 -7.57495,7.305938 1.38846,0 7.14,-3.204157 14.96071,-8.010393 7.82072,-4.806235 17.66483,-11.214549 27.39869,-17.622864 9.73385,-6.408314 19.35745,-12.816628 27.24071,-17.622863 7.88326,-4.806236 14.07197,-8.010393 17.09627,-8.010393 3.18103,0 1.98881,2.922375 -1.31922,7.305938 -3.30802,4.383563 -8.76993,10.228313 -13.99498,16.073064 -5.22505,5.84475 -10.21324,11.6895 -12.15493,16.073063 -1.94169,4.383563 -0.79879,7.305938 6.37161,7.305938 7.32715,0 17.70004,-3.362979 29.11987,-8.407449 11.41983,-5.044469 23.83617,-11.770428 35.4267,-18.496387 11.59054,-6.725959 22.35528,-13.451919 31.02665,-18.496388 8.67138,-5.044469 15.29982,-8.407449 18.79426,-8.407449 3.65118,0 2.90343,2.922375 -0.0503,7.305938 -2.95371,4.383563 -8.15147,10.228313 -13.26702,16.073064 -5.11555,5.84475 -10.1489,11.6895 -12.35489,16.073063 -2.20599,4.383563 -1.54654,7.305938 4.85679,7.305938 6.56006,0 15.26076,-2.668878 24.65064,-6.608193 9.38989,-3.939315 19.43728,-9.149068 28.82109,-14.230817 9.38381,-5.081749 18.10724,-10.035494 25.19325,-13.462795 7.08602,-3.427302 12.5727,-5.328159 15.5176,-4.30413 3.05447,1.062133 2.38898,4.246866 -0.40248,8.426516 -2.79147,4.179649 -7.72891,9.354215 -13.06826,14.396015 -5.33935,5.041799 -11.07794,9.950832 -15.19154,13.599415 -4.11361,3.648583 -6.57689,6.036716 -5.29567,6.036716 1.43796,0 4.39848,-1.316981 7.98949,-3.081046 3.591,-1.764065 7.80556,-3.975214 11.80417,-5.763549 3.99861,-1.788335 7.78783,-3.153857 10.58356,-3.226668 2.79572,-0.07281 4.618,1.147089 4.53851,4.529596 -0.0822,3.496946 -0.006,5.978062 0.20242,7.732704 0.20874,1.754641 0.54661,2.782809 0.91743,3.373858 0.74163,1.182098 1.6101,0.615723 1.6101,0.615723 0,0 -0.65733,0.493131 -1.18708,-0.800357 -0.26488,-0.646744 -0.49683,-1.740143 -0.62775,-3.565165 -0.13092,-1.825023 -0.15709,-4.381668 -0.0826,-7.954907 0.0768,-3.687676 -1.85989,-5.06016 -4.78596,-5.044568 -2.92607,0.01559 -6.86444,1.41926 -10.96011,3.283887 -4.09567,1.864628 -8.35626,4.190214 -11.86666,6.049645 -3.5104,1.85943 -6.26289,3.252703 -7.28288,3.252703 -1.17673,0 1.34944,-2.381782 5.4947,-6.022427 4.14526,-3.640644 9.8844,-8.54015 15.20267,-13.575599 5.31827,-5.035448 10.21295,-10.206839 12.94788,-14.391252 2.73493,-4.184413 3.32988,-7.381847 0.19944,-8.469384 -3.24012,-1.125643 -8.97221,0.724407 -16.23157,4.132656 -7.25936,3.408248 -16.08537,8.374695 -25.48554,13.481848 -9.40016,5.107153 -19.37803,10.35501 -28.59116,14.32608 -9.21313,3.97107 -17.62923,6.665351 -23.77133,6.665351 -6.29884,0 -6.88772,-2.922375 -4.64118,-7.305938 2.24655,-4.383562 7.29043,-10.228313 12.39039,-16.073063 5.09996,-5.844751 10.25601,-11.689501 13.14578,-16.073064 2.88978,-4.383563 3.55137,-7.305938 -0.2043,-7.305938 -3.91241,0 -10.84535,3.36298 -19.71224,8.407449 -8.8669,5.044469 -19.71819,11.770429 -31.29079,18.496388 -11.5726,6.725959 -23.86651,13.451918 -35.0639,18.496387 -11.1974,5.04447 -21.24785,8.407449 -28.15704,8.407449 -7.06591,0 -8.13823,-2.922375 -6.15599,-7.305938 1.98224,-4.383563 6.98097,-10.228313 12.19043,-16.073063 5.20946,-5.844751 10.62965,-11.689501 13.87374,-16.073064 3.24409,-4.383563 4.35015,-7.305938 1.06463,-7.305938 -3.44226,0 -9.93589,3.204157 -18.01531,8.010393 -8.07943,4.806235 -17.79042,11.214549 -27.50719,17.622864 -9.71676,6.408314 -19.43929,12.816628 -27.03821,17.622863 -7.59891,4.806236 -13.02843,8.010393 -13.99894,8.010393 -1.12724,0 2.3132,-2.922375 7.79057,-7.305938 5.47738,-4.383563 12.95361,-10.228313 20.03125,-16.073063 7.07763,-5.844751 13.75667,-11.689501 18.05856,-16.073064 4.30189,-4.383563 6.26471,-7.305938 4.0432,-7.305938 -2.37825,0 -7.3671,2.579114 -13.73086,6.447784 -6.36377,3.868671 -14.13211,9.026898 -21.96551,14.185125 -7.83341,5.158227 -15.73189,10.316455 -22.02966,14.185125 -6.29777,3.868671 -10.96518,6.447784 -12.23262,6.447784 -1.42417,0 1.72199,-2.922375 6.9219,-7.305938 5.1999,-4.383562 12.41546,-10.228313 19.26335,-16.073063 6.84789,-5.844751 13.32811,-11.689501 17.47625,-16.073064 4.14814,-4.383563 6.00227,-7.305938 3.73127,-7.305938 -2.42773,0 -8.27012,3.306623 -16.07947,8.266558 -7.80935,4.959935 -17.63442,11.573181 -27.85688,18.186428 -10.22245,6.613246 -20.8423,13.226493 -29.70489,18.186427 -8.8626,4.959935 -15.9192,8.266558 -18.84452,8.266558 -3.08205,0 -1.09918,-2.922375 3.12595,-7.305938 4.22513,-4.383562 10.65444,-10.228313 16.59855,-16.073063 5.94411,-5.844751 11.40301,-11.689501 14.10624,-16.073064 2.70322,-4.383563 2.68884,-7.305938 -2.18033,-7.305938 -5.02591,0 -12.49618,2.973608 -21.13856,7.434021 -8.64238,4.460412 -18.49629,10.407629 -28.15147,16.354845 -9.65518,5.947217 -19.11162,11.894433 -26.52534,16.354846 -7.41373,4.460412 -12.7453,7.43402 -14.01274,7.43402 -1.42418,0 1.81278,-2.922375 7.186,-7.305938 5.37322,-4.383562 12.8446,-10.228313 20.02255,-16.073063 7.17795,-5.844751 14.06247,-11.689501 18.68086,-16.073064 4.61838,-4.383563 7.00871,-7.305938 5.33158,-7.305938 -1.83387,0 -5.66669,1.964317 -10.62776,4.910792 -4.96106,2.946476 -11.06757,6.875109 -17.38859,10.803743 -6.32102,3.928634 -12.85656,7.857268 -18.4864,10.803743 -5.62985,2.946475 -10.3368,4.910792 -12.94044,4.910792 -2.76038,0 -0.72532,-2.922375 3.35539,-7.305938 4.08071,-4.383563 10.16899,-10.228313 15.64835,-16.073064 5.47936,-5.84475 10.3498,-11.6895 12.41371,-16.073063 2.06391,-4.383563 1.35939,-7.305938 -4.17789,-7.305938 -5.694,0 -13.64098,3.117061 -22.96408,7.792652 -9.32311,4.675591 -20.06567,10.909713 -31.19923,17.143835 -11.13355,6.234121 -22.65809,12.468243 -33.06857,17.143834 -10.41049,4.675592 -19.66359,7.792652 -26.10263,7.792652 -6.59577,0 -7.39666,-2.922375 -5.35216,-7.305938 2.0445,-4.383562 6.89633,-10.228313 11.73928,-16.073063 4.84295,-5.844751 9.67703,-11.689501 12.10495,-16.073064 2.42792,-4.383563 2.48777,-7.305938 -2.08447,-7.305938 -4.72897,0 -11.8619,3.004348 -20.2743,7.510871 -8.41239,4.506522 -18.14449,10.515218 -27.93094,16.523914 -9.78644,6.008696 -19.62723,12.017392 -27.81427,16.523915 -8.18703,4.506522 -14.68007,7.51087 -17.63013,7.51087 -3.1068,0 -1.27388,-2.922375 2.74025,-7.305938 4.01413,-4.383563 10.17139,-10.228313 15.84653,-16.073064 5.67514,-5.84475 10.86818,-11.6895 13.37277,-16.073063 2.50459,-4.383563 2.35883,-7.305938 -2.51034,-7.305938 -5.02591,0 -12.72844,3.281006 -21.85218,8.202516 -9.12374,4.92151 -19.71669,11.483524 -30.35543,18.045537 -10.63874,6.562013 -21.32327,13.124027 -30.10215,18.045537 -8.77888,4.92151 -15.6041,8.202516 -18.35621,8.202516 -2.90884,0 -0.85268,-2.922375 3.51642,-7.305938 4.3691,-4.383562 11.01304,-10.228313 17.41304,-16.073063 6.40001,-5.844751 12.55606,-11.689501 16.36829,-16.073064 3.81222,-4.383563 5.31869,-7.305938 2.5528,-7.305938 -2.92263,0 -9.24369,3.373226 -17.76488,8.433066 -8.52119,5.059839 -19.29325,11.806291 -30.9403,18.552744 -11.64705,6.746452 -24.16908,13.492904 -35.63209,18.552744 -11.46301,5.059839 -21.81625,8.433065 -28.94814,8.433065 -7.28861,0 -8.42328,-2.922375 -6.60723,-7.305938 1.81604,-4.383563 6.54471,-10.228313 11.11604,-16.073064 4.57133,-5.84475 8.98532,-11.6895 10.59091,-16.073063 1.60559,-4.383563 0.44087,-7.305938 -6.01195,-7.305938 -6.60955,0 -14.11922,2.025796 -22.11385,5.064491 -7.99464,3.038695 -16.49254,7.090288 -25.01452,11.141881 -8.52198,4.051593 -17.06803,8.103186 -24.95767,11.141881 -7.88964,3.038695 -15.10457,5.064491 -20.90025,5.064491 -5.95242,0 -6.27186,-2.922375 -3.85161,-7.305938 2.42026,-4.383562 7.54214,-10.228313 12.60565,-16.073063 5.06352,-5.84475 10.06867,-11.689501 12.67439,-16.073064 2.60571,-4.383562 2.85007,-7.305938 -1.47472,-7.305938 -4.48153,0 -11.18483,2.799416 -19.0006,6.99854 -7.81578,4.199124 -16.77897,9.797955 -25.65797,15.396787 -8.879,5.598832 -17.67382,11.197663 -24.76844,15.396787 -7.09463,4.199124 -12.45412,6.99854 -14.34017,6.99854 -2.04279,0 0.54435,-2.922375 4.99076,-7.305938 4.44642,-4.383563 10.71404,-10.228313 16.1655,-16.073064 5.45145,-5.84475 10.08675,-11.689501 11.68743,-16.073063 1.60068,-4.383563 0.20482,-7.305938 -6.27274,-7.305938 -6.6343,0 -15.50602,3.289462 -25.60772,8.12559 -10.1017,4.836128 -21.48145,11.218921 -32.927004,17.405581 -11.445551,6.186661 -22.950803,12.177189 -32.783814,16.228786 -9.833011,4.051598 -17.933511,6.164265 -22.547647,4.595205 -4.72033,-1.605172 -5.314934,-4.925831 -4.017381,-9.00391 1.297553,-4.078079 4.47432,-8.913578 7.44338,-13.548431 2.96906,-4.634853 5.733842,-9.06906 6.425427,-12.344553 0.691586,-3.275493 -0.670224,-5.392273 -5.910562,-5.392273 -10.794146,0 -17.846164,1.527864 -22.220464,3.055729 -4.374299,1.527864 -6.0708806,3.055729 -6.0708806,3.055729 z"
       id="path93460"
       inkscape:path-effect="#path-effect93462-7"
       inkscape:original-d="m 9.0823244,24.723789 959.1271956,0 0,47.356147 -959.1271956,0 z"
       inkscape:connector-curvature="0" />
  </g>
  <g
     style="display:inline"
     inkscape:label="4-Yellow"
     id="layer4"
     inkscape:groupmode="layer">
    <path
       style="color:#000000;fill:none;stroke:#ffb600;stroke-width:4.99999952;stroke-linecap:round;stroke-linejoin:round;stroke-miterlimit:4;stroke-opacity:1;stroke-dasharray:none;stroke-dashoffset:0;marker:none;visibility:visible;display:inline;overflow:visible;enable-background:accumulate"
       d="m 8.961548,15.670599 c 0,0 2.946696,-0.15072 14.884097,-0.32581 11.937401,-0.17509 32.849476,-0.385603 68.966714,-0.376629 19.151621,0.0048 23.803051,0.877651 19.971161,2.308602 -3.83189,1.430951 -16.128878,3.432516 -30.778395,5.760605 -14.649517,2.328089 -31.64602,4.986521 -44.959348,7.674383 -13.313328,2.687863 -22.950616,5.400238 -22.952153,7.787647 -7.99e-4,1.242446 6.42164,1.711652 17.928466,1.588964 11.506825,-0.122687 28.100923,-0.835279 48.475368,-1.934418 40.748892,-2.198276 96.657562,-5.916269 157.109272,-9.63836 30.22585,-1.861045 61.57985,-3.728358 92.67285,-5.455269 31.093,-1.726912 61.92478,-3.313578 91.05831,-4.646325 58.26706,-2.665494 109.75668,-4.304606 142.58185,-4.277436 17.2024,0.01424 21.45669,0.662405 15.69912,1.769515 -5.75757,1.10711 -21.51667,2.68028 -44.20383,4.639121 -22.68717,1.958841 -52.29515,4.308343 -85.74499,6.971907 -33.44984,2.663565 -70.73738,5.644056 -108.8636,8.809756 -38.12622,3.1657 -77.09004,6.517346 -114.01161,9.841081 -36.92157,3.323736 -71.80289,6.618172 -101.87616,9.592192 -30.073263,2.97402 -55.343577,5.624108 -73.101871,7.618654 -17.758294,1.994546 -28.01275,3.327909 -28.013438,3.696649 -7.8e-4,0.417621 11.985484,-0.401268 33.191314,-2.094174 21.205831,-1.692906 51.641695,-4.252613 88.622555,-7.259795 36.98086,-3.007183 80.51389,-6.456891 127.86414,-9.964217 47.35024,-3.507326 98.52159,-7.069584 150.64612,-10.393539 52.12452,-3.323954 105.20282,-6.409186 156.20025,-9.077395 50.99743,-2.668208 99.9113,-4.921242 143.5558,-6.685013 43.6445,-1.76377 82.01366,-3.042391 111.83536,-3.82127 29.82171,-0.778879 51.0867,-1.064396 60.55074,-0.822748 10.17182,0.25972 3.54573,1.06932 -15.77927,2.343683 -19.325,1.274362 -51.33179,3.025284 -91.75335,5.28348 -40.42157,2.258195 -89.24619,5.031735 -142.25501,8.318134 C 593.4732,36.188973 536.2865,39.992577 478.9575,44.184547 421.6285,48.376517 364.15811,52.957474 310.34455,57.634948 256.531,62.312422 206.3698,67.08331 163.4488,71.510113 120.5278,75.936915 84.837107,80.012804 59.862254,83.229729 34.887401,86.446653 20.613078,88.79406 20.611565,89.823702 c -0.0016,1.078675 13.965445,0.605474 38.528028,-0.951836 24.562584,-1.557309 59.735657,-4.188427 102.254267,-7.351063 42.51861,-3.162635 92.39271,-6.849917 146.27864,-10.573813 53.88593,-3.723897 111.78868,-7.480967 170.17369,-10.914776 58.38501,-3.43381 117.2523,-6.544347 172.83888,-9.132668 55.58657,-2.588321 107.88747,-4.657843 152.94831,-6.141559 45.06084,-1.483717 82.8717,-2.388475 109.3985,-2.702205 26.5268,-0.31373 41.75464,-0.04671 41.75608,0.886637 0.001,0.978446 -15.66325,2.401291 -42.73487,4.252563 -27.07161,1.851272 -65.53447,4.141734 -111.04216,6.915394 -45.50768,2.773661 -98.05015,6.037451 -153.38646,9.762666 -55.33631,3.725214 -113.46198,7.914952 -170.35064,12.392568 -56.88866,4.477617 -112.54139,9.242379 -163.17216,13.951966 -50.63077,4.709586 -96.2462,9.359431 -133.24295,13.481274 -36.99675,4.12184 -65.387,7.70728 -81.609067,10.25933 -16.222072,2.55204 -20.293705,4.05847 -8.470498,4.14827 24.570185,0.1866 89.530975,-4.23349 174.467275,-10.01621 42.46815,-2.89135 89.93625,-6.11918 139.7629,-9.339681 49.82664,-3.220502 102.01406,-6.432137 153.77578,-9.39113 51.76172,-2.958993 103.09698,-5.665864 151.06311,-7.98451 47.96612,-2.318647 92.55938,-4.25165 130.71462,-5.747338 38.15524,-1.495688 69.86574,-2.5587 92.02243,-3.167646 22.1567,-0.608946 34.74987,-0.770525 34.7499,-0.408577 4e-5,0.407158 -11.14975,1.188623 -30.48962,2.297481 -19.33987,1.108858 -46.86186,2.550589 -79.55872,4.311031 -32.69686,1.760441 -70.56342,3.843158 -110.64334,6.19888 -40.07991,2.355722 -82.3708,4.9861 -124.024,7.76763 -41.6532,2.781529 -82.66909,5.713947 -120.32178,8.58912 -37.65268,2.87517 -71.94533,5.69092 -100.24819,8.17282 -28.30286,2.48191 -50.62187,4.62587 -64.35518,6.13824 -13.73331,1.51236 -18.88963,2.38713 -12.78505,2.38723 13.36925,2.1e-4 59.63448,-3.01007 122.23563,-6.94051 31.30057,-1.96521 66.69093,-4.15647 104.05724,-6.34268 37.36632,-2.18621 76.71004,-4.36637 115.83418,-6.366742 39.12414,-2.000368 78.02835,-3.821187 114.42418,-5.351752 36.39582,-1.530565 70.2811,-2.772374 99.29493,-3.66468 29.01382,-0.892305 53.15221,-1.437857 70.02803,-1.593982 16.87583,-0.156125 26.48328,0.07317 26.48254,0.763173 -0.002,1.470525 -27.28118,3.63132 -66.85792,6.271857 -19.78836,1.320268 -42.6463,2.76372 -66.71849,4.292113 -24.07219,1.528393 -49.35786,3.142263 -74.04381,4.774323 -49.3719,3.26413 -96.31267,6.62328 -126.8176,9.19392 -15.25247,1.28532 -26.40621,2.36646 -31.72792,3.12106 -5.32171,0.7546 -4.81504,1.18014 3.29748,1.18471 17.67298,0.01 49.01471,-1.11213 86.30087,-2.57221 37.28616,-1.46008 80.53406,-3.24621 121.78173,-4.72815 41.24768,-1.48194 80.48857,-2.66421 109.44248,-3.13596 28.95391,-0.47174 47.59041,-0.25395 47.58869,1.03624 -0.004,2.76181 -25.21166,5.21821 -50.30283,7.06407 -25.09116,1.84585 -50.07334,3.07575 -50.07334,3.07575 0,0 25.23875,-1.18125 50.58809,-3.00761 25.34934,-1.82636 50.81747,-4.29218 50.82166,-7.17469 0.002,-1.53197 -19.63072,-1.89285 -49.82069,-1.48747 -30.18997,0.40537 -70.90277,1.60057 -113.11671,3.14183 -42.21395,1.54126 -85.92316,3.43262 -122.46278,4.98433 -36.53961,1.55172 -65.93208,2.7483 -79.74502,2.73972 -7.63051,-0.005 -7.77559,-0.42657 -2.18859,-1.17396 5.587,-0.74739 16.90963,-1.81789 32.25669,-3.0909 30.69412,-2.54602 77.52634,-5.87424 126.66392,-9.11858 24.5688,-1.62216 49.70591,-3.22889 73.62058,-4.754426 23.91467,-1.52554 46.60612,-2.970426 66.2423,-4.29738 39.27236,-2.653907 66.30513,-4.84884 66.30695,-6.379586 9.6e-4,-0.810632 -9.81106,-1.138255 -27.01843,-1.060156 -17.20738,0.0781 -41.80398,0.566141 -71.32316,1.420642 -29.51917,0.854502 -63.95673,2.078346 -100.87425,3.608584 -36.91752,1.530238 -76.31275,3.368416 -115.8237,5.398905 -39.51094,2.03049 -79.13728,4.253497 -116.61251,6.487557 -37.47523,2.23407 -72.80099,4.47806 -103.79624,6.49157 -61.99051,4.02702 -106.68961,7.11105 -116.96613,7.1103 -5.71836,-4.1e-4 -0.27137,-0.87097 13.67655,-2.37505 13.94792,-1.50409 36.40535,-3.63578 64.78754,-6.10356 28.38219,-2.46777 62.69499,-5.2676 100.32503,-8.12767 37.63005,-2.860067 78.58045,-5.778231 120.14217,-8.548645 41.56172,-2.770414 83.73512,-5.392829 123.68947,-7.745288 39.95436,-2.352459 77.68729,-4.436603 110.26151,-6.20393 32.57423,-1.767328 59.98464,-3.22137 79.24365,-4.3483 19.25902,-1.126929 30.35877,-1.932167 30.35879,-2.369428 1e-5,-0.482467 -12.75948,-0.420996 -35.18558,0.106878 -22.42609,0.527874 -54.50873,1.529078 -93.07358,2.982209 -38.56485,1.453131 -83.60497,3.36297 -131.99195,5.676446 -48.38699,2.313475 -100.11702,5.033221 -152.18829,8.018891 -52.07127,2.985671 -104.48306,6.237754 -154.39412,9.505229 -49.91105,3.267478 -97.32376,6.548678 -139.54464,9.490718 -42.22089,2.94204 -79.25546,5.5411 -108.49853,7.38341 -29.24308,1.84231 -50.7033,2.92191 -61.757606,2.83734 -11.51623,-0.0881 -7.213155,-1.58868 9.180856,-4.13091 16.39401,-2.54222 44.89654,-6.11397 81.95917,-10.22038 37.06263,-4.106397 82.69743,-8.739129 133.31347,-13.43261 50.61604,-4.693481 106.21989,-9.443193 163.03844,-13.909147 56.81856,-4.465954 114.85286,-8.647435 170.09069,-12.369307 55.23784,-3.721872 107.67472,-6.987221 153.08512,-9.767981 45.41039,-2.780759 83.7843,-5.083819 110.79139,-6.953356 27.00708,-1.869537 42.63184,-3.316243 42.63041,-4.324672 -0.001,-1.053526 -15.22892,-1.426729 -41.75644,-1.205778 -26.52752,0.220951 -64.34018,1.046349 -109.40434,2.464352 -45.06416,1.418004 -97.36985,3.435477 -152.96225,5.986219 -55.5924,2.550742 -114.46653,5.638188 -172.8585,9.064519 -58.39196,3.42633 -116.30174,7.191552 -170.19384,10.940392 -53.8921,3.74884 -103.77147,7.477877 -146.29387,10.699981 -42.5224,3.222104 -77.697765,5.930426 -102.261394,7.582997 -24.563628,1.65257 -38.530427,2.239113 -38.52892,1.291271 0.0016,-0.996871 14.331913,-3.320284 39.398525,-6.519685 25.066613,-3.199401 60.884959,-7.264138 103.949979,-11.68341 43.06502,-4.419272 93.38669,-9.186193 147.35657,-13.861238 53.96988,-4.675045 111.59249,-9.255094 169.04715,-13.446923 57.45467,-4.191829 114.74045,-7.996087 167.79761,-11.284369 53.05715,-3.288282 101.87928,-6.065005 142.22263,-8.32861 40.34335,-2.263604 72.19606,-4.022272 91.26745,-5.306808 19.07139,-1.284536 25.34413,-2.106889 14.69959,-2.379243 -11.35239,-0.290466 -34.0277,-0.05377 -64.86704,0.682289 -30.83933,0.736055 -69.83409,1.977407 -113.80736,3.70868 -43.97326,1.731274 -92.91952,3.956273 -143.74983,6.598976 -50.8303,2.642704 -103.54225,5.704777 -155.19432,9.008553 -51.65208,3.303775 -102.24498,6.848779 -148.99759,10.346768 -46.75262,3.49799 -89.66873,6.946353 -126.09406,9.969423 -36.42533,3.02307 -66.366756,5.616096 -87.216695,7.371211 -20.849938,1.755115 -32.618382,2.66543 -32.617811,2.378182 6.68e-4,-0.336125 10.318695,-1.646511 28.180942,-3.625193 17.862248,-1.978683 43.277018,-4.619939 73.512524,-7.589298 30.2355,-2.96936 65.29689,-6.263263 102.39276,-9.588351 37.09587,-3.325088 76.22824,-6.679963 114.49211,-9.849564 38.26387,-3.169602 75.65813,-6.154692 109.15734,-8.823259 33.4992,-2.668566 63.09909,-5.023534 85.69391,-6.988254 22.59481,-1.96472 38.17717,-3.544281 43.6482,-4.657282 5.47102,-1.113002 0.8202,-1.766696 -16.91022,-1.782383 -37.04061,-0.03277 -90.59773,1.566251 -149.6142,4.177676 -29.50824,1.305713 -60.38616,2.861185 -91.30115,4.554851 -30.91499,1.693666 -61.86693,3.5256 -91.5678,5.353494 -59.40173,3.655788 -113.7727,7.313675 -153.255184,9.527359 -39.482487,2.213684 -64.138034,2.940743 -64.136334,0.715989 0.0018,-2.322228 9.820565,-5.002507 23.361968,-7.67787 13.541403,-2.675362 30.812874,-5.340668 45.647245,-7.683113 14.834371,-2.342445 27.225815,-4.366048 30.922205,-5.816573 3.69639,-1.450525 -1.32139,-2.341149 -21.203319,-2.347226 -41.950039,-0.01282 -63.077734,0.237802 -73.803631,0.43254 -10.7258974,0.194737 -11.018362,0.3554 -11.018362,0.3554 z"
       id="path93460-1"
       inkscape:path-effect="#path-effect93462-7-8"
       inkscape:original-d="m 8.961548,15.499408 959.127202,0 0,102.494932 -959.127202,0 z"
       inkscape:connector-curvature="0" />
    <path
       inkscape:connector-curvature="0"
       inkscape:original-d="m 8.961548,17.742083 959.127202,0 0,264.218007 -959.127202,0 z"
       inkscape:path-effect="#path-effect94016"
       id="path94014"
       d="m 8.961548,23.731464 c 0,0 6.145556,-0.45069 21.834669,-1.153301 15.689112,-0.702611 40.912135,-1.674285 79.246333,-2.397676 19.16709,-0.361695 41.61566,-0.65479 67.82271,-0.761535 26.20706,-0.106745 56.17216,-0.02795 90.40038,0.404026 34.22823,0.431972 72.71908,1.216219 116.01293,2.583059 43.29384,1.366839 91.39012,3.315281 144.87245,6.152498 27.15371,1.440494 48.93298,2.936397 65.84027,4.371243 16.90729,1.434845 28.94344,2.810113 36.65124,4.081008 15.4156,2.541789 13.50185,4.637692 -1.09339,6.47228 -14.59523,1.834587 -41.85467,3.438535 -76.97449,5.273588 -35.11982,1.835053 -78.089,3.920768 -124.15972,6.619313 C 383.3442,58.074512 334.17667,61.394323 286.486,65.388066 238.79533,69.381809 192.58002,74.046798 152.2153,79.083082 111.85058,84.119365 77.328693,89.513136 52.896081,94.735532 28.463469,99.957928 14.106104,104.98402 14.1051,109.34656 c -0.001,4.4111 14.57718,7.03381 40.19189,8.48472 25.61471,1.4509 62.27972,1.75449 106.55578,1.71119 44.27606,-0.0433 96.17236,-0.41715 152.18069,-0.44371 56.00833,-0.0266 116.1333,0.30237 176.69407,1.35786 60.56076,1.05548 121.55735,2.83758 179.10144,5.3486 57.54409,2.51103 111.63113,5.7429 158.19921,9.38946 46.56808,3.64656 85.60807,7.69158 112.98718,11.70293 27.37912,4.01136 43.08364,7.96466 43.08136,11.60655 -0.002,3.68708 -15.5846,6.15728 -42.72386,7.90532 -27.13926,1.74804 -65.82283,2.79641 -111.9496,3.77858 -46.12676,0.98217 -99.68832,1.91308 -156.66344,3.28424 -56.97513,1.37117 -117.35965,3.18997 -177.30642,5.63858 -59.94678,2.4486 -119.45589,5.52683 -174.88472,9.05336 -55.42883,3.52653 -106.78171,7.49364 -150.58725,11.41568 -43.80555,3.92203 -80.072346,7.78373 -105.403204,10.96757 -25.330858,3.18384 -39.738619,5.66701 -39.739499,6.98586 -9.13e-4,1.36762 14.368082,1.23711 39.625285,0.19616 25.257203,-1.04096 61.415788,-2.96894 105.086138,-5.03263 43.67034,-2.06369 94.86122,-4.24751 150.11055,-5.9289 55.24933,-1.68139 114.56147,-2.8526 174.3034,-3.19488 59.74193,-0.34227 119.91362,0.14432 176.6787,1.41716 56.76508,1.27284 110.11911,3.32404 156.05607,5.80944 45.93695,2.48541 84.44798,5.3893 111.45714,8.24326 27.00915,2.85396 42.50317,5.63443 42.50201,8.04343 -0.001,2.45433 -15.77375,3.92151 -43.24687,4.83744 -27.47311,0.91592 -66.63355,1.30406 -113.32646,1.74961 -46.69291,0.44555 -100.90951,0.96411 -158.57574,1.99728 -57.66622,1.03318 -118.77774,2.58868 -179.43956,4.78983 -60.66182,2.20116 -120.87406,5.04779 -176.95258,8.2885 -56.07852,3.24071 -108.02787,6.86743 -152.34001,10.31584 -44.31214,3.4484 -80.996048,6.70254 -106.618473,9.06515 -25.622426,2.36261 -40.196779,3.80987 -40.196779,3.80987 0,0 14.589445,-1.44471 40.238476,-3.80298 25.64903,-2.35827 62.371076,-5.60623 106.729486,-9.04709 44.35842,-3.44085 96.36219,-7.05863 152.49977,-10.28964 56.13758,-3.23101 116.41351,-6.06717 177.13985,-8.2583 60.72634,-2.19112 121.9032,-3.73701 179.6314,-4.76286 57.7282,-1.02585 112.0034,-1.53938 158.747,-1.98465 46.7436,-0.44528 85.94682,-0.83791 113.45005,-1.76592 27.50324,-0.92801 43.29327,-2.41491 43.29457,-4.89926 0.001,-2.52969 -15.49306,-5.41782 -42.50353,-8.36673 -27.01047,-2.9489 -65.52375,-5.93499 -111.46387,-8.48938 -45.94011,-2.5544 -99.29821,-4.66134 -156.06792,-5.97568 -56.7697,-1.31433 -116.94657,-1.82812 -176.69374,-1.49745 -59.74716,0.33067 -119.06458,1.50591 -174.3187,3.20831 -55.25412,1.7024 -106.4493,3.92422 -150.12307,6.04404 -43.67378,2.11981 -79.834905,4.12206 -105.093689,5.25597 -25.258784,1.13391 -39.628385,1.37611 -39.627506,0.13862 9.15e-4,-1.28625 14.41001,-3.73886 39.743043,-6.89491 25.333034,-3.15606 61.602852,-6.99271 105.411922,-10.89296 43.80907,-3.90025 95.16598,-7.84881 150.59908,-11.36039 55.4331,-3.51158 114.94674,-6.57846 174.89804,-9.0196 59.95131,-2.44114 120.34039,-4.25638 177.31984,-5.62817 56.97946,-1.37178 110.54514,-2.3075 156.67553,-3.29905 46.1304,-0.99155 84.81711,-2.05385 111.95867,-3.8209 27.14157,-1.76704 42.72534,-4.26131 42.72782,-7.97823 0.003,-3.76211 -15.70233,-7.82267 -43.08275,-11.92862 -27.38042,-4.10595 -66.42267,-8.2329 -112.99394,-11.94823 -46.57127,-3.71533 -100.66241,-7.0028 -158.21117,-9.55521 -57.54876,-2.55241 -118.55057,-4.36166 -179.1166,-5.42873 -60.56603,-1.06707 -120.69629,-1.392 -176.70941,-1.34449 -56.01312,0.0475 -107.91369,0.45929 -152.19312,0.55861 -44.27942,0.0993 -80.946877,-0.13017 -106.563038,-1.4883 -25.616161,-1.35813 -40.1948,-3.86939 -40.19363,-8.15066 0.0012,-4.32983 14.425634,-9.330958 38.968102,-14.533051 24.542467,-5.202092 59.217116,-10.579971 99.753656,-15.601195 40.53654,-5.021225 86.94281,-9.671862 134.81837,-13.650733 47.87556,-3.978871 97.22193,-7.283291 143.43842,-9.967996 46.21648,-2.684705 89.29826,-4.758257 124.46916,-6.587238 35.1709,-1.828981 62.41979,-3.4332 76.91475,-5.278291 14.49495,-1.845091 16.21851,-3.962112 0.4977,-6.534233 -7.8604,-1.286061 -20.07783,-2.678682 -37.19767,-4.131881 C 579.61307,31.529253 557.59001,30.013979 530.15922,28.555275 474.4725,25.593988 424.73128,23.595402 380.23244,22.210746 335.7336,20.82609 296.47789,20.056702 261.81511,19.647877 227.15232,19.239052 197.08314,19.191989 170.99959,19.327035 144.91605,19.462081 122.81872,19.780295 104.13236,20.160137 66.759621,20.91982 43.015199,21.898454 28.562777,22.596205 14.110356,23.293956 8.961548,23.731464 8.961548,23.731464 z"
       style="color:#000000;fill:none;stroke:#ffb600;stroke-width:4.99999952;stroke-linecap:round;stroke-linejoin:round;stroke-miterlimit:4;stroke-opacity:1;stroke-dasharray:none;stroke-dashoffset:0;marker:none;visibility:visible;display:inline;overflow:visible;enable-background:accumulate" />
  </g>
  <g
     inkscape:label="0-Water Wash"
     id="layer0"
     inkscape:groupmode="layer"
     style="display:inline" />
  <WCB
     id="WCB126812"
     totaldeltay="0"
     totaldeltax="0"
     lastpathnc="0"
     lastpath="0"
     node="0"
     layer="0"
     serialport="/dev/cu.usbmodemfa141" />
</svg>
